<svg id="Group_275" data-name="Group 275" xmlns="http://www.w3.org/2000/svg" xmlns:xlink="http://www.w3.org/1999/xlink" width="536" height="367.321" viewBox="0 0 536 367.321">
  <defs>
    <clipPath id="clip-path">
      <rect id="Rectangle_180" data-name="Rectangle 180" width="536" height="367.321" fill="#fff"/>
    </clipPath>
  </defs>
  <g id="Group_274" data-name="Group 274" clip-path="url(#clip-path)">
    <path id="Path_1264" data-name="Path 1264" d="M526.205,13.342a117.8,117.8,0,0,1,1.917-12.115c0-.307.077-.537.077-.69,0-.383-.077-.537-.23-.537-.307,0-.613.46-1,1.227-2.607,5.137-4.064,9.354-4.294,12.5-.23,2.914-.46,5.827-.613,8.741-.307,2.377-.92,4.064-1.917,4.984v4.6a17.41,17.41,0,0,0,3.527-6.211,46.733,46.733,0,0,0,2.53-12.5" transform="translate(-187.791)" fill="#fff"/>
    <path id="Path_1265" data-name="Path 1265" d="M508.641,60.31c-2.837,5.751-4.294,9.891-4.6,12.5-.46,5.521-.92,11.041-1.457,16.562a67.776,67.776,0,0,1-1.457,10.735,1.712,1.712,0,0,0-.077.843c0,.153.077.23.23.153a3.49,3.49,0,0,0,.537-.69c2.607-3.757,4.217-8.434,4.907-14.185.153-1.227.613-5.981,1.457-14.338a107.354,107.354,0,0,1,1.457-11.425,5,5,0,0,0,.153-.843q0-.46-.23-.46-.345,0-.92,1.15" transform="translate(-180.885 -21.359)" fill="#fff"/>
    <path id="Path_1266" data-name="Path 1266" d="M491.543,43.693c-.153-.153-.23-.153-.46-.153-.077,0-.23.307-.537.767a5.326,5.326,0,0,1-1.994,1.917,2.127,2.127,0,0,1-1,.46.411.411,0,0,1-.307-.23.459.459,0,0,0-.46-.23c-.153,0-.307.307-.613.843a7.383,7.383,0,0,1-1.917,1.84,1.616,1.616,0,0,1-.843.383c-.23,0-.383-.153-.537-.383-.23-.23-.383-.307-.613-.23a1.492,1.492,0,0,0-.613.613,12.569,12.569,0,0,1-1.764,1.917,2.2,2.2,0,0,1-1.534.613c-.537,0-.92-.307-1.227-1a1.757,1.757,0,0,0-1.764-1.073c-3.45,0-8.2,2.454-14.185,7.361a26.124,26.124,0,0,0-7.054,8.741,3.152,3.152,0,0,0-.383,1.227c0,.46.23.69.767.69a3.481,3.481,0,0,0,1.38-.307,23.054,23.054,0,0,1,8.664-1.457,20.514,20.514,0,0,1,4.677.46c.537.153.843.383.843.69a1.075,1.075,0,0,1-.613.843,48.383,48.383,0,0,0-17.405,17.559c-3.91,6.747-5.827,12.958-5.827,18.862,0,4.371,1.073,7.821,3.22,10.428,2.454,2.99,5.981,4.447,10.581,4.447q16.1,0,32.127-23.923a1.224,1.224,0,0,0,.23-.613c0-.383-.153-.537-.46-.537a1.464,1.464,0,0,0-.92.537c-8.511,9.431-17.789,14.185-27.6,14.185a12.8,12.8,0,0,1-8.818-3.144,11.218,11.218,0,0,1-3.527-8.664c0-3.91,1.534-8.128,4.677-12.728a51.7,51.7,0,0,1,14.875-13.725,13.219,13.219,0,0,0,2.607-2.76,13.515,13.515,0,0,0,2.454-4.14,2.239,2.239,0,0,0,.153-.69c0-1.687-1.84-2.607-5.444-2.607-4.447,0-7.591.383-9.354,1a.691.691,0,0,1-.383.077c-.153,0-.23-.077-.23-.153,0-.23.307-.537.767-.92a23.824,23.824,0,0,1,6.057-3.757,14.322,14.322,0,0,1,5.674-1.61,1.77,1.77,0,0,1,1.61,1.15,1.882,1.882,0,0,0,1.84,1.227,5.674,5.674,0,0,0,3.527-1.764v.077a5.914,5.914,0,0,1,2.377-1.687,8.285,8.285,0,0,0,2.3-1.227,4.438,4.438,0,0,1,1.61-.92,4.7,4.7,0,0,0,2.07-1.15,5.93,5.93,0,0,1,1.84-1.073,17.387,17.387,0,0,0,3.3-2.147V43.08a3.733,3.733,0,0,1-1.457.843c-.153,0-.23-.077-.383-.23" transform="translate(-161.104 -15.553)" fill="#fff"/>
    <path id="Path_1267" data-name="Path 1267" d="M454.838,21.564c.613.383,1.227.767,1.764,1.15a13.583,13.583,0,0,0,3.067,1.84c.613,0,1.534-.843,2.684-2.53a8.181,8.181,0,0,0,1.764-4.14,5.294,5.294,0,0,0-1.84-3.6,5.317,5.317,0,0,0-3.757-1.84q-.575,0-2.53,3.45c-1.227,2.377-1.84,3.91-1.84,4.677a1.336,1.336,0,0,0,.69,1" transform="translate(-163.963 -4.491)" fill="#fff"/>
    <path id="Path_1268" data-name="Path 1268" d="M481.493,105.607a5.387,5.387,0,0,0-3.3-1.687c-.23,0-.92.767-1.994,2.377-.767,1.073-1.534,2.224-2.224,3.3a9.743,9.743,0,0,0-2.53-2.53,6.444,6.444,0,0,0-2.837-1.457c-.307,0-1.227,1.3-2.76,3.834s-2.224,4.064-2.224,4.447c0,.23.843.92,2.454,2.147.537.383,1,.767,1.457,1.15a2.643,2.643,0,0,0,1.3.69c1.15,0,2.684-1.84,4.754-5.444a16.9,16.9,0,0,1,3.067,2.454,3.772,3.772,0,0,0,1.917,1.15c.613,0,1.534-.843,2.837-2.53,1.38-1.764,2.07-3.22,2.07-4.447,0-1.073-.69-2.224-1.994-3.45" transform="translate(-167.386 -37.519)" fill="#fff"/>
    <path id="Path_1269" data-name="Path 1269" d="M488.951,8.8c.537.383,1.073.69,1.534,1.073.537.46,1.073.92,1.61,1.3a2.111,2.111,0,0,0,1.15.613c.46,0,1.227-.843,2.224-2.454a8.591,8.591,0,0,0,1.687-4.217,4.448,4.448,0,0,0-1.84-3.144A4.342,4.342,0,0,0,492.325.44c-.307,0-1.073,1.15-2.377,3.45a19.516,19.516,0,0,0-1.84,3.987c0,.307.307.613.843.92" transform="translate(-176.224 -0.159)" fill="#fff"/>
    <path id="Path_1270" data-name="Path 1270" d="M482.925,26.681a14.893,14.893,0,0,0,2.837,1.764c1.15,0,2.684-1.84,4.6-5.367a16.616,16.616,0,0,1,2.99,2.377c.92.767,1.534,1.15,1.917,1.15.613,0,1.534-.767,2.76-2.454A7.619,7.619,0,0,0,500.1,19.7a4.862,4.862,0,0,0-1.994-3.3,5.061,5.061,0,0,0-3.22-1.687c-.23,0-.843.767-1.917,2.377-.767,1.073-1.457,2.147-2.224,3.22a9.243,9.243,0,0,0-2.454-2.53,5.586,5.586,0,0,0-2.76-1.38c-.307,0-1.227,1.227-2.76,3.757s-2.224,3.987-2.224,4.447a10.639,10.639,0,0,0,2.377,2.07" transform="translate(-173.494 -5.314)" fill="#fff"/>
    <path id="Path_1271" data-name="Path 1271" d="M616.383,29.67a4.81,4.81,0,0,0-3.91-2.07c-1.073,0-2.454,1.61-4.141,4.677-1.534,2.914-2.3,4.907-2.3,6.057a2.358,2.358,0,0,0,1.073,1.687,3.476,3.476,0,0,0,2.147.92,4.93,4.93,0,0,0,1.687-.307,4.477,4.477,0,0,1,1.534-.307c1,0,1.534.613,1.534,1.764,0,1-1.61,2.99-4.677,5.981v.077a56.254,56.254,0,0,1-8.2,6.057c3.374-4.294,5.061-8.281,5.061-11.731a4.546,4.546,0,0,0-1-2.99,3.709,3.709,0,0,0-2.99-1.38c-1.687,0-4.524,2.454-8.588,7.284-.383.46-1.84,2.224-4.447,5.521-1,1.3-1.687,1.917-1.994,1.917a3.463,3.463,0,0,1-2.837-1.3c-.613-.92-1.227-1.38-1.917-1.38-.613,0-1.61.843-2.837,2.607a38.962,38.962,0,0,1-4.294,5.061v.077a2.212,2.212,0,0,1-1.687.613,6.521,6.521,0,0,1-1.917-.46A13.794,13.794,0,0,0,569,57.5c-1.3.077-3.22,1.3-5.751,3.834a8.1,8.1,0,0,1-5.827,2.3,8.868,8.868,0,0,1-4.371-1.15,5.454,5.454,0,0,1-2.224-2.607,16.015,16.015,0,0,1-.613-5.061c0-2.3.613-6.824,1.84-13.648,0-.307.077-.613.077-.767,0-.383-.077-.537-.23-.537-.23,0-.537.383-.92,1.3-2.3,5.214-3.527,8.894-3.757,10.965a85.544,85.544,0,0,0-1,10.965c0,4.154-.3,6.962-.82,8.511h-.1c-1.227,3.3-3.374,4.984-6.441,4.984a2.045,2.045,0,0,1-1.764-1,2.806,2.806,0,0,0-2.53-1c-1.84,0-4.064,1.38-6.594,4.064a29.394,29.394,0,0,0-5.6,8.664,2.651,2.651,0,0,0-.23.92c0,.537.46.46,1.227-.307q3.8-3.45,6.671-3.45a2.959,2.959,0,0,1,1.917.92,3.265,3.265,0,0,0,2.07,1c5.965,0,10.48-4.96,13.318-14.722h.024c1,1.917,2.914,2.837,5.674,2.837V74.6a8.447,8.447,0,0,0,5.521-2.377,43.735,43.735,0,0,0,5.444-6.824,2.794,2.794,0,0,1,2.3-1.3,13.249,13.249,0,0,1,2.224.383,6.382,6.382,0,0,0,2.454.383c1.073.077,2.454-.767,4.294-2.454.46-.537,1.457-1.61,2.914-3.374a11.2,11.2,0,0,1,1.994-2.147c.383,0,.767.46,1.227,1.3a9.486,9.486,0,0,0,1.61,2.3,5.145,5.145,0,0,0,3.6,1.227c2.76,0,6.134-.92,10.121-2.914,5.674-1.61,9.815-3.68,12.575-6.134,5.9-5.444,8.894-10.965,8.894-16.562a10.063,10.063,0,0,0-1.84-6.441M596.217,51.676a16.1,16.1,0,0,1-7.361,1.3q7.246-7.821,10.121-7.821a5.778,5.778,0,0,1,2.684.613c.537.307.843.69.843,1.073,0,.307-.537,1-1.61,1.994a16.953,16.953,0,0,1-4.677,2.837" transform="translate(-188.513 -9.965)" fill="#fff"/>
    <path id="Path_1272" data-name="Path 1272" d="M645.478,12.724c.613.383,1.227.767,1.764,1.15a13.585,13.585,0,0,0,3.067,1.84c.613,0,1.534-.843,2.684-2.53a8.181,8.181,0,0,0,1.764-4.14,5.294,5.294,0,0,0-1.84-3.6,5.317,5.317,0,0,0-3.757-1.84q-.575,0-2.53,3.45c-1.227,2.377-1.84,3.91-1.84,4.677a1.336,1.336,0,0,0,.69,1" transform="translate(-232.791 -1.3)" fill="#fff"/>
    <path id="Path_1273" data-name="Path 1273" d="M612,16.324c.613.383,1.227.767,1.764,1.15a13.585,13.585,0,0,0,3.067,1.84c.613,0,1.534-.843,2.684-2.53a8.182,8.182,0,0,0,1.764-4.14,5.294,5.294,0,0,0-1.84-3.6,5.317,5.317,0,0,0-3.757-1.84q-.575,0-2.53,3.45c-1.227,2.377-1.84,3.91-1.84,4.677a1.336,1.336,0,0,0,.69,1" transform="translate(-220.703 -2.599)" fill="#fff"/>
    <path id="Path_1274" data-name="Path 1274" d="M608.293,106.087A5.387,5.387,0,0,0,605,104.4c-.23,0-.92.767-1.994,2.377-.767,1.073-1.534,2.224-2.224,3.3a9.741,9.741,0,0,0-2.53-2.53,6.444,6.444,0,0,0-2.837-1.457c-.307,0-1.227,1.3-2.76,3.834s-2.224,4.064-2.224,4.447c0,.23.843.92,2.454,2.147.537.383,1,.767,1.457,1.15a2.643,2.643,0,0,0,1.3.69c1.15,0,2.684-1.84,4.754-5.444a16.9,16.9,0,0,1,3.067,2.454,3.772,3.772,0,0,0,1.917,1.15c.613,0,1.534-.843,2.837-2.53,1.38-1.764,2.07-3.22,2.07-4.447,0-1.073-.69-2.224-1.994-3.45" transform="translate(-213.165 -37.692)" fill="#fff"/>
    <path id="Path_1275" data-name="Path 1275" d="M529.817,51.261c-.442.489-.875.9-1.309,1.316-.527.557-.8.912-.834,1.217-.131,1.142,1.523,2.876,4.868,5.342a16.875,16.875,0,0,1-2.787,2.768,3.77,3.77,0,0,0-1.361,1.774c-.07.61.663,1.619,2.191,3.107,1.595,1.572,2.964,2.423,4.183,2.563,1.066.122,2.288-.433,3.655-1.588a5.385,5.385,0,0,0,2.051-3.084c.026-.228-.657-1-2.135-2.251-.979-.884-2.034-1.776-3.022-2.584a9.744,9.744,0,0,0,2.8-2.226,6.441,6.441,0,0,0,1.77-2.653c.035-.3-1.155-1.367-3.495-3.178s-3.785-2.672-4.165-2.716c-.228-.026-1.01.734-2.412,2.194" transform="translate(-190.506 -17.715)" fill="#fff"/>
    <path id="Path_1276" data-name="Path 1276" d="M444.241,60.84q-.345,0-.92,1.15c-2.837,5.751-4.294,9.891-4.6,12.5-.46,5.521-.92,11.041-1.457,16.562a67.776,67.776,0,0,1-1.457,10.735,1.712,1.712,0,0,0-.077.843c0,.153.077.23.23.153a3.489,3.489,0,0,0,.537-.69c2.607-3.757,4.217-8.434,4.907-14.185.153-1.227.613-5.981,1.457-14.338a107.359,107.359,0,0,1,1.457-11.425,5.007,5.007,0,0,0,.153-.843q0-.46-.23-.46" transform="translate(-157.302 -21.965)" fill="#fff"/>
    <path id="Path_1277" data-name="Path 1277" d="M364.388,28.947c0-.307.077-.537.077-.69,0-.383-.077-.537-.23-.537-.307,0-.613.46-1,1.227-2.607,5.137-4.064,9.354-4.294,12.5-.23,2.914-.46,5.827-.613,8.741-.307,2.377-.92,4.064-1.917,4.984a12.785,12.785,0,0,1-3.374,2.147,7.848,7.848,0,0,1-3.144,1c-.46,0-.69-.077-.69-.383a10.118,10.118,0,0,1,1.687-1.84,4.744,4.744,0,0,0,1.687-3.22,3.014,3.014,0,0,0-1.457-2.224,8,8,0,0,0-4.217-1.073,8.772,8.772,0,0,0-4.984,1.764,11.085,11.085,0,0,0-3.45,3.91,1.747,1.747,0,0,0-.23.843c0,.383.153.537.46.537a1.09,1.09,0,0,0,.46-.153,4.4,4.4,0,0,1,1.917-.46,4.561,4.561,0,0,1,2.454.69c.69.383,1,.843,1,1.227a2.213,2.213,0,0,1-1.3,1.917c-8.128,4.831-19.092,8.588-32.971,11.271A183.648,183.648,0,0,1,274.6,74.646a42.016,42.016,0,0,1-18.172-3.91c-6.747-3.144-10.045-7.438-10.045-12.728a76.012,76.012,0,0,1,2.684-19.092c.077-.23-.077-.383-.307-.383s-.383.153-.537.383l-2.53,4.831a23.05,23.05,0,0,0-1.917,4.217c-1.38,9.278-2.377,16.255-2.99,21.163a12.9,12.9,0,0,1-3.6,7.361,8.222,8.222,0,0,1-5.827,2.53,5.224,5.224,0,0,1-2.607-.613c1.84-1.687,3.45-4.754,4.677-9.278a101.749,101.749,0,0,0,1.994-12.038c.843-6.441,1.61-11.271,2.224-14.338a6.377,6.377,0,0,0,.153-1c0-.383-.077-.537-.23-.537-.307,0-.767.537-1.3,1.534-2.837,5.367-4.371,8.894-4.524,10.658q-1.035,10.006-1.38,12.652c-.92,6.287-1.994,10.351-3.3,11.961a1.922,1.922,0,0,0-1.073,1.687,4.125,4.125,0,0,0,.69,2.07q2.53,4.371,4.371,4.371c1.61,0,3.45-.92,5.444-2.76a21.88,21.88,0,0,0,5.9-10.5c3.68,8.2,14.415,12.345,32.2,12.345A134.733,134.733,0,0,0,308.645,80.4c15.8-4.141,28.37-9.968,37.495-17.635a5.193,5.193,0,0,0,1.994.307,11.975,11.975,0,0,0,8.281-3.3,17.41,17.41,0,0,0,3.527-6.211,46.733,46.733,0,0,0,2.53-12.5,117.8,117.8,0,0,1,1.917-12.115" transform="translate(-81.589 -10.008)" fill="#fff"/>
    <path id="Path_1278" data-name="Path 1278" d="M198.015,80.28c-.23,0-1.15,1.764-2.684,5.214-1,.23-2.53,1.687-4.677,4.217-1.994,2.377-3.834,3.527-5.6,3.527a5.234,5.234,0,0,1-3.527-1,2.908,2.908,0,0,0-1.994-1c-2.377,0-5.061,1.764-8.051,5.137a26.166,26.166,0,0,0-4.907,7.591,2,2,0,0,0-.23.843c0,.307.153.46.383.46a1.74,1.74,0,0,0,1.073-.537c2.454-2.147,4.524-3.3,6.287-3.3a3.45,3.45,0,0,1,2.224,1,3.075,3.075,0,0,0,2.377,1c3.374,0,6.287-1.687,8.818-5.061a19.644,19.644,0,0,1,3.91-4.217,5.08,5.08,0,0,1,2.76-.843,7.33,7.33,0,0,1,2.3.613,8.4,8.4,0,0,0,2.53.613q1.035,0,2.53-2.3a9.134,9.134,0,0,0,1.38-4.677A7.91,7.91,0,0,0,200.7,82.58c-1.227-1.534-2.147-2.3-2.684-2.3" transform="translate(-60.057 -28.984)" fill="#fff"/>
    <path id="Path_1279" data-name="Path 1279" d="M175.4,64.675c.537.383,1,.767,1.457,1.15a2.642,2.642,0,0,0,1.3.69c1.151,0,2.684-1.84,4.755-5.444a16.924,16.924,0,0,1,3.067,2.454,3.767,3.767,0,0,0,1.917,1.15c.613,0,1.533-.843,2.837-2.53,1.38-1.764,2.07-3.22,2.07-4.447,0-1.073-.69-2.224-1.993-3.45a5.388,5.388,0,0,0-3.3-1.687c-.23,0-.92.767-1.993,2.377-.767,1.073-1.534,2.224-2.224,3.3a9.738,9.738,0,0,0-2.53-2.53,6.446,6.446,0,0,0-2.838-1.457c-.306,0-1.227,1.3-2.76,3.834s-2.224,4.064-2.224,4.447c0,.23.844.92,2.454,2.147" transform="translate(-62.44 -18.976)" fill="#fff"/>
    <path id="Path_1280" data-name="Path 1280" d="M305.135,42.892a7.235,7.235,0,0,0,2.837-1.38,39.282,39.282,0,0,0,9.124-8.894,4.36,4.36,0,0,0,1.073-2.07c0-.23-.077-.307-.307-.307-.537,0-1.38.613-2.53,1.994a52.223,52.223,0,0,1-8.434,8.2c-1.38,1.073-2.07,1.764-2.07,2.224,0,.153.077.23.307.23" transform="translate(-110.053 -10.918)" fill="#fff"/>
    <path id="Path_1281" data-name="Path 1281" d="M94.087,357.011c2.167,3.472,6.675,5.5,10.193,8.1a13.891,13.891,0,0,0,2.64,1.332c.964.431,2.2.716,2.84-.137,2.835-3.8,5.551-8.053,6.128-12.554.413-3.221-3.523-5.355-6.586-7-3.565-1.91-5.428-4.277-2.314-8.3,1.143-1.476,2.372-3.3,1.895-5.547a3.722,3.722,0,0,0-1.751-4.186c-3.528-2.171-6.451-5.2-10.381-6.838-2.728-1.138-3.781-.3-5.15,2.1-6.1,10.684-6.192,10.623,3.915,17.7.663.464,1.159,1.5,1.815,1.581,2.58.306.741,1.4.576,2.3-.751,4.091-6.393,7.315-3.818,11.442" transform="translate(-31.553 -116.032)" fill="#fff"/>
    <path id="Path_1282" data-name="Path 1282" d="M426.081,526.38c-1.619.325-2.981,1.251-4.378-.158-1.51-1.522-1.092-3.277-.523-5.093,1.385-4.409,3.388-8.61,6.855-11.581,2.864-2.455,2.5-5.282,2.512-8.266,0-.932.312-2.268-1.174-2.27a2.524,2.524,0,0,0-1.9,1.224,8.914,8.914,0,0,1-3.745,4.571c-1.18.621-2.594,1.656-4.242.261-.662-.56-1.424-.96-1.077-1.731a3.133,3.133,0,0,1,3.361-2.04c1.553.16,2.51-.053,2.773-2.133.273-2.16.928-3.793-1.5-5.337-2.468-1.572-3.175.446-4.3,1.5-4.257,4-7.529,14.268-4.744,15.4,6.306,2.576,3.505,6.5,3.079,10.383a45.389,45.389,0,0,0-.027,6.128,6.011,6.011,0,0,0,4.827,5.936c6.873,1.876,18.648-5.291,21.12-13.208-3.231,1.31-5.923,2.35-8.572,3.489a42.041,42.041,0,0,1-8.348,2.916" transform="translate(-149.096 -178.08)" fill="#fff"/>
    <path id="Path_1283" data-name="Path 1283" d="M801.618,521.845a63.505,63.505,0,0,1-15.688,8.07,4.556,4.556,0,0,1-4.585-.565c-2.057-1.631-.131-2.892.284-4.205a45,45,0,0,1,2.45-5.988c2.084-4.3,4.117-8.561,3.712-13.572-.174-2.145-.9-3.314-3.143-3.7a10.586,10.586,0,0,0-12.273,12.04c2.9-2.482,5.946-4.321,10.11-3.057-1.672,5.6-4.621,10.356-5.486,15.922-.8,5.144,3.9,11.871,8.359,10.59,7.694-2.211,14.779-5.751,18.954-13.254.653-1.174,1.129-2.45.226-3.327-1.265-1.228-2.005.416-2.921,1.041" transform="translate(-278.813 -181.144)" fill="#fff"/>
    <path id="Path_1284" data-name="Path 1284" d="M187.946,508.246a12.7,12.7,0,0,0-5.041,4.665c-5.11,8.636-13.446,12.43-22.289,15.7-7.281,2.692-14.467,5.643-21.695,8.478l.412,1.535c17.081-1.873,34.319-3.4,44.367-20.821,2.585,2.6,5.737,6.12,9.193,4.263,3.686-1.98,2.523-6.914,2.109-10.568-.48-4.234-3.758-4.881-7.055-3.251" transform="translate(-50.155 -183.197)" fill="#fff"/>
    <path id="Path_1285" data-name="Path 1285" d="M114.087,516.153a1.309,1.309,0,0,0-1.927.668c-1.3,2.393-2.958,5.766-5.886,4.545-3.015-1.257-1.256-5.109-1.459-7.813a13.276,13.276,0,0,1,.605-5.335c1.68-5.051,2.793-10.29,4.131-15.455-8.707,10-10.783,21.766-9.507,34.252.225,2.2,2.549,4.238,4.993,4.717,2,.392,4.044-.859,5.207-2.413,2.517-3.364,3.025-7.612,4.29-11.517a1.808,1.808,0,0,0-.447-1.649" transform="translate(-35.995 -177.905)" fill="#fff"/>
    <path id="Path_1286" data-name="Path 1286" d="M615.715,513.454c-4.889-.125-6.355,3.465-7.63,6.9-.559,1.5-2.059,5.7,2.944,3.208,1.13-.564,3.141-.869,3.878.553a4.315,4.315,0,0,1-.312,4.1c-2.205,3.56-4.374,7.11-7.516,10-1.523,1.4-3.958,2.6-2.776,5.47,8.6-5.229,12.1-9.257,15.885-16.9,1.58-3.189,1.234-6.379.886-9.457-.282-2.484-2.464-3.8-5.358-3.871" transform="translate(-218.061 -185.374)" fill="#fff"/>
    <path id="Path_1287" data-name="Path 1287" d="M123.517,216.136c3.73,5.261,2.069,11.227,3.151,18.21,5.611-10.756,3.293-26.39-4.22-32.488-1.558-1.264-4.07-3.634-6.3-.97a5.042,5.042,0,0,0,.309,7.093,84,84,0,0,1,7.059,8.154" transform="translate(-41.46 -72.09)" fill="#fff"/>
    <path id="Path_1288" data-name="Path 1288" d="M305.211,244.437c1.117,9.763,1.644,19.781,1.957,29.723.189,5.991.279,12.127,1,18.117,2.571,21.229,3.378,42.59,4.6,63.9.645,11.254,1.567,22.729-.962,34-.351,1.564-.369,3.577,1.429,4.257,1.271.48,1.753-1.011,2.277-2.129a91.738,91.738,0,0,0,8.183-46c-.652-8.99-.96-18.07-1.779-27.079s-1.481-18.17-1.873-27.281c-.25-5.8-.1-11.765-1.057-17.5-2.215-13.236-1.318-26.676-3.572-40.284,3.381,1.546,4.668,5.054,9.179,6.431-2.427-16.175-9.581-29.615-15.8-45.244-3.479,7.74-8.554,14.06-6.409,20.44,3.21,9.546,1.735,19.168,2.82,28.652" transform="translate(-108.989 -70.526)" fill="#fff"/>
    <path id="Path_1289" data-name="Path 1289" d="M68.622,281.769a8.163,8.163,0,0,0,1.423-.514c22.006-12.071,43.742-24.669,66.077-36.1,22.142-11.328,44.19-22.947,67.306-32.273,4.96-2,8.993-4.592,9.209-10.554.081-2.219,1.231-5.362-3.444-2.989-6.838,3.47-14.206,5.9-21.026,9.4-19.516,10.011-39.774,18.506-58.924,29.272C114.437,246.342,99.112,253.765,84.5,262.4c-7.3,4.314-17.726,6.832-15.876,19.368" transform="translate(-24.697 -71.664)" fill="#fff"/>
    <path id="Path_1290" data-name="Path 1290" d="M539.819,278.225c.1,1.155-2.525,2.291-.245,3.434,1.054.528,2.155-.265,3.287-.944,19.333-11.588,39.314-21.985,59.233-32.525,23.766-12.575,47.7-24.751,72.443-35.273,5.933-2.524,9.177-6.08,8.977-12.735.126-2.346-.758-2.012-2.768-1.049-7.282,3.49-14.819,6.452-22.083,9.977-37.005,17.956-73.848,36.237-109.458,56.87-4.657,2.7-9.969,5.3-9.385,12.244" transform="translate(-194.467 -71.63)" fill="#fff"/>
    <path id="Path_1291" data-name="Path 1291" d="M383.092,266.949a14.085,14.085,0,0,0,2.159-.73c27.393-15.829,55.424-30.457,83.819-44.392,10.1-4.957,20.238-9.846,30.481-14.5,4.409-2,2.985-5.9,2.184-8.238-1.039-3.034-3.723-.179-5.422.551-5.615,2.411-11.134,5.056-16.614,7.765-30.661,15.157-61.451,30.06-90.833,47.672-4.595,2.755-6.629,6.05-5.774,11.869" transform="translate(-138.24 -71.385)" fill="#fff"/>
    <path id="Path_1292" data-name="Path 1292" d="M411.173,207.882c3.856-1.91,3.914-5.816,3.449-9.757-21.778,9.09-42.013,20.556-62.842,30.809-4.88,2.4-7.049,6.229-5.2,12.186,21.292-11.51,42.884-22.486,64.591-33.238" transform="translate(-124.891 -71.53)" fill="#fff"/>
    <path id="Path_1293" data-name="Path 1293" d="M353.31,349.9c5.055,2.162,8.108-2.05,11.243-5.179.209-.208.635-.2.951-.289,3.662,5.205,8.019,6.032,10.869,1.667a16.793,16.793,0,0,0,3.119-8.85c.215-7.356-4.986-12.873-5.459-21.014-4.921,6.171-3.842,11.391-1.465,16.72.788,1.767,2.609,3.408,1.6,5.461-.3.611-2.264.761-3.362.56-2.683-.491-2.075-2.852-2.618-4.768-1.515-5.336-.652-11.424-4.863-16.42-3.1,3.728-3.083,7.608-1.721,11.431a15.889,15.889,0,0,1,.454,6.6c-.178,2.887-2.578,5.371-4.828,5.379-2.665.011-3.961-2.8-3.735-5.84a46.016,46.016,0,0,0-.027-7.962c-.182-1.818,1.375-4.188-1.129-5.4-1.191-.575-2.229.253-3.2,1.164-1.826,1.718-3.668,3.36-2.912,6.2a7.6,7.6,0,0,0,1.151,2.1c1.3,1.959,1.337,4.146,1.24,6.369-.208,4.73-.426,9.875,4.689,12.062" transform="translate(-124.939 -114.174)" fill="#fff"/>
    <path id="Path_1294" data-name="Path 1294" d="M672.4,309.521c2.555-4.138,3.9-9,1.945-14.26-1.764-4.733-4.167-9.271-5.222-14.407-3.951,5.915-3.264,11.694-.127,17.435.744,1.362,2.151,2.771.631,4.257-.559.546-1.942.47-2.9.34-1.908-.258-2.468-1.58-2.727-3.434-.655-4.7-1.689-9.354-2.353-14.057-.229-1.619-.833-3.042-2.27-3.158-2.108-.169-2.217,2.234-2.5,3.447-.435,1.869,1.195,11.63.872,14.346-.311,2.613-2.538,5.253-5.094,5.06-2.215-.167-3.629-2.7-3.422-5.605.26-3.664.042-7.36.071-11.042.012-1.524-.1-3.352-2.127-2.584-3.114,1.183-3.359,15.524-2.684,19.778.508,3.2.877,7.16,4.812,8.262,3.873,1.084,7.491-.266,9.317-3.9,1.622-3.229,1.8-1.45,3.637-.132,3.079,2.206,7.618,3.739,10.14-.346" transform="translate(-232.572 -101.398)" fill="#fff"/>
    <path id="Path_1295" data-name="Path 1295" d="M189.02,334.66c-2.679,5.341-3.11,11.3-5.284,17.837-1.45-6.572-2.983-12.264-7.64-16.531-2.311-2.117-5.286-4.652-7.836-3.042-2.5,1.58-5.2,4.842-4.616,8.4s3.3,5.832,7.154,6c2.072.091,4.1-.11,4.964,2.416,1.581,4.638,4.217,8.931,4.85,13.861.24,1.866.06,4.154,2.161,4.44,2.341.319,1.889-2.537,2.872-3.853a8.272,8.272,0,0,0,1.255-3.277c1.542-6.682,2.173-13.627,5.515-19.819.894-1.656,1.377-3.446,3.657-1.172,1.165,1.162,2.758,4.437,4.55,1.342,1.247-2.151,3.7-4.769,1.005-8.063-4.972-6.077-9.031-5.67-12.608,1.463" transform="translate(-59.052 -118.763)" fill="#fff"/>
    <path id="Path_1296" data-name="Path 1296" d="M551.551,428.519c-4.448,5.776-4.209,12.868-6.171,19.437a16.344,16.344,0,0,1-2.031-4.809c-1.257-4.583-2.983-9.264-7.032-12.112-2.045-1.438-5.117-3.767-7.492-1.492-2.3,2.2-5.026,5.171-3.655,8.942.868,2.388,2.89,5.547,5.489,4.8,5.553-1.589,6.334,2.545,7.454,5.569,1.836,4.959,4.342,9.788,4.3,16.095,4.762-2.192,5.215-5.825,5.984-9.248,1.333-5.933,1.58-12.1,4.654-17.646,1.635-2.953,2.783-4.976,5.125-.888,1.457,2.541,3.409,1.879,4.125.229,1.669-3.844,1.9-7.86-2-10.862-3.7-2.845-6.178-1.356-8.747,1.981" transform="translate(-189.471 -153.452)" fill="#fff"/>
    <path id="Path_1297" data-name="Path 1297" d="M586.413,216.024c6.207-1.314,6.376,3.517,8.006,6.735,1.316,2.6,1.626,5.741,3.112,8.2,1.181,1.957-.682,5.986,2.59,5.784,2.521-.156,2.4-4.226,3.96-6.27.412-.54.069-1.6.249-2.382,1.193-5.171,2.276-10.376,3.712-15.48,1.022-3.632,2.6-6.887,6.71-2.337.758.839,1.725,2.168,2.854.591a8.688,8.688,0,0,0,1.215-8.058,6.894,6.894,0,0,0-5.711-4.8,5.725,5.725,0,0,0-6.088,3.1c-3.2,5.781-3.967,12.32-5.734,19.17-2.911-6.038-4-12.157-8.811-16.142-2.187-1.81-4.867-3.634-7.6-1.849a8.817,8.817,0,0,0-3.948,8.313c.232,3.576,3.709,5.8,5.486,5.42" transform="translate(-209.726 -71.472)" fill="#fff"/>
    <path id="Path_1298" data-name="Path 1298" d="M244.333,245.328c-2.884,3.1-3.847,5.9-4.926,8.622-3.54,8.909-6.547,17.818-3.733,27.691.8,2.806,1.962,3.549,4.567,3.611,6.165.146,9.82-6.034,8.377-15.28-2.728,2.162-3.564,6.738-6.569,5.717-4.125-1.4-2.228-5.927-2.495-9.2-.061-.741.488-1.51.607-2.29.918-5.992,4.341-11.483,4.172-18.872" transform="translate(-84.685 -88.572)" fill="#fff"/>
    <path id="Path_1299" data-name="Path 1299" d="M666.088,344.009c.5-2.689,3.016-5.486.9-8.792-6.383,10.03-9.6,20.641-9.058,32.3.126,2.7.766,5.666,3.453,6.427,2.284.647,5.438,1.372,7.312-1.346,2.683-3.893,4.9-7.994,3.152-14.538a38.958,38.958,0,0,0-2.529,4.28c-.695,1.778-1.452,3.673-3.705,3.162-2.233-.508-2.713-2.76-2.7-4.65.024-2.588-.459-5.16.58-7.817a50.994,50.994,0,0,0,2.588-9.027" transform="translate(-237.515 -121.025)" fill="#fff"/>
    <path id="Path_1300" data-name="Path 1300" d="M530.976,376.071c-27.175.916-54.3-1.287-81.466-1.222-2.149.005-4.3,0-7.09,0a18.452,18.452,0,0,1,5.25-5,389.622,389.622,0,0,1,36.5-18.426c2.6-1.166,3.827-.984,4.756,1.64.525,1.481,1.121,3.71,2.974,3.086,1.408-.475,2.452-2.528,2.244-4.4-.394-3.547,1.119-4.94,4.6-5.669,5.194-1.088,10.249-2.868,15.327-4.469,5.59-1.762,11.591-15.166,8.156-19.9-7.675-10.585-17.762-17.707-31.29-19.464-9.523-1.237-15.782,7.634-16.466,16.021-.56,6.888,2.229,12.623,5.614,17.815-16,6.054-30.36,14.566-43.939,24.708-8.939,6.677-17,13.68-20.611,24.7-1.865,5.694-1.442,6.574,4.691,6.555,17.136-.053,34.187,1.316,51.872,2.638-17.532,8.765-40.293,9.885-43.662,35.241a27.4,27.4,0,0,1-6.905-8.458c-5.973-10.842-7.271-22.933-9.65-34.694-3.882-19.188-6.245-38.72-13.624-57.066-4.139-10.291-8.449-20.488-17.878-29.88-.552,8.917-5.279,15.848-1.679,23.791,7.247,15.993,14.634,32.019,17.88,49.358,1.813,9.687,5.645,19.092-3.364,29.071-16.5,18.274-35.229,32.045-58.98,38.675-16.825,4.7-25.6-1.594-24.449-17.364A21.824,21.824,0,0,1,311,418.182c3.165-9.555,5.376-19.422,12.124-27.56a15.422,15.422,0,0,0,3.319-13.911c-1.411,1.7-2.42,2.527-2.9,3.589-.826,1.822-1.7,4.243-3.81,3.641-2.176-.622-2.988-3.039-2.638-5.556.2-1.406-.33-2.983.1-4.275,1.9-5.742.737-13.022,7.861-16.237,8.271-3.733,16.275-8.357,24.892-10.937,8.546-2.558,13.025-8.069,16.5-15.442.916-1.941,1.992-4,.369-5.439-1.252-1.112-3.238-.109-5.008.715-8.407,3.916-16.961,7.515-25.45,11.255-6.326,2.787-12.669,5.425-19.67,6.121-17.667,1.755-33.245-13.043-39.724-26.035-2.227-4.465-.9-6.831,3.39-9.284,10.9-6.234,23.335-5.845,34.96-8.853,14.908-3.858,25.424-12.674,32.167-26.262.684-1.378,1.207-3.512-.489-4.353a3.565,3.565,0,0,0-4.47.861c-.754.953-1.744,1.716-2.589,2.6-5.583,5.847-12.391,8.662-20.416,10.05-9.525,1.646-19.175,2.686-28.5,5.822-23.637,7.949-29.132,33.172-18.4,52.418,3.737,6.7,9.558,10.786,15.731,15.659-5.621,2.116-19.4,7.969-20.886,7.889-3.082-.167-4.875-3.077-6.976-6.638-3.84-6.507-8.037-13.252-16.788-13.853-11.016-.757-22,10.323-22.5,22.2-.325,7.77-.766,15.715,8.564,18.741,6.9,2.237,14.082,3.092,21.339,1.22,2.3-.594,5.381-1.521,6.735.512,1.45,2.177.205,5.31-1.366,7.356a68.1,68.1,0,0,1-9.652,10.826c-8.85,7.459-17.264,15.49-27.361,21.4-13.013,7.619-25.688,15.776-42.059,12.423-8.422-1.725-15.974-9.332-17.784-17.743-2.067-9.61,1.437-18.421,2.673-27.556.323-2.387,1.643-3.471,4.266-1.707,4.513,3.035,9.969,3.628,15.079,4.977,7.209,1.9,11.313-.78,13.793-7.988a48.075,48.075,0,0,0,.792-28.363c-3.518-13.383-13.637-18.268-24.148-11.294a49.04,49.04,0,0,0-17.215,20.662c-4.458,9.68-9.049,18.68-19.944,23.246-12.113,5.077-25.461,3.324-34.783-5.836-3.938-3.87-6-8.9-9.121-13.271-5.487-7.669-11.57-8.954-19.382-3.9-8.752,5.661-14.112,13.995-18.8,22.891C47.233,403.6,43.8,415.3,36.792,425.228c-3.457,4.9-8.017,6.022-13.451,3.772-6.855-2.838-8.3-9.176-9.821-15.173-2.985-11.8-1.829-23.883-1.19-35.85.167-3.125-.186-7.216,3.144-9.144,11.518-6.664,11.863-17.818,11.724-29.368-1.887,3.141-3.578,6.422-5.7,9.392-3.53,4.927-9.715,4.822-11.381-.414a31.136,31.136,0,0,1-1.136-15.411,234.846,234.846,0,0,1,10.191-37.084c.45-1.236.824-2.62-.295-3.224-1.312-.708-2.339.669-2.852,1.7-2.205,4.422-4.254,8.922-6.354,13.4C2.958,322.108-.8,337.169.144,352.918c.358,6,.143,13.635,8.641,15.9,1.522.406,1.1,2,.685,3.07C5.5,382.131,6.213,392.843,5.988,403.507,5.709,416.7,9.472,428.4,16.8,439.358c5.831,8.714,16.86,8.714,22.845,1.159,6.181-7.8,9.138-17.028,13.1-25.829,4.028-8.956,8.2-17.706,15.825-24.372,7.173-6.275,11.644-5.941,16.88,1.851a46.33,46.33,0,0,1,4.007,6.6c9.051,20.065,34.318,20,46.671,11.469,9.239-6.383,14.859-15.263,19.176-25.247,3.969,2.88,4.194,3.029,3.144,5.891-4.659,12.7-5.842,25.883-4.728,39.167,1.072,12.777,6.678,24.407,21.092,27.766a42.171,42.171,0,0,0,28.813-3.369A162.159,162.159,0,0,0,235.2,433.114c15.213-12.792,28.143-26.737,31.417-47.215.406-2.542,1.742-3.359,3.621-4.182,9.572-4.191,19.109-8.463,28.719-12.566,5.45-2.328,11.017-4.385,16.846-6.689-2.4,10.862-7.437,20.92-.325,31.061.818,1.165-.019,1.766-.553,2.618-9.1,14.529-11.392,30.656-9.941,47.262,1.091,12.495,11.105,18.35,20.782,17.34a73.864,73.864,0,0,0,27.143-7.969A139.069,139.069,0,0,0,382.669,431.9c9.431-8.755,18.274-17.585,21.508-32.468.18,7.915,1.605,13.858,2.684,19.862,3.1,17.242,12.375,29.434,28.471,36.811a100.9,100.9,0,0,0,25.37,7.815c7.595,1.3,9.56.415,10.093-7.155.159-2.242-.2-4.532.081-6.751.35-2.8-.973-3.323-3.357-4.39-8.621-3.855-17.742-6.665-25.739-11.892-2.01-1.314-5.093-2.519-4.516-4.885.432-1.772,3.277-3.367,5.381-4.258,27.442-11.616,55.3-22.048,84.376-28.93,2.6-.617,5.3-1.432,5.51-5.332.139-2.637,1.6-5.238,2.647-7.785,1.749-4.268.87-6.645-4.2-6.473M486.05,320.263c5.836,1.815,11.556,3.572,16.427,7.372-1.734.61-3.445,1.1-5.061,1.8-8.643,3.782-12.116,2.113-14.154-7.046-.511-2.3-.311-3.093,2.789-2.129M237.99,368.709a13.725,13.725,0,0,1-3.7-.983c-1.785-.831-3.493-1.418-3.158-3.671a2.282,2.282,0,0,1,.139-.5,3.19,3.19,0,0,1,1-1.295,9.953,9.953,0,0,1,4.105-1.686c5.935-1.086,8.294,3.307,12.1,8.239a51.246,51.246,0,0,1-10.491-.107M168.943,366.5a13.694,13.694,0,0,1,3.308-1.344,7.724,7.724,0,0,1,6.156.85,13.145,13.145,0,0,1,6.654,9.809c-.373.639-1.1,1.976-2.69,1.282-4.664-2.031-9.326-4.1-13.814-6.489-2.327-1.237-1.627-2.991.386-4.109" transform="translate(0 -97.094)" fill="#fff"/>
    <path id="Path_1301" data-name="Path 1301" d="M752.92,230.921c-12.168,12.039-28.169,18.088-41.91,28.192,2.341,1.368,3.861.928,5.677.3,14.4-4.946,27.975-11.222,38.545-22.66,1.349-1.46,2.9-3.734,5-2.026,2.314,1.886,3.289,2.6,5.179-.588,1.81-3.053,2.7-6.1-.192-7.976-3.426-2.215-3.172-2.448-2.171-4.585,1.165-2.483,1.429-7.464,1.258-9.759-.359-4.785-3.846-6.572-8.222-4.589-12.063,5.466-13.25,14.436-3.166,23.688m2.6-15.037c3.287.747,2.864,3.185,2.534,5.7-2.413-.748-4.919-1.471-5.4-4.248-.131-.75,1.5-1.76,2.87-1.449" transform="translate(-256.699 -74.531)" fill="#fff"/>
    <path id="Path_1302" data-name="Path 1302" d="M39.785,214.463c2.9-1.137,2.691.872,3.084,1.766,1.5,3.417,3.246,6.724,4.66,10.2a10.265,10.265,0,0,1-.339,9.665,37.238,37.238,0,0,0-3.087,11.48c.692-.192,2.926-4.131,4.686-4.712a5.67,5.67,0,0,1,4.516,2.183c-.469.215-7.483,2.048-9.6,5.4a62.1,62.1,0,0,1-1.5,8.044,5.289,5.289,0,0,0,.233,2.383c3.155,14.053,6.733,28.04,5.928,42.653-.063,1.151-.888,3.006,1.4,3.325.327-.273.832-.48.9-.784,2.933-13.262,1.475-26.417-1.621-39.377-2.631-11.012-2.891-10.728,8.534-14.324,1.843-.58,4.474.365,6.025-2.755,3.105-6.243,2.475-9.483-4.086-14-1.939-1.335-7.373-2.752-6.769-5.233,1.724-7.077,4.891-14.014,6.925-21.009.587-2.018,2.478-4.5,5.064-1.019,1.09,1.466,2.947,2.691,4.389.463a8,8,0,0,0,.55-7.938c-1.191-2.873-3.373-4.354-5.808-4.358-2.344,0-4.542,1.175-5.978,4.032-2.806,5.587-4.11,11.442-5.684,17.609-2.02-5.877-3.914-11.583-9.019-15.267-2.138-1.543-4.356-4.489-7.252-2.015-2.376,2.03-4.973,4.724-3.666,8.339,1.2,3.319,3.675,6.764,7.519,5.254" transform="translate(-11.522 -70.947)" fill="#fff"/>
  </g>
</svg>
