<svg xmlns="http://www.w3.org/2000/svg" xmlns:xlink="http://www.w3.org/1999/xlink" id="Footer"
  width="53" height="53" viewBox="0 0 53 53" style="&#10;">
  <g xmlns="http://www.w3.org/2000/svg" id="Group_64" data-name="Group 64">
    <g id="Group_63" data-name="Group 63" clip-path="url(#clip-path-3)">
      <path id="Path_257" data-name="Path 257"
        d="M52.854,23.086a1.646,1.646,0,0,0-.619-1.38c-2.183-1.866-4.343-3.757-6.522-5.626a.817.817,0,0,1-.323-.7c.012-2.391.008-4.782.006-7.173A2.152,2.152,0,0,0,43.02,5.858q-4.335,0-8.669.005a1.015,1.015,0,0,1-.731-.277q-2.754-2.414-5.53-4.8a2.158,2.158,0,0,0-3.326,0c-1.847,1.6-3.7,3.191-5.53,4.8a1.075,1.075,0,0,1-.783.278q-4.309-.012-8.618,0a2.158,2.158,0,0,0-2.384,2.4q0,3.561,0,7.122a.771.771,0,0,1-.27.67C5.8,17.226,4.408,18.409,3.046,19.619A35.192,35.192,0,0,0,0,22.361V50.745a2.4,2.4,0,0,0,2.564,1.613c6.244-.028,12.488-.012,18.732-.015a3.948,3.948,0,0,0,.718-.049.971.971,0,0,0,.8-.937c.032-.708-.435-1.122-1.28-1.122q-8.411,0-16.823,0H4.107c.105-.111.136-.15.172-.181Q12.2,43.248,20.115,36.434a.414.414,0,0,1,.6-.024c1.441.931,2.9,1.834,4.328,2.783a2.282,2.282,0,0,0,2.768-.008c1.459-.964,2.949-1.881,4.412-2.838a.589.589,0,0,1,.86.044q6.064,5.249,12.161,10.461c1.282,1.1,2.564,2.2,3.934,3.383h-17.7a4.144,4.144,0,0,0-.516.01,1.035,1.035,0,0,0-.935,1.145c.042.619.5.953,1.342.953q9.573,0,19.145,0a2.092,2.092,0,0,0,2.326-2.32q0-13.469.009-26.938m-7.427-4.491,4.545,3.937-4.545,2.906ZM25.769,2.687c.653-.562.662-.561,1.308,0,1.19,1.027,2.376,2.059,3.627,3.145h-8.56c1.25-1.084,2.434-2.116,3.625-3.141M7.423,18.595v6.84l-4.545-2.9,4.545-3.938M18.169,35.37Q10.274,42.128,2.4,48.91c-.085.073-.147.193-.31.185V24.584c.171-.017.29.118.423.2q7.807,4.982,15.615,9.963c.358.228.374.334.041.62m8.637,1.975a.594.594,0,0,1-.768-.007q-8.05-5.165-16.119-10.3a.671.671,0,0,1-.352-.657q.013-8.952,0-17.9c0-.4.087-.511.5-.51q8.178.023,16.356.01c5.435,0,10.869.006,16.3-.011.45,0,.562.1.561.556q-.026,8.9,0,17.8a.8.8,0,0,1-.433.774Q34.818,32.2,26.806,37.344m23.952,11.48L34.528,34.888,50.758,24.517Z"
        transform="translate(0 0)" fill="#fff" />
      <path id="Path_258" data-name="Path 258"
        d="M185.165,364.06a1.01,1.01,0,0,0-1.021,1.043,1.032,1.032,0,1,0,2.063-.021,1.011,1.011,0,0,0-1.043-1.022"
        transform="translate(-158.753 -313.86)" fill="#fff" />
      <path id="Path_259" data-name="Path 259"
        d="M107.953,78.456c-.08-.508-.136-1.02-.232-1.525a2.086,2.086,0,0,0-3.429-1.319c-2.1,1.553-4.187,3.119-6.279,4.68a1.822,1.822,0,0,1-.809.422q-3.406.52-6.81,1.053a2.052,2.052,0,0,0-1.73,1.355.506.506,0,0,1-.49.409c-.613.058-1.22.183-1.827.29a2.09,2.09,0,0,0-1.685,2.343q.149.939.294,1.88a2.072,2.072,0,0,0,2.511,1.869c.6-.078,1.193-.143,1.783-.248a.364.364,0,0,1,.421.169A2.1,2.1,0,0,0,91.6,90.7c.212-.016.249.027.277.215q.184,1.22.4,2.436a3.114,3.114,0,0,0,6.129-1.1c-.1-.591-.179-1.187-.269-1.78-.122-.8.075-1,.9-.888a2.319,2.319,0,0,1,.344.1c2.551.777,5.1,1.562,7.653,2.326a2.084,2.084,0,0,0,2.712-2.173c-.079-.522-.178-1.2-.285-1.878q-.748-4.749-1.5-9.5M88.788,87.626c-.455.075-.911.14-1.366.217-.269.045-.4-.021-.429-.33-.038-.458-.134-.912-.214-1.423-.062-.188.1-.242.28-.272.489-.081.978-.155,1.466-.239.174-.03.239.028.265.2.078.523.172,1.044.268,1.565.043.232-.118.253-.271.278m6.681,6.133a.982.982,0,0,1-1.147-.907c-.129-.743-.237-1.49-.375-2.231-.041-.22-.008-.3.228-.326.51-.064,1.016-.158,1.521-.255.178-.034.255.017.28.19.116.8.237,1.594.343,2.3.045.723-.28,1.153-.85,1.224m2.007-6.1c-1.879.282-3.754.592-5.629.9-.317.052-.5.046-.555-.383-.176-1.357-.414-2.707-.645-4.056-.044-.255.059-.272.261-.3q2.866-.444,5.729-.914c.329-.054.462,0,.513.386.175,1.323.411,2.638.64,4.05.084.19,0,.275-.313.322m6.507,1.23c-1.224-.377-2.445-.765-3.674-1.122a.491.491,0,0,1-.417-.481c-.238-1.628-.5-3.252-.767-4.875-.03-.184-.046-.314.128-.442q3.15-2.322,6.291-4.655c.012-.009.033-.006.106-.017l2.005,12.72-3.671-1.13"
        transform="translate(-72.967 -64.761)" fill="#fff" />
      <path id="Path_260" data-name="Path 260"
        d="M280.093,150.809a9.607,9.607,0,0,0-1.116-.365,1.023,1.023,0,0,0-1.285,1.007,1,1,0,0,0,.686.98c.332.132.676.234,1.019.333a1.038,1.038,0,0,0,.7-1.956"
        transform="translate(-239.401 -129.669)" fill="#fff" />
      <path id="Path_261" data-name="Path 261"
        d="M270.491,93.687a3.49,3.49,0,0,0,1.269-1.1,1.024,1.024,0,0,0-.882-1.57,2.6,2.6,0,0,0-1.82,1.615,1.029,1.029,0,0,0,1.433,1.059"
        transform="translate(-231.952 -78.463)" fill="#fff" />
      <path id="Path_262" data-name="Path 262"
        d="M276.113,122.318a4.873,4.873,0,0,0,1.442-.31.992.992,0,0,0,.586-1.13,1.024,1.024,0,0,0-1.04-.845,5.724,5.724,0,0,0-1.418.293,1.04,1.04,0,0,0,.431,1.992"
        transform="translate(-237.129 -103.482)" fill="#fff" />
    </g>
  </g>
</svg>