<svg xmlns="http://www.w3.org/2000/svg" xmlns:xlink="http://www.w3.org/1999/xlink"
  id="Component_12_5" data-name="Component 12 – 5" height="55" viewBox="0 0 60 55" width="60">
  <g id="Group_35" data-name="Group 35">
    <g id="Group_34" data-name="Group 34" clip-path="url(#clip-path)">
      <path id="Path_196" data-name="Path 196"
        d="M55.725,11.43a2.675,2.675,0,0,0-2.863-2.708c-2.282,0-4.565-.011-6.847.009-.4,0-.513-.082-.51-.47.021-2.4.012-4.791.01-7.187,0-.77-.3-1.067-1.1-1.069q-4-.007-8.007,0C35.6,0,35.3.3,35.3,1.059c0,1.27-.009,2.541.005,3.811,0,.272-.053.376-.375.373q-2.872-.022-5.744,0c-.3,0-.41-.061-.39-.357.028-.4.009-.8.007-1.2,0-.78-.311-1.064-1.161-1.065-1.857,0-3.713,0-5.57,0-.52,0-1.215.173-1.512-.073-.344-.284-.094-.952-.107-1.452C20.43.292,20.154,0,19.315,0Q15.341,0,11.366,0c-.838,0-1.131.289-1.131,1.092,0,2.377-.012,4.755.011,7.133,0,.4-.094.508-.532.5-2.321-.023-4.642-.017-6.963-.009a2.674,2.674,0,0,0-2.727,2.56q-.009.871,0,1.742a.84.84,0,0,0,.939.928A.839.839,0,0,0,1.877,13c.005-.472,0-.944,0-1.416.006-.809.331-1.12,1.187-1.122q2.9-.005,5.8,0c1.389,0,1.374,0,1.375,1.334,0,.337-.089.422-.447.417-1.624-.02-3.249-.009-4.874-.008-.9,0-1.188.267-1.188,1.089q0,11.978,0,23.957c0,.8.3,1.089,1.133,1.089H50.881c.812,0,1.13-.291,1.13-1.038q0-12.033,0-24.066c0-.746-.316-1.03-1.134-1.031q-2,0-4,0c-1.37,0-1.35,0-1.369-1.29-.006-.4.133-.465.52-.461,2.147.018,4.294.008,6.44.009,1.139,0,1.4.245,1.4,1.3q0,15.245,0,30.491c0,1.059-.269,1.312-1.4,1.312H3.268c-1.125,0-1.389-.251-1.389-1.318q0-10.481,0-20.963a4.3,4.3,0,0,0-.005-.49.8.8,0,0,0-.826-.755c-.69-.053-1.025.3-1.025,1.06C.022,28.235.05,35.368,0,42.5a2.918,2.918,0,0,0,3.013,2.83c6.15-.051,12.3-.02,18.451-.02h.7a11.545,11.545,0,0,1-2.526,4.633,1.393,1.393,0,0,1-1.349.606,11.4,11.4,0,0,0-1.623-.007.842.842,0,0,0-.865.895c.017.558.4.842,1.163.842H36.754c.754,0,1.509.011,2.263,0a.87.87,0,1,0-.011-1.735,14.416,14.416,0,0,0-1.623.008,1.273,1.273,0,0,1-1.209-.535,11.652,11.652,0,0,1-2.632-4.7h.606q9.313,0,18.625,0a2.686,2.686,0,0,0,2.952-2.736q0-15.572,0-31.144M42.263,24.4c-1.547,0-3.094-.012-4.64.009-.378.005-.478-.089-.475-.445.009-1.306-.007-1.307,1.4-1.307h1.914c.928,0,1.857.013,2.784-.007.328-.007.413.081.416.388.016,1.361.028,1.361-1.4,1.361m1.4,4.845c.007.307-.085.392-.414.39q-2.842-.022-5.685,0c-.326,0-.424-.078-.416-.388q.033-1.36,0-2.721c-.007-.307.085-.4.414-.39.966.021,1.933.007,2.9.007.928,0,1.857.013,2.784-.007.326-.007.424.078.416.388q-.033,1.36,0,2.721M37.681,1.74c1.837.026,3.674.022,5.511,0,.38,0,.474.092.473.445q-.018,9.147,0,18.293c0,.355-.1.449-.474.445q-2.784-.029-5.569,0c-.38,0-.475-.092-.473-.446.015-3.067.009-6.134.009-9.2,0-3.012.01-6.025-.011-9.038,0-.407.1-.508.534-.5M28.8,7.372c-.006-.291.054-.4.4-.4,1.894.017,3.787.014,5.681,0,.31,0,.437.051.429.378-.025.906-.031,1.814,0,2.719.013.367-.14.406-.466.4-.946-.018-1.894-.006-2.841-.006-.928,0-1.855-.011-2.783.006-.312.006-.435-.054-.426-.378.025-.906.02-1.813,0-2.72m1.4,4.834c1.563,0,3.125.008,4.688-.006.314,0,.421.061.426.38.019,1.362.032,1.362-1.4,1.362H32.052c-.945,0-1.891-.012-2.836.007-.32.006-.418-.072-.423-.385-.022-1.357-.035-1.357,1.4-1.357m5.113,16.983c0,.35-.087.453-.471.449q-2.784-.03-5.568,0c-.379,0-.477-.09-.474-.445.018-2.2.009-4.39.009-6.585,0-2.159.009-4.318-.009-6.477,0-.347.082-.454.469-.45q2.784.031,5.568,0c.377,0,.477.087.476.445q-.021,6.531,0,13.062M20.968,4.354c1.837.026,3.674.022,5.511,0,.38,0,.474.093.473.446q-.019,7.839,0,15.677c0,.354-.094.45-.474.446q-2.784-.029-5.569,0c-.382,0-.474-.094-.472-.446.016-2.631.009-5.262.009-7.893,0-2.576.011-5.153-.011-7.73,0-.4.1-.509.533-.5m.9,18.306c1.546,0,3.092.012,4.638-.009.36,0,.446.084.445.419,0,1.332.013,1.332-1.376,1.332H23.664c-.947,0-1.894-.012-2.841.007-.307.006-.378-.082-.384-.363-.031-1.387-.041-1.387,1.431-1.387m-1.431,3.866c-.007-.309.088-.4.415-.388.947.02,1.894.007,2.841.007s1.895.013,2.841-.007c.329-.007.422.083.415.39q-.032,1.36,0,2.72c.007.31-.091.391-.416.388q-2.841-.021-5.683,0c-.329,0-.42-.084-.413-.39q.032-1.36,0-2.721M12.086,2.108c-.006-.283.077-.366.383-.363q2.87.02,5.741,0c.3,0,.393.07.387.359q-.03,1.387,0,2.775c.005.281-.073.37-.382.364-.966-.019-1.933-.007-2.9-.007-.947,0-1.895-.011-2.841.006-.3.005-.395-.069-.388-.359q.03-1.387,0-2.775m1.4,4.87H15.34c.947,0,1.894.013,2.841-.007.325-.007.414.077.418.387.017,1.363.029,1.363-1.4,1.363-1.546,0-3.092-.011-4.638.008-.373,0-.481-.082-.478-.443.009-1.308-.007-1.308,1.4-1.308m-.868,3.474c1.837.025,3.674.022,5.511,0,.384,0,.471.1.471.448q-.017,9.145,0,18.291c0,.354-.094.449-.473.445q-2.784-.029-5.569,0c-.383,0-.474-.1-.472-.448.015-3.067.009-6.133.009-9.2,0-3.012.01-6.024-.011-9.036,0-.408.1-.508.535-.5M10.583,31.371q17.609,0,35.218-.011c.521,0,.673.111.655.61-.043,1.143-.013,1.144-1.233,1.144H27.875q-8.993,0-17.986.011c-.479,0-.61-.1-.6-.555.038-1.2.011-1.2,1.29-1.2M46.1,13.936c1.2.036,2.4.02,3.6.006.317,0,.47.02.469.394q-.021,10.943,0,21.886c0,.468-.266.377-.541.377H27.87q-10.849,0-21.7.012c-.485,0-.592-.109-.591-.558q.026-10.78,0-21.559c0-.453.111-.571.594-.557,1.217.037,2.437.023,3.654,0,.331-.005.413.086.413.391q-.015,7.459,0,14.917c0,.309-.088.406-.416.387-.443-.026-.889-.01-1.334-.006-.706.006-1.038.3-1.043.95q-.013,1.66,0,3.321c0,.647.34.952,1.042.954,1.7,0,3.4,0,5.106,0H47.014c1.035,0,1.284-.238,1.285-1.22,0-1.016.005-2.033,0-3.049,0-.649-.337-.937-1.036-.961-.572-.02-1.357.238-1.656-.105s-.086-1.038-.087-1.579c0-4.482.007-8.965-.014-13.447,0-.454.113-.572.6-.558M34.184,50.516H21.649c-.063-.163.1-.243.184-.35a10.726,10.726,0,0,0,2.209-4.543c.046-.253.164-.319.422-.318q3.421.012,6.843,0c.221,0,.354.037.4.277a11.343,11.343,0,0,0,2.479,4.931"
        fill="#050607" transform="translate(0 0)" />
      <path id="Path_197" data-name="Path 197"
        d="M164.567,277.24c.638,0,1.277.012,1.914,0a.869.869,0,1,0-.024-1.734c-1.218-.01-2.436-.008-3.654,0a.862.862,0,0,0-.972.85c-.008.536.369.878,1,.887.58.009,1.16,0,1.74,0"
        transform="translate(-136.741 -235.415)" fill="#050607" />
      <path id="Path_198" data-name="Path 198"
        d="M1.259,110.413c.612-.09.774-.464.734-1.7a.863.863,0,0,0-.835-.917l-.058,0c-.689-.019-.964.348-.964,1.285,0,.144,0,.288,0,.433a.884.884,0,0,0,1.122.9"
        transform="translate(-0.115 -92.112)" fill="#050607" />
    </g>
  </g>
</svg>