<svg xmlns="http://www.w3.org/2000/svg" xmlns:xlink="http://www.w3.org/1999/xlink" id="Footer"
  width="398" height="73" viewBox="0 0 398 73" style="&#10;">
  <defs>
    <clipPath id="clip-path">
      <rect id="Rectangle_4" data-name="Rectangle 4" width="20" height="20"
        transform="translate(0 -0.2)" fill="#fff" />
    </clipPath>
    <clipPath id="clip-path-2">
      <rect id="Rectangle_182" data-name="Rectangle 182" width="398" height="72.222" fill="#fff" />
    </clipPath>
    <clipPath id="clip-path-3">
      <rect id="Rectangle_52" data-name="Rectangle 52" width="52.854" height="52.359" fill="#fff" />
    </clipPath>
  </defs>
  <g id="Group_281" data-name="Group 281" clip-path="url(#clip-path-2)">
    <path id="Path_1371" data-name="Path 1371"
      d="M1084.254,77.108c-.149,0-.447.447-.819,1.3a7.832,7.832,0,0,0-.633,1.712c-.037.26.335,4.206,1.079,11.8.819,7.854,1.191,12.358,1.191,13.549a4.831,4.831,0,0,0,1.265-2.271,8.216,8.216,0,0,0,.149-1.787q0-5.025-2.158-24.12c0-.112-.037-.186-.075-.186"
      transform="translate(-767.457 -54.652)" fill="#fff" />
    <path id="Path_1372" data-name="Path 1372"
      d="M924.286,70.518c1.229-2.01,1.75-3.164,1.675-3.387a2.052,2.052,0,0,0-.93-.372,2.6,2.6,0,0,1-1.452-1.079,7.8,7.8,0,0,1-.261-2.122,5.133,5.133,0,0,0-.186-1.786,10.774,10.774,0,0,0-1.3,2.643,10.794,10.794,0,0,0-.893,2.717,3.791,3.791,0,0,0,.558,1.34,5.109,5.109,0,0,1,.6,1.228c.3,1.414.633,4.392,1.08,8.933.186,1.9.409,4.02.6,6.365a31.6,31.6,0,0,1,.335,3.908c-.223.484-.93.856-2.121,1.154a13.077,13.077,0,0,1-2.643.3h-.3c-1.712,0-2.68-.558-2.866-1.675a9.336,9.336,0,0,0,.633-2.308c0-.335-.112-.484-.335-.484s-.521.409-.819,1.228a9.993,9.993,0,0,1-1.154,2.308,2.966,2.966,0,0,1-2.457,1.228h-.707a2.244,2.244,0,0,1-1.117-.261,8.432,8.432,0,0,0,.447-1.191,5.457,5.457,0,0,0,.3-1.563c0-.3-.074-.447-.261-.447-.223,0-.484.261-.744.782a11.405,11.405,0,0,1-.93,1.6,2.841,2.841,0,0,1-1.638,1.228,7.38,7.38,0,0,1-2.307.3c-1.191,0-1.9-.112-2.159-.372a7.456,7.456,0,0,0,.558-2.531c0-.26-.075-.409-.186-.446-.149-.037-.409.3-.819,1a4.181,4.181,0,0,1-1.861,1.9,4.861,4.861,0,0,1-2.159.446h-1.079a3.247,3.247,0,0,1-1.935-.782,5.527,5.527,0,0,1-1.526-1.861,16.661,16.661,0,0,1-1.191-5.4,19.556,19.556,0,0,0-.446-3.35q-.112.168-.67,1.228a10.743,10.743,0,0,0-.67,1.6,20.888,20.888,0,0,0,.26,2.829c.224,1.6.335,2.605.335,2.978a2.419,2.419,0,0,1-1.377,2.085,3.555,3.555,0,0,1-1.824.67h-.261a4.174,4.174,0,0,1-2.9-1,2.624,2.624,0,0,1-1.005-2.085,3.263,3.263,0,0,1,.41-1.563c.819-.149,1.414-.3,1.861-.409a.542.542,0,0,0,.335-.223,6.647,6.647,0,0,0,1.34-2.531.208.208,0,0,0-.037-.223.537.537,0,0,0-.335-.074c-3.908.186-6.923.223-9.045.149a20.766,20.766,0,0,1-2.159-.261,22.428,22.428,0,0,0-2.308-.186,5.534,5.534,0,0,0-2.792.67A7.331,7.331,0,0,0,869.123,86a6.883,6.883,0,0,0-1.228,2.754.176.176,0,0,0,.186.186q.223,0,1.005-.893a8.945,8.945,0,0,1,1.675-1.6,4.959,4.959,0,0,1,2.68-.558,16.562,16.562,0,0,1,3.425.372,11.034,11.034,0,0,0-3.425,2.494,19.033,19.033,0,0,0-4.057,6.1,25.374,25.374,0,0,0-1.935,10.162c0,4.28,1.415,7.3,4.318,9.045,2.122,1.3,5.174,1.935,9.119,1.935a44.306,44.306,0,0,0,9.975-1.266,29.228,29.228,0,0,0,5.434-1.638q.782-.391.781-.559,0-.223-1.116-.223c-.3,0-1.75.112-4.355.372s-4.876.409-6.886.409a39.2,39.2,0,0,1-7.556-.707c-5.137-1.117-7.742-4.318-7.742-9.678a20.019,20.019,0,0,1,1.675-7.854c1.3-2.978,2.978-4.988,5.025-5.955A25.679,25.679,0,0,1,881,87.156c.744-.186,1.489-.335,2.271-.484a13.552,13.552,0,0,0-.447,3.313,4.277,4.277,0,0,0,.707,2.68,5.526,5.526,0,0,0,4.541,1.787h.372c1.638,0,2.866-1.377,3.722-4.094a5.711,5.711,0,0,0,1.973,2.829,5.194,5.194,0,0,0,3.313,1.265h.224a5.453,5.453,0,0,0,3.423-1.079,6.891,6.891,0,0,0,1.787.93,8.277,8.277,0,0,0,1.675.149,5.537,5.537,0,0,0,3.946-1.3,4.438,4.438,0,0,0,2.717.819,3.787,3.787,0,0,0,3.5-2.494c.745,1.489,2.159,2.2,4.318,2.2h.149v.037h.149a5.677,5.677,0,0,0,3.685-.968,6.723,6.723,0,0,0,1.749-2.456,7.605,7.605,0,0,0,.819-3.313c0-.707-.223-3.313-.6-7.854-.446-4.988-.67-7.854-.707-8.6"
      transform="translate(-614.822 -43.782)" fill="#fff" />
    <path id="Path_1373" data-name="Path 1373"
      d="M997.9,123.406a5.93,5.93,0,0,0,1.116-1.563c1.749,1.266,2.643,1.9,2.717,1.9.149,0,.559-.372,1.191-1.079.707-.782,1.042-1.34,1.042-1.675,0-.186-.409-.558-1.228-1.191a4.718,4.718,0,0,0-1.526-.893,19.866,19.866,0,0,0-2.122,2.717c0-.037.037-.075.037-.112,0-.186-.41-.559-1.266-1.154a4.448,4.448,0,0,0-1.489-.931,11.314,11.314,0,0,0-1.08,1.34c-.633.819-1.042,1.34-1.191,1.563,1.787,1.3,2.717,1.973,2.754,1.973.149,0,.484-.3,1.042-.893"
      transform="translate(-704.595 -84.274)" fill="#fff" />
    <path id="Path_1374" data-name="Path 1374"
      d="M1004.064,106.249c-.186,0-.893.93-2.159,2.754,1.712,1.228,2.568,1.861,2.606,1.861.149,0,.558-.335,1.154-1.042.67-.744,1.005-1.266,1.005-1.6,0-.149-.409-.521-1.191-1.117a5.255,5.255,0,0,0-1.414-.856"
      transform="translate(-710.122 -75.306)" fill="#fff" />
    <path id="Path_1375" data-name="Path 1375"
      d="M919.648,189.116a4.445,4.445,0,0,0-1.489-.93,11.333,11.333,0,0,0-1.079,1.34c-.633.819-1.042,1.34-1.191,1.563,1.787,1.3,2.717,1.973,2.755,1.973.149,0,.484-.3,1.042-.894A5.919,5.919,0,0,0,920.8,190.6c1.749,1.266,2.643,1.9,2.717,1.9.149,0,.558-.372,1.191-1.08.708-.782,1.042-1.34,1.042-1.675,0-.186-.409-.558-1.228-1.191a4.723,4.723,0,0,0-1.526-.893,19.832,19.832,0,0,0-2.122,2.717c0-.037.037-.075.037-.112,0-.186-.41-.558-1.266-1.154"
      transform="translate(-649.155 -133.011)" fill="#fff" />
    <path id="Path_1376" data-name="Path 1376"
      d="M898.4,97.7c.67-.782,1.042-1.3,1.042-1.638,0-.186-.409-.6-1.266-1.191a4.741,4.741,0,0,0-1.489-.893,12.623,12.623,0,0,0-1.08,1.3c-.633.819-1.042,1.34-1.191,1.6,1.787,1.3,2.717,1.935,2.755,1.935q.279,0,1.228-1.117"
      transform="translate(-633.936 -66.61)" fill="#fff" />
    <path id="Path_1377" data-name="Path 1377"
      d="M926.581,69.363a7.479,7.479,0,0,0-.372,1.08,9.3,9.3,0,0,0-.223,1q4.746-2.9,14.926-8.151c3.089-1.6,6.477-3.275,10.124-4.988,2.755-1.3,4.318-2.047,4.727-2.2q.335-1.787.335-2.01c-.111,0-1.824.782-5.211,2.382-4.02,1.9-7.7,3.722-11.018,5.434q-4.634,2.345-9.045,4.913a39.106,39.106,0,0,0-4.243,2.531"
      transform="translate(-656.312 -38.346)" fill="#fff" />
    <path id="Path_1378" data-name="Path 1378"
      d="M922.48,66.91c.112,0,.261-.112.447-.3a3.346,3.346,0,0,1,1.9-1.08,6.309,6.309,0,0,1,1.414.223c.6.149.893.261.893.372a6.1,6.1,0,0,1-1.489,1.117l-1.34.782c-.409.3-.6.521-.633.67.037.112.112.149.261.149a2.346,2.346,0,0,0,.744-.149c2.2-.893,3.61-1.824,4.206-2.792a2.275,2.275,0,0,0,.3-1.117.539.539,0,0,0-.3-.558,12.787,12.787,0,0,0-3.387-.67,2.862,2.862,0,0,0-1.191.782,11.566,11.566,0,0,0-1.713,2.01.713.713,0,0,0-.186.447c0,.074,0,.112.074.112"
      transform="translate(-653.775 -45.05)" fill="#fff" />
    <path id="Path_1379" data-name="Path 1379"
      d="M992.834,79.767c0-.112,0-.149-.037-.149-.149,0-.335.3-.633.856a4.056,4.056,0,0,0-.484,1.563,2.167,2.167,0,0,0,.41,1.377,1.028,1.028,0,0,0,.67.372,2.456,2.456,0,0,0,1.489-.484c.3-.186.558-.409.819-.6a2.4,2.4,0,0,0,.744.112,2.99,2.99,0,0,0,2.122-1,4.467,4.467,0,0,0,.893-1.526,4.641,4.641,0,0,0,.26-1.489,3.53,3.53,0,0,0-.149-1.042c-.112-.335-.223-.521-.372-.521-.112.186-.372.67-.782,1.415a2.538,2.538,0,0,1,.447,1.414,2.375,2.375,0,0,1-2.01.931c-.149,0-.223-.112-.26-.409V79.469c0-.6-.112-.893-.3-.893-.112,0-.26.3-.372.93a5.228,5.228,0,0,1-.521,1.638,1.543,1.543,0,0,1-1.452.782c-.409,0-.632-.261-.632-.856,0-.186.037-.409.074-.744a2.57,2.57,0,0,0,.075-.558"
      transform="translate(-702.875 -54.743)" fill="#fff" />
    <path id="Path_1380" data-name="Path 1380"
      d="M1177.6,92.067a17.268,17.268,0,0,0-1.75-3.015c-1.154-1.712-2.084-2.568-2.829-2.568-.372,0-.819.335-1.415.968a14.845,14.845,0,0,0-1.34,1.936,8.781,8.781,0,0,0-1.228,3.871,2.892,2.892,0,0,0,.112.819,3.747,3.747,0,0,0,1.191,2.047,2.944,2.944,0,0,0,2.084.968,4.134,4.134,0,0,0,3.648-2.047,3.617,3.617,0,0,1,.633,1.005,3.927,3.927,0,0,1,.373,1.3c0,.112-.037.186-.037.26-.372,1.117-1.749,1.9-4.094,2.382a23.373,23.373,0,0,1-4.988.484H1165.5a6.01,6.01,0,0,0,2.2-4.169,2.416,2.416,0,0,0-.67-1.787,6.467,6.467,0,0,0-2.382-1.34,5.671,5.671,0,0,0-1.9-.335,9.222,9.222,0,0,0-5.36,2.2,53.308,53.308,0,0,0-5.546,5.137,13.692,13.692,0,0,1-3.053-1.3,5.287,5.287,0,0,0-1.451-.707,2.254,2.254,0,0,0-1.3.6,6.957,6.957,0,0,1-1.563,1.117,7.47,7.47,0,0,1-3.276.6h-.41a7.61,7.61,0,0,1-3.35-.707A9.858,9.858,0,0,1,1135.5,98.4c-.521-.484-.819-.744-.931-.744-.149,0-.447.261-.968.744a7.743,7.743,0,0,1-1.861,1.377,8.455,8.455,0,0,1-3.685.707h-.186a3.109,3.109,0,0,1-3.35-2.308c-.744-2.42-1.489-7.221-2.308-14.331-.707-6.291-1.154-9.417-1.34-9.417s-.633.782-1.34,2.308c0,.819.484,4.95,1.414,12.432,1.005,7.854,1.526,12.246,1.6,13.1a2.108,2.108,0,0,1-.744,2.084,1.751,1.751,0,0,1-1.08.3,3.367,3.367,0,0,1-2.234-1.005,8.042,8.042,0,0,1-2.121-3.387,39.015,39.015,0,0,1-1.452-5.4c-.3-1.3-.558-2.643-.819-3.946-.447-1.9-.819-2.829-1.117-2.829a19.412,19.412,0,0,0-.893,3.2c.3,1.154.521,2.084.633,2.829-4.169,1.824-6.774,3.2-7.78,4.057a12.046,12.046,0,0,0-2.531,2.791,5.315,5.315,0,0,0-1.117,2.792c0,.484.6.819,1.787,1.08a17.412,17.412,0,0,0,3.722.335,10.27,10.27,0,0,0,3.833-.447,11.232,11.232,0,0,0,2.233-1.973,20.29,20.29,0,0,0,1.377-1.526,12.664,12.664,0,0,0,2.457,4.8,5.268,5.268,0,0,0,4.02,1.936V108a1.728,1.728,0,0,0,1.6-.893,9.432,9.432,0,0,0,.893-2.568,12.208,12.208,0,0,0,.41-2.941c.782,1.489,2.161,2.231,4.245,2.231h.109v0h.075a6.766,6.766,0,0,0,3.945-1.3,6.674,6.674,0,0,0,1.712-1.675c.224.26.484.558.707.819a6.88,6.88,0,0,0,2.085,1.415,9.155,9.155,0,0,0,3.759.744h.744a7.213,7.213,0,0,0,5.658-2.308,4.581,4.581,0,0,1,1.079.521,9.537,9.537,0,0,0,2.419,1.117c-.41.968-.67,1.638-.782,1.973a3.152,3.152,0,0,0-.149.893c0,.223.037.335.149.335.186,0,.41-.3.707-.856.558-1.042.931-1.712,1.117-1.973a15.246,15.246,0,0,0,3.611.3h13.065c4.132,0,7.072-1.042,8.859-3.127a11.758,11.758,0,0,0,1.117-2.233,8.249,8.249,0,0,0,.707-2.606,10.412,10.412,0,0,0-.968-3.8m-4.5,1.675a2.668,2.668,0,0,1-1.9-.893c-.484-.447-.745-.819-.745-1.08a2.5,2.5,0,0,1,.67-1.228c.484-.558.856-.819,1.117-.819.3,0,.819.484,1.563,1.414a10.668,10.668,0,0,1,1.154,1.749,2.69,2.69,0,0,1-1.861.856m-62.2,8.3a16.87,16.87,0,0,1-2.642.149,31.551,31.551,0,0,1-3.387-.149c-1.08-.112-1.6-.261-1.6-.409,0-.744,1.526-1.749,4.578-3.089a24.423,24.423,0,0,1,5.323-1.9l.931,3.871a8.556,8.556,0,0,1-3.2,1.526m54.121-3.573a10.709,10.709,0,0,1-4.467,1.563,33.235,33.235,0,0,1-5.918.6c-.633,0-1.191-.037-1.675-.075a39.688,39.688,0,0,1,4.43-3.61,6.725,6.725,0,0,1,3.834-1.154,7.067,7.067,0,0,1,2.717.484c1.228.521,1.861.968,1.861,1.3q0,.335-.781.893"
      transform="translate(-780.563 -52.75)" fill="#fff" />
    <path id="Path_1381" data-name="Path 1381"
      d="M1341.289,90.145a12.671,12.671,0,0,0-1.08,1.3c-.632.819-1.042,1.34-1.191,1.6,1.787,1.3,2.717,1.936,2.754,1.936q.28,0,1.228-1.117c.67-.782,1.042-1.3,1.042-1.638,0-.186-.41-.6-1.266-1.191a4.743,4.743,0,0,0-1.489-.893"
      transform="translate(-949.058 -63.892)" fill="#fff" />
    <path id="Path_1382" data-name="Path 1382"
      d="M1276.872,112.128a12.633,12.633,0,0,0-1.08,1.3c-.632.819-1.042,1.34-1.191,1.6,1.786,1.3,2.717,1.936,2.754,1.936q.28,0,1.229-1.117c.67-.782,1.043-1.3,1.043-1.638,0-.186-.41-.6-1.266-1.191a4.746,4.746,0,0,0-1.489-.893"
      transform="translate(-903.401 -79.473)" fill="#fff" />
    <path id="Path_1383" data-name="Path 1383"
      d="M1203.1,189.2a4.715,4.715,0,0,0-1.526-.894,19.891,19.891,0,0,0-2.122,2.717c0-.037.037-.075.037-.112,0-.186-.41-.558-1.265-1.154a4.445,4.445,0,0,0-1.489-.93,11.34,11.34,0,0,0-1.079,1.34c-.633.819-1.043,1.34-1.192,1.563,1.787,1.3,2.718,1.973,2.755,1.973.149,0,.484-.3,1.042-.893a5.922,5.922,0,0,0,1.117-1.563c1.749,1.265,2.643,1.9,2.717,1.9.149,0,.558-.372,1.191-1.08.707-.782,1.042-1.34,1.042-1.675,0-.186-.409-.558-1.228-1.191"
      transform="translate(-846.602 -133.464)" fill="#fff" />
    <path id="Path_1384" data-name="Path 1384"
      d="M1119.793,95.14a11.282,11.282,0,0,0-1.079,1.34c-.633.819-1.042,1.34-1.191,1.563,1.787,1.3,2.717,1.973,2.755,1.973.149,0,.484-.3,1.042-.893a5.928,5.928,0,0,0,1.117-1.563c1.749,1.265,2.642,1.9,2.717,1.9.148,0,.558-.372,1.191-1.079.707-.782,1.042-1.34,1.042-1.675,0-.186-.409-.558-1.228-1.191a4.718,4.718,0,0,0-1.526-.893,19.864,19.864,0,0,0-2.122,2.717c0-.037.037-.075.037-.112,0-.186-.41-.558-1.265-1.154a4.441,4.441,0,0,0-1.489-.93"
      transform="translate(-792.068 -67.063)" fill="#fff" />
    <path id="Path_1385" data-name="Path 1385"
      d="M1196.711,83.078c.112,0,.261-.112.447-.3a3.345,3.345,0,0,1,1.9-1.08,6.31,6.31,0,0,1,1.414.223c.6.149.893.26.893.372a6.1,6.1,0,0,1-1.489,1.117l-1.34.782c-.409.3-.6.521-.633.67.037.112.112.149.261.149a2.344,2.344,0,0,0,.744-.149c2.2-.893,3.61-1.824,4.206-2.792a2.275,2.275,0,0,0,.3-1.117.539.539,0,0,0-.3-.558,12.787,12.787,0,0,0-3.387-.67,2.861,2.861,0,0,0-1.191.782,11.583,11.583,0,0,0-1.712,2.01.712.712,0,0,0-.186.447c0,.074,0,.112.074.112"
      transform="translate(-848.142 -56.509)" fill="#fff" />
    <path id="Path_1386" data-name="Path 1386"
      d="M1281.353,65.4c2.755-1.3,4.318-2.047,4.727-2.2q.335-1.787.335-2.01c-.111,0-1.823.782-5.211,2.382-4.02,1.9-7.7,3.722-11.018,5.435q-4.634,2.345-9.045,4.913a39.078,39.078,0,0,0-4.243,2.531,7.463,7.463,0,0,0-.372,1.079,9.343,9.343,0,0,0-.224,1.005q4.746-2.9,14.926-8.151c3.089-1.6,6.477-3.276,10.124-4.988"
      transform="translate(-890.431 -43.373)" fill="#fff" />
    <path id="Path_1387" data-name="Path 1387"
      d="M1238.718,191.846c-.074.037-.149.3-.223.707a4.307,4.307,0,0,0-.149,1.005c0,.149.037.223.074.186,1.861-.968,3.648-1.936,5.36-2.829,2.121-1.08,3.685-1.9,4.727-2.419a6.876,6.876,0,0,0,.3-1.824c-.112-.037-2.01.931-5.807,2.866-2.382,1.228-3.8,2.01-4.281,2.308"
      transform="translate(-877.705 -132.307)" fill="#fff" />
    <path id="Path_1388" data-name="Path 1388"
      d="M1103.055,75.309a5.98,5.98,0,0,1,1.9,1.452,2.334,2.334,0,0,0,.894-1.452c0-.3-.558-.856-1.6-1.638a5.275,5.275,0,0,0,.372-2.122,2.579,2.579,0,0,0-.41-1.563c-.223-.335-.447-.484-.67-.484-.521,0-1.117.409-1.75,1.228a3.752,3.752,0,0,0-.931,2.233,1.928,1.928,0,0,0,1.191,1.824,22.663,22.663,0,0,1-2.159,1.712c-1.377,1.005-2.494,1.824-3.387,2.345-.708.447-1.043.707-1.043.819,0,.037.074.075.186.075a5.737,5.737,0,0,0,.968-.186,12.463,12.463,0,0,0,3.2-1.563,13.218,13.218,0,0,0,3.238-2.68m-1.117-2.866a.89.89,0,0,1,.372-.67.968.968,0,0,1,.745-.372c.335,0,.484.3.484.93a2.253,2.253,0,0,1-.186.893c-.931-.372-1.414-.633-1.414-.782"
      transform="translate(-776.432 -49.262)" fill="#fff" />
    <path id="Path_1389" data-name="Path 1389"
      d="M1233.87,88.291a10.691,10.691,0,0,1,.335,2.531,6.958,6.958,0,0,0,.112,1.34c.149.037.3-.335.558-1.117a9.573,9.573,0,0,0,.372-2.717,4.668,4.668,0,0,0-1.824-4.132,13.672,13.672,0,0,0-1.191,1.414,5.529,5.529,0,0,1,1.638,2.68"
      transform="translate(-873.371 -59.676)" fill="#fff" />
    <path id="Path_1390" data-name="Path 1390"
      d="M851.567,78.322c-.149,0-.447.447-.819,1.3a7.83,7.83,0,0,0-.633,1.712c-.037.26.335,4.206,1.08,11.8.819,7.854,1.191,12.358,1.191,13.549a4.832,4.832,0,0,0,1.266-2.271,8.208,8.208,0,0,0,.149-1.787q0-5.025-2.159-24.12c0-.112-.037-.186-.074-.186"
      transform="translate(-602.535 -55.512)" fill="#fff" />
    <path id="Path_1391" data-name="Path 1391"
      d="M720.826,70.518a2.051,2.051,0,0,0-.931-.372,2.606,2.606,0,0,1-1.452-1.08,7.813,7.813,0,0,1-.261-2.122A5.111,5.111,0,0,0,718,65.158a10.788,10.788,0,0,0-1.3,2.643,10.774,10.774,0,0,0-.893,2.717,3.789,3.789,0,0,0,.558,1.34,5.116,5.116,0,0,1,.6,1.228c.3,1.414.633,4.392,1.079,8.933.186,1.9.41,4.02.6,6.365a31.538,31.538,0,0,1,.335,3.908c-.223.484-.93.856-2.122,1.154a13.07,13.07,0,0,1-2.643.3h-.112v0l-.223,0c-1.489,0-2.494-.3-2.978-.893,1.786-1.228,2.68-2.382,2.68-3.387,0-1.266-1.191-2.27-3.611-2.9a8.431,8.431,0,0,0-1.973-.26,6.474,6.474,0,0,0-3.5.819,7.673,7.673,0,0,0-1.861,1.823c-.67.819-.931,1.3-.856,1.452a.284.284,0,0,0,.186.075c.037,0,.186-.038.484-.075a3.573,3.573,0,0,1,.819-.112,4.054,4.054,0,0,1,1.3.261,4.664,4.664,0,0,1,1.414.93,2.112,2.112,0,0,1,.559.819c-2.271,1.117-5.844,1.675-10.794,1.675-.819,0-1.415-.038-1.787-.075a5.085,5.085,0,0,1-3.8-1.712,9.592,9.592,0,0,1-1.191-3.611c0-.111-.335-3.127-.93-9.045-.484-4.541-.894-6.812-1.266-6.812-.447,0-.744.819-.93,2.419a93.947,93.947,0,0,1-1.563,10.795,15.1,15.1,0,0,1-2.2,4.988,17.418,17.418,0,0,1-4.913,4.69,24.564,24.564,0,0,1-4.541,2.234c-1.266.521-1.861.819-1.824.893.037.112.372.186.968.186a17.764,17.764,0,0,0,5.025-.856,10.222,10.222,0,0,0,5.025-3.089,26.181,26.181,0,0,0,3.573-7.445c.409-1.377.819-2.829,1.154-4.392.335,5.62.893,9.231,1.712,10.943a4.937,4.937,0,0,0,2.2,2.382,11.956,11.956,0,0,0,3.5.782c.335.038.93.038,1.787.038a27.549,27.549,0,0,0,12.283-2.754,6.247,6.247,0,0,0,3.052,2.047,8.776,8.776,0,0,0,2.94.521h.186a5.675,5.675,0,0,0,3.685-.968,6.724,6.724,0,0,0,1.749-2.457,7.611,7.611,0,0,0,.819-3.313c0-.707-.223-3.313-.6-7.854-.447-4.988-.67-7.854-.707-8.6,1.228-2.01,1.75-3.164,1.675-3.387"
      transform="translate(-475.442 -46.182)" fill="#fff" />
    <path id="Path_1392" data-name="Path 1392"
      d="M660.953,96.113a6.479,6.479,0,0,0,0,1.712,3.863,3.863,0,0,0,1.117,1.824,3.675,3.675,0,0,0,2.606,1.117,2.839,2.839,0,0,0,1.414-.335,16.983,16.983,0,0,1,5.583,6.179,13.07,13.07,0,0,1,1.712,4.5,5.126,5.126,0,0,0,.335,1.675c.075,0,.186-.3.372-.931a7.382,7.382,0,0,0,.224-1.973,12.688,12.688,0,0,0-.633-3.648,13.144,13.144,0,0,0-3.052-5.658,24.736,24.736,0,0,0-5.248-4.28A8.485,8.485,0,0,0,661.7,94.81c-.372,0-.6.409-.744,1.3"
      transform="translate(-468.425 -67.199)" fill="#fff" />
    <path id="Path_1393" data-name="Path 1393"
      d="M584.1,119.864a11.5,11.5,0,0,0-.931-3.946c-.67-1.712-1.3-2.606-1.9-2.606-.931,0-2.047.782-3.387,2.345a13.148,13.148,0,0,0-2.643,4.578c-.447,1.377-2.308,2.047-5.546,2.047h-.26a6.428,6.428,0,0,1-5.7-2.791,21.614,21.614,0,0,1-2.345-6.03c-.484-2.122-.931-4.243-1.377-6.365-.409-1.712-.782-2.643-1.117-2.829a27.409,27.409,0,0,0-1.005,3.275,15.711,15.711,0,0,1,.745,2.754c-4.169,1.861-6.774,3.2-7.779,4.057a12.834,12.834,0,0,0-2.531,2.792,5.426,5.426,0,0,0-1.117,2.791c0,.484.6.856,1.786,1.08a17.178,17.178,0,0,0,3.723.335,10.407,10.407,0,0,0,3.834-.447c.819-.372,2.01-1.563,3.611-3.5a13.858,13.858,0,0,0,3.275,6.216,8.394,8.394,0,0,0,5.993,2.01h.3a6.186,6.186,0,0,0,2.9-.782,6.8,6.8,0,0,0,3.276-3.685,7.654,7.654,0,0,0,5.62,2.457,2.951,2.951,0,0,0,.968-.112c.223-.074.558-.558.968-1.415a5.4,5.4,0,0,0,.633-2.233m-25.348-2.345a6.049,6.049,0,0,1-1.973.707,15.1,15.1,0,0,1-2.494.149,26,26,0,0,1-3.09-.149c-.93-.149-1.414-.26-1.414-.447,0-.707,1.414-1.749,4.243-3.052a22.859,22.859,0,0,1,5.025-1.936l.93,3.908a4.9,4.9,0,0,1-1.228.819m23,3.089a5.718,5.718,0,0,1-2.345-.6,6.054,6.054,0,0,1-2.122-1.563c.707-1.3,1.526-1.973,2.494-1.973.409,0,.819.521,1.3,1.526a5.579,5.579,0,0,1,.707,2.308c0,.149-.037.223-.037.3"
      transform="translate(-387.847 -73.902)" fill="#fff" />
    <path id="Path_1394" data-name="Path 1394"
      d="M570.7,82.167a11.333,11.333,0,0,0-1.08,1.34c-.632.819-1.042,1.34-1.191,1.563,1.786,1.3,2.717,1.973,2.754,1.973.149,0,.484-.3,1.042-.893a5.935,5.935,0,0,0,1.117-1.563c1.749,1.265,2.643,1.9,2.717,1.9.149,0,.558-.372,1.191-1.079.707-.782,1.042-1.34,1.042-1.675,0-.186-.409-.558-1.228-1.191a4.719,4.719,0,0,0-1.526-.893,19.886,19.886,0,0,0-2.122,2.717c0-.037.037-.075.037-.112,0-.186-.409-.558-1.266-1.154a4.443,4.443,0,0,0-1.489-.93"
      transform="translate(-402.885 -57.868)" fill="#fff" />
    <path id="Path_1395" data-name="Path 1395"
      d="M762.954,50.447c2.754-1.3,4.318-2.047,4.727-2.2q.335-1.787.335-2.01c-.112,0-1.824.782-5.211,2.382-4.02,1.9-7.705,3.722-11.018,5.435q-4.634,2.345-9.045,4.913A39.129,39.129,0,0,0,738.5,61.5a7.478,7.478,0,0,0-.372,1.079,9.315,9.315,0,0,0-.223,1.005q4.746-2.9,14.926-8.151c3.089-1.6,6.477-3.276,10.124-4.988"
      transform="translate(-523.005 -32.774)" fill="#fff" />
    <path id="Path_1396" data-name="Path 1396"
      d="M678.035,61.747c1.861-.968,3.648-1.935,5.36-2.829,2.122-1.079,3.685-1.9,4.727-2.419a6.877,6.877,0,0,0,.3-1.824c-.112-.037-2.01.93-5.807,2.866-2.382,1.228-3.8,2.01-4.281,2.308-.075.037-.149.3-.223.707a4.306,4.306,0,0,0-.149,1.005c0,.149.037.223.075.186"
      transform="translate(-480.519 -38.751)" fill="#fff" />
    <path id="Path_1397" data-name="Path 1397"
      d="M620.255,78.1c.186-1.042.3-1.638.3-1.824-.074-.037-1.489.67-4.317,2.047-2.606,1.265-4.243,2.084-4.914,2.419-4.541,2.382-7.109,3.722-7.668,4.095-.223.112-.3.744-.335,1.861,3.052-1.526,5.956-3.052,8.784-4.615,3.238-1.6,5.955-2.9,8.152-3.983"
      transform="translate(-427.615 -54.06)" fill="#fff" />
    <path id="Path_1398" data-name="Path 1398"
      d="M697.931,75.272a2.374,2.374,0,0,1-2.01.931c-.149,0-.223-.112-.26-.41V74.676c0-.6-.112-.893-.3-.893-.112,0-.261.3-.372.931a5.233,5.233,0,0,1-.521,1.638,1.545,1.545,0,0,1-1.452.782c-.409,0-.633-.261-.633-.857,0-.186.037-.409.074-.744a2.578,2.578,0,0,0,.074-.558c0-.112,0-.149-.037-.149-.149,0-.335.3-.633.857a4.049,4.049,0,0,0-.484,1.563,2.17,2.17,0,0,0,.409,1.378,1.03,1.03,0,0,0,.67.372,2.457,2.457,0,0,0,1.489-.484c.3-.186.558-.41.819-.6a2.414,2.414,0,0,0,.744.112,2.988,2.988,0,0,0,2.122-1.005,4.456,4.456,0,0,0,.893-1.526,4.651,4.651,0,0,0,.261-1.489,3.525,3.525,0,0,0-.149-1.043c-.112-.335-.223-.521-.372-.521-.112.186-.372.67-.782,1.414a2.538,2.538,0,0,1,.447,1.414"
      transform="translate(-490.03 -51.346)" fill="#fff" />
    <path id="Path_1399" data-name="Path 1399"
      d="M547.725,64.6a12.47,12.47,0,0,0,3.2-1.563,13.212,13.212,0,0,0,3.238-2.68,5.98,5.98,0,0,1,1.9,1.452,2.334,2.334,0,0,0,.893-1.452c0-.3-.558-.856-1.6-1.638a5.274,5.274,0,0,0,.372-2.122,2.581,2.581,0,0,0-.409-1.563c-.223-.335-.447-.484-.67-.484-.521,0-1.116.41-1.749,1.229a3.753,3.753,0,0,0-.931,2.233,1.928,1.928,0,0,0,1.191,1.824A22.73,22.73,0,0,1,551,61.547c-1.377,1.005-2.494,1.824-3.387,2.345-.708.447-1.042.707-1.042.819,0,.037.075.075.186.075a5.739,5.739,0,0,0,.968-.186m5.323-7.11a.891.891,0,0,1,.372-.67.967.967,0,0,1,.744-.372c.335,0,.484.3.484.93a2.25,2.25,0,0,1-.186.894c-.93-.372-1.414-.633-1.414-.782"
      transform="translate(-387.394 -38.663)" fill="#fff" />
    <path id="Path_1400" data-name="Path 1400"
      d="M776.5,91.878a5.531,5.531,0,0,1,1.638,2.68,10.705,10.705,0,0,1,.335,2.531,7.108,7.108,0,0,0,.112,1.34c.149.037.3-.335.559-1.117a9.577,9.577,0,0,0,.372-2.717,4.668,4.668,0,0,0-1.824-4.132,13.751,13.751,0,0,0-1.191,1.414"
      transform="translate(-550.363 -64.118)" fill="#fff" />
    <path id="Path_1401" data-name="Path 1401"
      d="M616.739,118.208a5.532,5.532,0,0,1,1.638,2.68,10.715,10.715,0,0,1,.335,2.531,7.087,7.087,0,0,0,.111,1.34c.149.037.3-.335.559-1.117a9.579,9.579,0,0,0,.372-2.717,4.669,4.669,0,0,0-1.824-4.132,13.7,13.7,0,0,0-1.191,1.415"
      transform="translate(-437.127 -82.78)" fill="#fff" />
    <path id="Path_1402" data-name="Path 1402"
      d="M55.575,87.425c.607.972,1.869,1.54,2.855,2.27a3.866,3.866,0,0,0,.739.373c.27.121.617.2.8-.038a7.91,7.91,0,0,0,1.716-3.516c.116-.9-.987-1.5-1.845-1.959-1-.535-1.52-1.2-.648-2.324a1.893,1.893,0,0,0,.531-1.553,1.043,1.043,0,0,0-.49-1.173,21.713,21.713,0,0,0-2.907-1.915c-.764-.319-1.059-.085-1.442.587-1.708,2.992-1.734,2.975,1.1,4.958.186.13.325.421.508.443.723.086.208.392.161.644-.211,1.146-1.79,2.049-1.069,3.2"
      transform="translate(-38.062 -54.893)" fill="#fff" />
    <path id="Path_1403" data-name="Path 1403"
      d="M257.425,192.329c-.453.091-.835.35-1.226-.044-.423-.426-.306-.918-.146-1.426a6.828,6.828,0,0,1,1.92-3.243c.8-.688.7-1.479.7-2.315,0-.261.087-.635-.329-.636a.705.705,0,0,0-.532.343,2.5,2.5,0,0,1-1.049,1.28c-.331.174-.726.464-1.188.073-.185-.157-.4-.269-.3-.485a.877.877,0,0,1,.941-.571c.435.045.7-.015.777-.6.077-.605.26-1.062-.419-1.495s-.889.125-1.2.421c-1.192,1.12-2.109,4-1.329,4.314,1.766.721.982,1.822.862,2.908a12.735,12.735,0,0,0-.008,1.717,1.684,1.684,0,0,0,1.352,1.662c1.925.525,5.223-1.482,5.915-3.7-.905.367-1.659.658-2.4.977a11.771,11.771,0,0,1-2.338.817"
      transform="translate(-179.853 -129.741)" fill="#fff" />
    <path id="Path_1404" data-name="Path 1404"
      d="M482.745,193.9a17.794,17.794,0,0,1-4.393,2.26,1.277,1.277,0,0,1-1.284-.158c-.576-.457-.037-.81.08-1.178a12.556,12.556,0,0,1,.686-1.677,7.28,7.28,0,0,0,1.039-3.8c-.049-.6-.254-.928-.88-1.035a2.965,2.965,0,0,0-3.437,3.372,2.842,2.842,0,0,1,2.832-.856c-.468,1.569-1.294,2.9-1.536,4.459-.224,1.44,1.093,3.324,2.341,2.966a8.194,8.194,0,0,0,5.308-3.712c.183-.329.316-.686.064-.932-.354-.344-.562.116-.818.292"
      transform="translate(-336.329 -133.437)" fill="#fff" />
    <path id="Path_1405" data-name="Path 1405"
      d="M99.091,191.99a3.56,3.56,0,0,0-1.412,1.306c-1.431,2.419-3.766,3.481-6.242,4.4-2.039.754-4.052,1.58-6.076,2.374l.116.43c4.784-.525,9.611-.954,12.425-5.831.724.729,1.607,1.714,2.574,1.194,1.032-.555.707-1.936.591-2.96-.135-1.186-1.052-1.367-1.976-.911"
      transform="translate(-60.501 -135.914)" fill="#fff" />
    <path id="Path_1406" data-name="Path 1406"
      d="M65.291,189.3a.367.367,0,0,0-.54.187c-.365.67-.828,1.615-1.648,1.273-.845-.352-.352-1.431-.409-2.188a3.721,3.721,0,0,1,.169-1.494c.471-1.414.782-2.882,1.157-4.328-2.438,2.8-3.02,6.1-2.662,9.593a1.729,1.729,0,0,0,1.4,1.321,1.563,1.563,0,0,0,1.458-.676,10.426,10.426,0,0,0,1.2-3.225.507.507,0,0,0-.125-.462"
      transform="translate(-43.421 -129.53)" fill="#fff" />
    <path id="Path_1407" data-name="Path 1407"
      d="M374.412,195.465c-1.369-.035-1.78.97-2.137,1.932-.156.421-.577,1.6.825.9.316-.158.879-.243,1.086.155a1.208,1.208,0,0,1-.088,1.147,12.756,12.756,0,0,1-2.1,2.8c-.427.393-1.109.728-.778,1.532a9.977,9.977,0,0,0,4.449-4.732,4.506,4.506,0,0,0,.248-2.649c-.079-.7-.69-1.064-1.5-1.084"
      transform="translate(-263.045 -138.539)" fill="#fff" />
    <path id="Path_1408" data-name="Path 1408"
      d="M72.994,7.271c1.045,1.474.58,3.144.883,5.1,1.571-3.012.922-7.391-1.182-9.1-.436-.354-1.14-1.018-1.764-.272a1.412,1.412,0,0,0,.086,1.986,23.526,23.526,0,0,1,1.977,2.284"
      transform="translate(-50.013 -1.886)" fill="#fff" />
    <path id="Path_1409" data-name="Path 1409"
      d="M186.426,13.75c.313,2.734.46,5.54.548,8.324.053,1.678.078,3.4.281,5.074.72,5.945.946,11.928,1.288,17.9a34.218,34.218,0,0,1-.269,9.522c-.1.438-.1,1,.4,1.192.356.135.491-.283.637-.6A25.691,25.691,0,0,0,191.6,42.277c-.183-2.518-.269-5.061-.5-7.584s-.415-5.089-.525-7.64a40.346,40.346,0,0,0-.3-4.9c-.62-3.707-.369-7.471-1-11.282.947.433,1.307,1.416,2.57,1.8-.68-4.53-2.683-8.294-4.423-12.671-.974,2.167-2.4,3.937-1.8,5.724.9,2.673.486,5.368.79,8.025"
      transform="translate(-131.472 -0.001)" fill="#fff" />
    <path id="Path_1410" data-name="Path 1410"
      d="M42.094,25.257a2.306,2.306,0,0,0,.4-.144C48.655,21.733,54.743,18.2,61,15c6.2-3.173,12.375-6.427,18.849-9.038,1.389-.56,2.519-1.286,2.579-2.956.022-.621.345-1.5-.965-.837-1.915.972-3.978,1.654-5.889,2.634-5.466,2.8-11.139,5.183-16.5,8.2-4.147,2.331-8.439,4.41-12.532,6.829-2.045,1.208-4.964,1.913-4.446,5.424"
      transform="translate(-29.792 -1.372)" fill="#fff" />
    <path id="Path_1411" data-name="Path 1411"
      d="M331.3,24.234c.027.324-.707.642-.069.962.3.148.6-.074.921-.264,5.414-3.245,11.01-6.157,16.588-9.109C355.4,12.3,362.1,8.891,369.032,5.944c1.662-.707,2.57-1.7,2.514-3.567.035-.657-.213-.564-.775-.294-2.039.977-4.15,1.807-6.185,2.794C354.223,9.906,343.9,15.026,333.932,20.8c-1.3.756-2.792,1.485-2.628,3.429"
      transform="translate(-234.584 -1.332)" fill="#fff" />
    <path id="Path_1412" data-name="Path 1412"
      d="M235.331,20.849a3.936,3.936,0,0,0,.6-.2c7.672-4.433,15.522-8.53,23.474-12.432,2.828-1.388,5.668-2.758,8.536-4.06,1.235-.561.836-1.653.612-2.307-.291-.85-1.043-.05-1.519.154-1.572.675-3.118,1.416-4.653,2.175-8.587,4.245-17.21,8.419-25.439,13.351a2.932,2.932,0,0,0-1.617,3.324"
      transform="translate(-166.758 -1.036)" fill="#fff" />
    <path id="Path_1413" data-name="Path 1413"
      d="M230.831,4.441c1.08-.535,1.1-1.629.966-2.733-6.1,2.546-11.766,5.757-17.6,8.629a2.556,2.556,0,0,0-1.456,3.413c5.963-3.224,12.01-6.3,18.089-9.309"
      transform="translate(-150.655 -1.211)" fill="#fff" />
    <path id="Path_1414" data-name="Path 1414"
      d="M214.669,83.714c1.416.605,2.271-.574,3.149-1.45.059-.058.178-.056.266-.081,1.026,1.458,2.246,1.689,3.044.467A4.7,4.7,0,0,0,222,80.171c.06-2.06-1.4-3.605-1.529-5.885a4.02,4.02,0,0,0-.41,4.682c.221.495.731.954.449,1.53-.084.171-.634.213-.942.157-.752-.137-.581-.8-.734-1.336-.424-1.494-.183-3.2-1.362-4.6a3.047,3.047,0,0,0-.482,3.2,4.45,4.45,0,0,1,.127,1.848,1.583,1.583,0,0,1-1.352,1.507c-.746,0-1.109-.785-1.046-1.636a12.9,12.9,0,0,0-.008-2.23c-.051-.509.385-1.173-.316-1.511-.333-.161-.624.071-.9.326-.511.481-1.027.941-.816,1.738a2.13,2.13,0,0,0,.322.589,2.842,2.842,0,0,1,.347,1.784c-.058,1.325-.119,2.766,1.313,3.378"
      transform="translate(-150.712 -52.652)" fill="#fff" />
    <path id="Path_1415" data-name="Path 1415"
      d="M403.727,60.57a4.422,4.422,0,0,0,.545-3.994,27.375,27.375,0,0,1-1.463-4.035,4.377,4.377,0,0,0-.035,4.883c.208.382.6.776.177,1.192-.157.153-.544.132-.813.1-.534-.072-.691-.442-.764-.961-.183-1.318-.473-2.62-.659-3.937-.064-.453-.233-.852-.635-.884-.59-.047-.621.626-.7.965-.121.523.335,3.257.244,4.018a1.533,1.533,0,0,1-1.427,1.417c-.62-.047-1.016-.757-.958-1.57.073-1.026.012-2.061.02-3.093,0-.427-.029-.939-.6-.723-.872.331-.941,4.347-.752,5.539.142.9.245,2.005,1.347,2.314a2.122,2.122,0,0,0,2.609-1.092c.454-.9.5-.406,1.018-.037.863.618,2.134,1.048,2.84-.1"
      transform="translate(-280.549 -37.24)" fill="#fff" />
    <path id="Path_1416" data-name="Path 1416"
      d="M107.633,83.694c-.75,1.5-.871,3.165-1.48,5-.406-1.841-.836-3.434-2.14-4.63-.647-.593-1.48-1.3-2.194-.852a2.536,2.536,0,0,0-1.293,2.352,1.979,1.979,0,0,0,2,1.681c.58.025,1.149-.031,1.39.677a20.345,20.345,0,0,1,1.358,3.882c.067.523.017,1.163.605,1.244.656.089.529-.711.8-1.079a2.313,2.313,0,0,0,.352-.918c.432-1.871.609-3.816,1.545-5.551.25-.464.386-.965,1.024-.329.326.326.772,1.243,1.274.376.349-.6,1.036-1.336.282-2.258-1.393-1.7-2.529-1.588-3.531.41"
      transform="translate(-71.234 -58.187)" fill="#fff" />
    <path id="Path_1417" data-name="Path 1417"
      d="M329.961,142.111c-1.246,1.617-1.179,3.6-1.729,5.444a4.574,4.574,0,0,1-.569-1.347,5.744,5.744,0,0,0-1.97-3.392c-.573-.4-1.433-1.055-2.1-.418-.644.616-1.408,1.448-1.024,2.5.243.669.809,1.554,1.537,1.345,1.555-.445,1.774.713,2.087,1.56a12.074,12.074,0,0,1,1.2,4.508,3.012,3.012,0,0,0,1.676-2.59c.373-1.662.442-3.388,1.3-4.942.458-.827.779-1.394,1.435-.249.408.712.954.526,1.155.064a2.316,2.316,0,0,0-.561-3.042c-1.037-.8-1.73-.379-2.45.555"
      transform="translate(-228.557 -100.032)" fill="#fff" />
    <path id="Path_1418" data-name="Path 1418"
      d="M358.485,6.667c1.738-.368,1.785.985,2.242,1.886.369.727.456,1.608.872,2.3.331.548-.191,1.677.725,1.62.706-.043.672-1.183,1.109-1.756.115-.151.019-.448.07-.667.334-1.448.637-2.906,1.04-4.335.286-1.017.728-1.929,1.879-.655.212.235.483.608.8.166a2.433,2.433,0,0,0,.34-2.257,1.931,1.931,0,0,0-1.6-1.343,1.6,1.6,0,0,0-1.705.868,22.35,22.35,0,0,0-1.606,5.369c-.815-1.691-1.12-3.4-2.468-4.52-.612-.507-1.363-1.018-2.129-.518a2.47,2.47,0,0,0-1.106,2.328,1.6,1.6,0,0,0,1.537,1.518"
      transform="translate(-252.99 -1.14)" fill="#fff" />
    <path id="Path_1419" data-name="Path 1419"
      d="M146.866,30.713a6.708,6.708,0,0,0-1.38,2.415c-.991,2.5-1.834,4.99-1.046,7.755a1.138,1.138,0,0,0,1.279,1.011c1.727.041,2.75-1.69,2.346-4.279-.764.605-1,1.887-1.84,1.6-1.155-.393-.624-1.66-.7-2.577-.017-.207.137-.423.17-.641.257-1.678,1.216-3.216,1.168-5.285"
      transform="translate(-102.155 -21.768)" fill="#fff" />
    <path id="Path_1420" data-name="Path 1420"
      d="M406.539,88.408c.141-.753.845-1.536.253-2.462a15.153,15.153,0,0,0-2.537,9.046c.035.757.214,1.587.967,1.8.639.181,1.523.384,2.048-.377a4.454,4.454,0,0,0,.883-4.072,10.932,10.932,0,0,0-.708,1.2c-.194.5-.407,1.029-1.038.885s-.76-.773-.755-1.3a5.754,5.754,0,0,1,.162-2.189,14.3,14.3,0,0,0,.725-2.528"
      transform="translate(-286.513 -60.916)" fill="#fff" />
    <path id="Path_1421" data-name="Path 1421"
      d="M148.705,75.222c-7.611.257-15.208-.361-22.815-.342-.6,0-1.2,0-1.985,0a5.159,5.159,0,0,1,1.47-1.4A109.11,109.11,0,0,1,135.6,68.319c.728-.326,1.072-.275,1.332.459.147.415.314,1.039.833.864a1.2,1.2,0,0,0,.628-1.233c-.11-.993.313-1.383,1.288-1.587,1.455-.3,2.87-.8,4.293-1.252,1.565-.493,3.246-4.247,2.284-5.574a12.529,12.529,0,0,0-8.763-5.451c-2.667-.346-4.42,2.138-4.611,4.487a7.847,7.847,0,0,0,1.572,4.989,50.175,50.175,0,0,0-12.306,6.92c-2.5,1.87-4.762,3.831-5.772,6.918-.522,1.594-.4,1.841,1.314,1.836,4.8-.015,9.574.368,14.527.739-4.91,2.455-11.285,2.768-12.228,9.869a7.671,7.671,0,0,1-1.934-2.369c-1.673-3.036-2.036-6.422-2.7-9.716-1.087-5.374-1.749-10.844-3.815-15.982a22.863,22.863,0,0,0-5.007-8.368c-.155,2.5-1.478,4.438-.47,6.663,2.03,4.479,4.1,8.967,5.007,13.823.508,2.713,1.581,5.347-.942,8.142-4.621,5.118-9.866,8.974-16.518,10.831-4.712,1.315-7.171-.446-6.847-4.863a6.116,6.116,0,0,1,.339-1.448c.886-2.676,1.505-5.439,3.4-7.718a4.318,4.318,0,0,0,.93-3.9,6.037,6.037,0,0,0-.812,1.005c-.231.511-.476,1.188-1.067,1.02a1.3,1.3,0,0,1-.739-1.556,7.258,7.258,0,0,1,.028-1.2c.534-1.608.206-3.647,2.2-4.547A57.824,57.824,0,0,1,98,67.063a7.2,7.2,0,0,0,4.621-4.324c.256-.544.558-1.119.1-1.523-.35-.312-.907-.031-1.4.2-2.354,1.1-4.75,2.1-7.128,3.152a18.146,18.146,0,0,1-5.509,1.714c-4.948.491-9.31-3.653-11.125-7.291-.624-1.25-.251-1.913.949-2.6,3.053-1.746,6.535-1.637,9.791-2.48a13.342,13.342,0,0,0,9.009-7.355c.192-.386.338-.984-.137-1.219a1,1,0,0,0-1.252.241c-.211.267-.488.481-.725.728a9.781,9.781,0,0,1-5.718,2.815,52.721,52.721,0,0,0-7.981,1.63c-6.62,2.226-8.159,9.29-5.154,14.68,1.047,1.877,2.677,3.021,4.405,4.386-1.574.592-5.433,2.232-5.849,2.209-.863-.047-1.365-.861-1.954-1.859-1.075-1.822-2.251-3.711-4.7-3.879-3.085-.212-6.162,2.891-6.3,6.218-.091,2.176-.215,4.4,2.4,5.249a10.561,10.561,0,0,0,5.976.342c.645-.167,1.507-.426,1.886.143a1.9,1.9,0,0,1-.383,2.06,19.07,19.07,0,0,1-2.7,3.032,56.76,56.76,0,0,1-7.663,5.993c-3.644,2.134-7.194,4.419-11.779,3.48a6.758,6.758,0,0,1-4.98-4.97c-.579-2.691.4-5.159.748-7.717.09-.668.46-.972,1.195-.478a13.254,13.254,0,0,0,4.223,1.394c2.019.533,3.168-.218,3.863-2.237a13.464,13.464,0,0,0,.222-7.943c-.985-3.748-3.819-5.116-6.763-3.163a13.732,13.732,0,0,0-4.821,5.787c-1.248,2.711-2.534,5.232-5.585,6.51a8.769,8.769,0,0,1-9.742-1.635,25.434,25.434,0,0,1-2.554-3.716c-1.537-2.148-3.24-2.508-5.428-1.093a16.029,16.029,0,0,0-5.264,6.411c-1.567,2.976-2.529,6.253-4.491,9.034a2.846,2.846,0,0,1-3.767,1.056c-1.92-.8-2.326-2.57-2.751-4.25-.836-3.305-.512-6.689-.333-10.04.047-.875-.052-2.021.881-2.56,3.225-1.866,3.322-4.99,3.283-8.225-.528.88-1,1.8-1.6,2.63-.988,1.38-2.721,1.351-3.187-.116a8.723,8.723,0,0,1-.318-4.316A65.791,65.791,0,0,1,5.368,52.783c.126-.346.231-.734-.082-.9-.368-.2-.655.187-.8.475-.617,1.238-1.191,2.5-1.779,3.752A25.877,25.877,0,0,0,.04,68.738c.1,1.68.04,3.819,2.42,4.453.426.114.309.559.192.86-1.113,2.868-.912,5.868-.975,8.855a16.922,16.922,0,0,0,3.029,10.04,3.858,3.858,0,0,0,6.4.325c1.731-2.185,2.559-4.769,3.667-7.234,1.128-2.508,2.3-4.959,4.432-6.826,2.009-1.757,3.261-1.664,4.728.518a13,13,0,0,1,1.122,1.847c2.535,5.62,9.611,5.6,13.07,3.212a15.707,15.707,0,0,0,5.371-7.071c1.112.806,1.175.848.881,1.65A25.35,25.35,0,0,0,43.05,90.338c.3,3.578,1.87,6.835,5.907,7.776a11.81,11.81,0,0,0,8.069-.944A45.406,45.406,0,0,0,65.869,91.2c4.261-3.582,7.882-7.488,8.8-13.223A1.391,1.391,0,0,1,75.682,76.8c2.681-1.174,5.352-2.37,8.043-3.519,1.527-.652,3.086-1.228,4.718-1.873-.672,3.042-2.083,5.859-.091,8.7.229.326-.006.495-.155.733a20.816,20.816,0,0,0-2.784,13.236,5.133,5.133,0,0,0,5.82,4.856,20.68,20.68,0,0,0,7.6-2.232,38.948,38.948,0,0,0,8.335-5.846c2.641-2.452,5.118-4.925,6.023-9.093a32.639,32.639,0,0,0,.752,5.563,13.247,13.247,0,0,0,7.974,10.309,28.264,28.264,0,0,0,7.105,2.189c2.127.363,2.677.116,2.827-2,.044-.628-.055-1.269.023-1.891.1-.783-.272-.931-.94-1.229-2.415-1.08-4.969-1.867-7.208-3.33C123.162,91,122.3,90.666,122.46,90c.121-.5.918-.943,1.507-1.192a148.57,148.57,0,0,1,23.63-8.1c.729-.173,1.485-.4,1.543-1.493a7.181,7.181,0,0,1,.741-2.18c.49-1.2.244-1.861-1.177-1.813m-12.582-15.63a13.834,13.834,0,0,1,4.6,2.065c-.485.171-.965.307-1.417.5-2.421,1.059-3.393.592-3.964-1.973-.143-.643-.087-.866.781-.6M66.651,73.161a3.844,3.844,0,0,1-1.037-.276c-.5-.233-.978-.4-.884-1.028a.641.641,0,0,1,.039-.139.894.894,0,0,1,.281-.363,2.792,2.792,0,0,1,1.15-.472c1.662-.3,2.323.926,3.39,2.307a14.365,14.365,0,0,1-2.938-.03m-19.337-.619a3.839,3.839,0,0,1,.926-.377,2.164,2.164,0,0,1,1.724.238,3.682,3.682,0,0,1,1.863,2.747c-.1.179-.307.554-.753.359-1.306-.569-2.612-1.149-3.869-1.817-.652-.347-.456-.838.108-1.151"
      transform="translate(0 -32.049)" fill="#fff" />
    <path id="Path_1422" data-name="Path 1422"
      d="M448.625,13.673c-3.408,3.372-7.889,5.066-11.737,7.9a1.632,1.632,0,0,0,1.59.085c4.033-1.385,7.835-3.143,10.795-6.346.378-.409.813-1.046,1.4-.568.648.528.921.728,1.451-.165.507-.855.756-1.71-.054-2.234-.96-.621-.889-.686-.608-1.284a7.005,7.005,0,0,0,.352-2.733c-.1-1.34-1.077-1.841-2.3-1.285-3.379,1.531-3.711,4.043-.886,6.634m.728-4.211c.92.209.8.892.71,1.6-.676-.209-1.378-.412-1.513-1.19-.036-.21.419-.493.8-.406"
      transform="translate(-309.654 -4.831)" fill="#fff" />
    <path id="Path_1423" data-name="Path 1423"
      d="M21.815,5.743c.811-.319.754.244.864.495.421.957.909,1.883,1.305,2.856a2.875,2.875,0,0,1-.095,2.706,10.431,10.431,0,0,0-.865,3.215c.194-.054.82-1.157,1.313-1.32a1.59,1.59,0,0,1,1.265.611c-.131.06-2.1.574-2.689,1.512a17.428,17.428,0,0,1-.421,2.253,1.48,1.48,0,0,0,.065.667c.884,3.935,1.885,7.853,1.66,11.945-.018.322-.249.842.391.931.091-.076.233-.135.252-.22a24.339,24.339,0,0,0-.454-11.028c-.737-3.084-.81-3,2.39-4.012.516-.162,1.253.1,1.688-.772.87-1.749.693-2.656-1.144-3.921-.543-.373-2.065-.771-1.9-1.465.483-1.982,1.369-3.925,1.939-5.884.165-.565.694-1.259,1.418-.285.306.411.826.754,1.23.13a2.241,2.241,0,0,0,.154-2.223A1.772,1.772,0,0,0,28.558.716a1.826,1.826,0,0,0-1.674,1.129,23.711,23.711,0,0,0-1.592,4.931c-.566-1.646-1.1-3.244-2.526-4.276-.6-.432-1.22-1.257-2.031-.564-.665.568-1.393,1.323-1.027,2.335.336.93,1.029,1.895,2.106,1.472"
      transform="translate(-13.9 -0.507)" fill="#fff" />
  </g>
</svg>