<svg id="لوغو-أساسي" xmlns="http://www.w3.org/2000/svg" xmlns:xlink="http://www.w3.org/1999/xlink" width="234" height="42.462" viewBox="0 0 234 42.462">
  <defs>
    <clipPath id="clip-path">
      <rect id="Rectangle_182" data-name="Rectangle 182" width="234" height="42.462" fill="#d8a73c"/>
    </clipPath>
  </defs>
  <g id="Group_281" data-name="Group 281" clip-path="url(#clip-path)">
    <path id="Path_1371" data-name="Path 1371" d="M1083.654,77.108c-.087,0-.263.263-.482.766a4.6,4.6,0,0,0-.372,1.007c-.022.153.2,2.473.635,6.937.481,4.618.7,7.266.7,7.966a2.84,2.84,0,0,0,.744-1.335,4.825,4.825,0,0,0,.088-1.05q0-2.954-1.269-14.181c0-.066-.022-.109-.044-.109" transform="translate(-897.397 -63.905)" fill="#d8a73c"/>
    <path id="Path_1372" data-name="Path 1372" d="M900.865,66.914a6.109,6.109,0,0,0,.985-1.992,1.207,1.207,0,0,0-.547-.219,1.531,1.531,0,0,1-.853-.635,4.584,4.584,0,0,1-.153-1.248,3.018,3.018,0,0,0-.109-1.05,6.333,6.333,0,0,0-.766,1.554,6.346,6.346,0,0,0-.525,1.6,2.228,2.228,0,0,0,.328.788,3,3,0,0,1,.35.722c.175.832.372,2.582.635,5.252.109,1.116.241,2.363.35,3.742a18.583,18.583,0,0,1,.2,2.3c-.131.284-.547.5-1.247.678a7.688,7.688,0,0,1-1.554.175h-.175c-1.007,0-1.576-.328-1.685-.985a5.486,5.486,0,0,0,.372-1.357c0-.2-.066-.285-.2-.285s-.307.241-.481.722a5.876,5.876,0,0,1-.678,1.357,1.744,1.744,0,0,1-1.444.722h-.416a1.32,1.32,0,0,1-.656-.153,4.947,4.947,0,0,0,.263-.7,3.208,3.208,0,0,0,.175-.919c0-.175-.044-.263-.153-.263-.131,0-.284.153-.438.46a6.707,6.707,0,0,1-.547.941,1.671,1.671,0,0,1-.963.722,4.34,4.34,0,0,1-1.357.175c-.7,0-1.116-.066-1.269-.219a4.383,4.383,0,0,0,.328-1.488c0-.153-.044-.241-.109-.262-.088-.022-.241.175-.481.591a2.458,2.458,0,0,1-1.094,1.116,2.858,2.858,0,0,1-1.269.262h-.635a1.909,1.909,0,0,1-1.138-.46,3.249,3.249,0,0,1-.9-1.094,9.8,9.8,0,0,1-.7-3.173,11.5,11.5,0,0,0-.262-1.97q-.066.1-.394.722a6.313,6.313,0,0,0-.394.941,12.278,12.278,0,0,0,.153,1.663c.131.941.2,1.532.2,1.751a1.422,1.422,0,0,1-.81,1.226,2.09,2.09,0,0,1-1.072.394h-.153a2.454,2.454,0,0,1-1.707-.591,1.543,1.543,0,0,1-.591-1.226,1.918,1.918,0,0,1,.241-.919c.481-.087.832-.175,1.094-.241a.319.319,0,0,0,.2-.131,3.909,3.909,0,0,0,.788-1.488.123.123,0,0,0-.022-.131.316.316,0,0,0-.2-.044c-2.3.109-4.071.131-5.318.087a12.21,12.21,0,0,1-1.269-.153,13.184,13.184,0,0,0-1.357-.109,3.254,3.254,0,0,0-1.641.394,4.311,4.311,0,0,0-1.357,1.554,4.046,4.046,0,0,0-.722,1.619.1.1,0,0,0,.109.109q.131,0,.591-.525a5.26,5.26,0,0,1,.985-.941,2.916,2.916,0,0,1,1.576-.328,9.737,9.737,0,0,1,2.013.219,6.488,6.488,0,0,0-2.013,1.466,11.189,11.189,0,0,0-2.385,3.589,14.919,14.919,0,0,0-1.138,5.975c0,2.517.832,4.289,2.539,5.318a10.339,10.339,0,0,0,5.362,1.138,26.05,26.05,0,0,0,5.865-.744,17.186,17.186,0,0,0,3.2-.963q.46-.23.459-.328,0-.131-.656-.131c-.175,0-1.029.066-2.561.219s-2.867.241-4.049.241a23.048,23.048,0,0,1-4.442-.416c-3.02-.656-4.552-2.539-4.552-5.69a11.771,11.771,0,0,1,.985-4.618,6.525,6.525,0,0,1,2.954-3.5,15.1,15.1,0,0,1,2.867-1.029c.438-.109.875-.2,1.335-.284a7.969,7.969,0,0,0-.263,1.948,2.514,2.514,0,0,0,.416,1.576,3.249,3.249,0,0,0,2.67,1.05h.219c.963,0,1.685-.81,2.188-2.407a3.358,3.358,0,0,0,1.16,1.663,3.054,3.054,0,0,0,1.948.744h.132a3.206,3.206,0,0,0,2.013-.635,4.05,4.05,0,0,0,1.051.547,4.866,4.866,0,0,0,.985.087,3.256,3.256,0,0,0,2.32-.766,2.609,2.609,0,0,0,1.6.481,2.226,2.226,0,0,0,2.057-1.466,2.538,2.538,0,0,0,2.539,1.291h.088v.022h.087a3.338,3.338,0,0,0,2.167-.569,3.953,3.953,0,0,0,1.028-1.444,4.471,4.471,0,0,0,.482-1.948c0-.416-.131-1.948-.35-4.618-.262-2.932-.394-4.618-.416-5.055" transform="translate(-718.919 -51.194)" fill="#d8a73c"/>
    <path id="Path_1373" data-name="Path 1373" d="M996.34,121.55a3.485,3.485,0,0,0,.656-.919c1.029.744,1.554,1.116,1.6,1.116.088,0,.328-.219.7-.635.416-.46.613-.788.613-.985,0-.109-.241-.328-.722-.7a2.773,2.773,0,0,0-.9-.525,11.68,11.68,0,0,0-1.247,1.6c0-.022.022-.044.022-.066,0-.109-.241-.328-.744-.678a2.616,2.616,0,0,0-.875-.547,6.653,6.653,0,0,0-.635.788c-.372.481-.613.788-.7.919,1.05.766,1.6,1.16,1.619,1.16.088,0,.285-.175.613-.525" transform="translate(-823.892 -98.543)" fill="#d8a73c"/>
    <path id="Path_1374" data-name="Path 1374" d="M1003.174,106.249a6.988,6.988,0,0,0-1.269,1.619c1.007.722,1.51,1.094,1.532,1.094.088,0,.328-.2.678-.613.394-.438.591-.744.591-.941,0-.087-.241-.306-.7-.656a3.089,3.089,0,0,0-.832-.5" transform="translate(-830.354 -88.057)" fill="#d8a73c"/>
    <path id="Path_1375" data-name="Path 1375" d="M918.1,188.518a2.614,2.614,0,0,0-.875-.547,6.66,6.66,0,0,0-.635.788c-.372.481-.613.788-.7.919,1.051.766,1.6,1.16,1.62,1.16.087,0,.285-.175.613-.525a3.482,3.482,0,0,0,.656-.919c1.029.744,1.554,1.116,1.6,1.116.088,0,.328-.219.7-.635.416-.46.613-.788.613-.985,0-.109-.241-.328-.722-.7a2.776,2.776,0,0,0-.9-.525,11.662,11.662,0,0,0-1.247,1.6c0-.022.022-.044.022-.066,0-.109-.241-.328-.744-.678" transform="translate(-759.065 -155.531)" fill="#d8a73c"/>
    <path id="Path_1376" data-name="Path 1376" d="M896.757,96.167c.394-.46.613-.766.613-.963,0-.109-.241-.35-.744-.7a2.788,2.788,0,0,0-.875-.525,7.423,7.423,0,0,0-.635.766c-.372.481-.613.788-.7.941,1.05.766,1.6,1.138,1.619,1.138q.164,0,.722-.656" transform="translate(-741.269 -77.887)" fill="#d8a73c"/>
    <path id="Path_1377" data-name="Path 1377" d="M926.335,63.075a4.39,4.39,0,0,0-.219.635,5.456,5.456,0,0,0-.131.591q2.79-1.707,8.776-4.793c1.816-.941,3.808-1.926,5.953-2.933,1.619-.766,2.539-1.2,2.779-1.291q.2-1.051.2-1.182c-.066,0-1.072.46-3.064,1.4-2.363,1.116-4.53,2.188-6.478,3.2q-2.725,1.379-5.318,2.889a23,23,0,0,0-2.495,1.488" transform="translate(-767.433 -44.838)" fill="#d8a73c"/>
    <path id="Path_1378" data-name="Path 1378" d="M922.45,65.53c.066,0,.153-.066.263-.175a1.967,1.967,0,0,1,1.116-.635,3.71,3.71,0,0,1,.832.131c.35.088.525.153.525.219a3.587,3.587,0,0,1-.875.656l-.788.46c-.241.175-.35.306-.372.394.022.066.066.088.153.088a1.379,1.379,0,0,0,.438-.088,5.19,5.19,0,0,0,2.473-1.641,1.337,1.337,0,0,0,.175-.656.317.317,0,0,0-.175-.328,7.517,7.517,0,0,0-1.991-.394,1.683,1.683,0,0,0-.7.46,6.8,6.8,0,0,0-1.007,1.182.419.419,0,0,0-.109.263c0,.044,0,.066.044.066" transform="translate(-764.467 -52.677)" fill="#d8a73c"/>
    <path id="Path_1379" data-name="Path 1379" d="M992.359,78.724c0-.066,0-.087-.022-.087-.088,0-.2.175-.372.5a2.384,2.384,0,0,0-.284.919,1.274,1.274,0,0,0,.241.81.6.6,0,0,0,.394.219,1.444,1.444,0,0,0,.875-.284c.175-.109.328-.241.481-.35a1.408,1.408,0,0,0,.438.066,1.758,1.758,0,0,0,1.247-.591,2.625,2.625,0,0,0,.525-.9,2.731,2.731,0,0,0,.153-.875,2.076,2.076,0,0,0-.088-.613c-.066-.2-.131-.306-.219-.306-.066.109-.219.394-.46.832a1.493,1.493,0,0,1,.263.831,1.4,1.4,0,0,1-1.182.547c-.088,0-.131-.066-.153-.241v-.656c0-.35-.066-.525-.175-.525-.066,0-.153.175-.219.547a3.074,3.074,0,0,1-.306.963.908.908,0,0,1-.854.46c-.241,0-.372-.153-.372-.5,0-.109.022-.241.044-.438a1.509,1.509,0,0,0,.044-.328" transform="translate(-821.88 -64.011)" fill="#d8a73c"/>
    <path id="Path_1380" data-name="Path 1380" d="M1146.153,84.8a10.147,10.147,0,0,0-1.029-1.773c-.678-1.007-1.226-1.51-1.663-1.51-.219,0-.481.2-.832.569a8.74,8.74,0,0,0-.788,1.138,5.163,5.163,0,0,0-.722,2.276,1.7,1.7,0,0,0,.066.481,2.2,2.2,0,0,0,.7,1.2,1.731,1.731,0,0,0,1.225.569,2.431,2.431,0,0,0,2.145-1.2,2.126,2.126,0,0,1,.372.591,2.308,2.308,0,0,1,.219.766c0,.066-.022.109-.022.153-.219.657-1.028,1.116-2.407,1.4a13.743,13.743,0,0,1-2.933.285h-1.444a3.534,3.534,0,0,0,1.291-2.451,1.42,1.42,0,0,0-.394-1.05,3.8,3.8,0,0,0-1.4-.788,3.334,3.334,0,0,0-1.116-.2,5.422,5.422,0,0,0-3.151,1.291,31.354,31.354,0,0,0-3.261,3.02,8.05,8.05,0,0,1-1.795-.766,3.109,3.109,0,0,0-.853-.416,1.325,1.325,0,0,0-.766.35,4.09,4.09,0,0,1-.919.657,4.392,4.392,0,0,1-1.926.35h-.241a4.474,4.474,0,0,1-1.969-.416,5.8,5.8,0,0,1-1.138-.81c-.306-.284-.482-.438-.547-.438-.088,0-.263.153-.569.438a4.553,4.553,0,0,1-1.094.81,4.971,4.971,0,0,1-2.167.416h-.109a1.828,1.828,0,0,1-1.97-1.357,57.985,57.985,0,0,1-1.357-8.426,36.139,36.139,0,0,0-.788-5.537c-.109,0-.372.46-.788,1.357,0,.481.285,2.91.832,7.309.591,4.618.9,7.2.941,7.7a1.239,1.239,0,0,1-.438,1.225,1.03,1.03,0,0,1-.635.175,1.98,1.98,0,0,1-1.313-.591,4.727,4.727,0,0,1-1.247-1.992,22.918,22.918,0,0,1-.854-3.173c-.175-.766-.328-1.554-.481-2.32-.263-1.116-.482-1.663-.657-1.663a11.422,11.422,0,0,0-.525,1.882c.175.678.306,1.225.372,1.663a23.1,23.1,0,0,0-4.574,2.386,7.082,7.082,0,0,0-1.488,1.641,3.125,3.125,0,0,0-.656,1.641c0,.285.35.481,1.051.635a10.237,10.237,0,0,0,2.188.2,6.038,6.038,0,0,0,2.254-.263,6.606,6.606,0,0,0,1.313-1.16,11.919,11.919,0,0,0,.81-.9A7.445,7.445,0,0,0,1110.35,93a3.1,3.1,0,0,0,2.363,1.138v.022a1.016,1.016,0,0,0,.941-.525,5.546,5.546,0,0,0,.525-1.51,7.175,7.175,0,0,0,.241-1.729,2.545,2.545,0,0,0,2.5,1.312h.108a3.978,3.978,0,0,0,2.32-.766,3.925,3.925,0,0,0,1.007-.985c.131.153.285.328.416.481a4.045,4.045,0,0,0,1.226.832,5.382,5.382,0,0,0,2.21.438h.438a4.241,4.241,0,0,0,3.327-1.357,2.692,2.692,0,0,1,.635.306,5.609,5.609,0,0,0,1.422.656c-.241.569-.394.963-.46,1.16a1.855,1.855,0,0,0-.088.525c0,.131.022.2.088.2.109,0,.241-.175.416-.5.328-.613.547-1.007.656-1.16a8.962,8.962,0,0,0,2.123.175h7.681c2.429,0,4.158-.613,5.209-1.838a6.909,6.909,0,0,0,.657-1.313,4.849,4.849,0,0,0,.416-1.532,6.12,6.12,0,0,0-.569-2.232m-2.648.985a1.568,1.568,0,0,1-1.116-.525c-.285-.263-.438-.481-.438-.635a1.47,1.47,0,0,1,.394-.722c.284-.328.5-.481.656-.481.175,0,.481.285.919.832a6.267,6.267,0,0,1,.678,1.029,1.581,1.581,0,0,1-1.094.5m-36.569,4.88a9.919,9.919,0,0,1-1.554.087,18.55,18.55,0,0,1-1.992-.087c-.635-.066-.941-.153-.941-.241,0-.438.9-1.029,2.692-1.816a14.358,14.358,0,0,1,3.129-1.116l.547,2.276a5.03,5.03,0,0,1-1.882.9m31.82-2.1a6.3,6.3,0,0,1-2.626.919,19.541,19.541,0,0,1-3.48.35c-.372,0-.7-.022-.985-.044a23.327,23.327,0,0,1,2.6-2.123,3.954,3.954,0,0,1,2.254-.678,4.155,4.155,0,0,1,1.6.284c.722.306,1.094.569,1.094.766q0,.2-.459.525" transform="translate(-912.722 -61.681)" fill="#d8a73c"/>
    <path id="Path_1381" data-name="Path 1381" d="M1340.354,90.145a7.476,7.476,0,0,0-.635.766c-.372.481-.613.788-.7.941,1.05.766,1.6,1.138,1.619,1.138q.164,0,.722-.656c.394-.46.613-.766.613-.963,0-.109-.241-.35-.744-.7a2.787,2.787,0,0,0-.875-.525" transform="translate(-1109.746 -74.71)" fill="#d8a73c"/>
    <path id="Path_1382" data-name="Path 1382" d="M1275.936,112.128a7.436,7.436,0,0,0-.635.766c-.372.481-.613.788-.7.941,1.05.766,1.6,1.138,1.619,1.138q.164,0,.722-.656c.394-.46.613-.766.613-.963,0-.109-.241-.35-.744-.7a2.788,2.788,0,0,0-.875-.525" transform="translate(-1056.358 -92.929)" fill="#d8a73c"/>
    <path id="Path_1383" data-name="Path 1383" d="M1199.541,188.828a2.774,2.774,0,0,0-.9-.525,11.7,11.7,0,0,0-1.247,1.6c0-.022.022-.044.022-.066,0-.109-.241-.328-.744-.678a2.614,2.614,0,0,0-.875-.547,6.665,6.665,0,0,0-.635.788c-.372.481-.613.788-.7.919,1.051.766,1.6,1.16,1.62,1.16.087,0,.284-.175.613-.525a3.482,3.482,0,0,0,.656-.919c1.029.744,1.554,1.116,1.6,1.116.087,0,.328-.219.7-.635.416-.46.613-.788.613-.985,0-.109-.241-.328-.722-.7" transform="translate(-989.942 -156.061)" fill="#d8a73c"/>
    <path id="Path_1384" data-name="Path 1384" d="M1118.858,94.925a6.644,6.644,0,0,0-.634.788c-.372.481-.613.788-.7.919,1.051.766,1.6,1.16,1.62,1.16.087,0,.284-.175.613-.525a3.487,3.487,0,0,0,.657-.919c1.028.744,1.554,1.116,1.6,1.116.087,0,.328-.219.7-.635.416-.46.613-.788.613-.985,0-.109-.241-.328-.722-.7a2.774,2.774,0,0,0-.9-.525,11.692,11.692,0,0,0-1.247,1.6c0-.022.022-.044.022-.066,0-.109-.241-.328-.744-.678a2.612,2.612,0,0,0-.875-.547" transform="translate(-926.175 -78.418)" fill="#d8a73c"/>
    <path id="Path_1385" data-name="Path 1385" d="M1196.681,81.7c.066,0,.153-.066.263-.175a1.967,1.967,0,0,1,1.116-.635,3.71,3.71,0,0,1,.832.131c.35.087.525.153.525.219a3.588,3.588,0,0,1-.875.656l-.788.46c-.241.175-.35.306-.372.394.022.066.066.087.153.087a1.377,1.377,0,0,0,.438-.087,5.192,5.192,0,0,0,2.473-1.641,1.337,1.337,0,0,0,.175-.656.317.317,0,0,0-.175-.328,7.518,7.518,0,0,0-1.991-.394,1.682,1.682,0,0,0-.7.46,6.808,6.808,0,0,0-1.007,1.182.419.419,0,0,0-.109.263c0,.044,0,.066.044.066" transform="translate(-991.743 -66.077)" fill="#d8a73c"/>
    <path id="Path_1386" data-name="Path 1386" d="M1271.03,63.668c1.62-.766,2.539-1.2,2.779-1.291q.2-1.05.2-1.182c-.066,0-1.072.46-3.064,1.4-2.364,1.116-4.53,2.188-6.478,3.2q-2.725,1.379-5.318,2.889a22.97,22.97,0,0,0-2.495,1.488,4.377,4.377,0,0,0-.219.635,5.488,5.488,0,0,0-.131.591q2.79-1.707,8.776-4.793c1.816-.941,3.808-1.926,5.953-2.933" transform="translate(-1041.192 -50.717)" fill="#d8a73c"/>
    <path id="Path_1387" data-name="Path 1387" d="M1238.565,189.714c-.044.022-.088.175-.131.416a2.532,2.532,0,0,0-.088.591c0,.088.022.131.044.109,1.094-.569,2.145-1.138,3.151-1.663,1.247-.635,2.167-1.116,2.779-1.423a4.041,4.041,0,0,0,.175-1.072c-.066-.022-1.182.547-3.414,1.685-1.4.722-2.232,1.182-2.517,1.357" transform="translate(-1026.311 -154.709)" fill="#d8a73c"/>
    <path id="Path_1388" data-name="Path 1388" d="M1099.926,72.917a3.516,3.516,0,0,1,1.116.854,1.372,1.372,0,0,0,.525-.854c0-.175-.328-.5-.941-.963a3.1,3.1,0,0,0,.219-1.248,1.516,1.516,0,0,0-.241-.919c-.131-.2-.263-.284-.394-.284-.307,0-.657.241-1.029.722a2.206,2.206,0,0,0-.547,1.313,1.133,1.133,0,0,0,.7,1.072,13.312,13.312,0,0,1-1.269,1.007c-.81.591-1.466,1.072-1.991,1.379-.416.263-.613.416-.613.481,0,.022.044.044.109.044a3.373,3.373,0,0,0,.569-.109,7.327,7.327,0,0,0,1.882-.919,7.771,7.771,0,0,0,1.9-1.576m-.656-1.685a.523.523,0,0,1,.219-.394.569.569,0,0,1,.438-.219c.2,0,.285.175.285.547a1.324,1.324,0,0,1-.109.525c-.547-.219-.832-.372-.832-.46" transform="translate(-907.892 -57.602)" fill="#d8a73c"/>
    <path id="Path_1389" data-name="Path 1389" d="M1233.2,86.6a6.281,6.281,0,0,1,.2,1.488,4.094,4.094,0,0,0,.066.788c.088.022.175-.2.328-.656a5.629,5.629,0,0,0,.219-1.6,2.745,2.745,0,0,0-1.072-2.429,8.04,8.04,0,0,0-.7.832,3.251,3.251,0,0,1,.963,1.576" transform="translate(-1021.243 -69.78)" fill="#d8a73c"/>
    <path id="Path_1390" data-name="Path 1390" d="M850.967,78.322c-.088,0-.263.263-.482.766a4.606,4.606,0,0,0-.372,1.007c-.022.153.2,2.473.635,6.937.481,4.618.7,7.266.7,7.966a2.84,2.84,0,0,0,.744-1.335,4.821,4.821,0,0,0,.088-1.05q0-2.954-1.269-14.181c0-.066-.022-.109-.044-.109" transform="translate(-704.552 -64.911)" fill="#d8a73c"/>
    <path id="Path_1391" data-name="Path 1391" d="M700.211,68.309a1.206,1.206,0,0,0-.547-.219,1.532,1.532,0,0,1-.854-.635,4.6,4.6,0,0,1-.153-1.247,3,3,0,0,0-.109-1.05,6.341,6.341,0,0,0-.766,1.554,6.333,6.333,0,0,0-.525,1.6,2.228,2.228,0,0,0,.328.788,3.007,3.007,0,0,1,.35.722c.175.832.372,2.582.635,5.252.109,1.116.241,2.364.35,3.742a18.53,18.53,0,0,1,.2,2.3c-.131.285-.547.5-1.247.679a7.686,7.686,0,0,1-1.554.175h-.066v0l-.131,0a2.225,2.225,0,0,1-1.751-.525c1.05-.722,1.576-1.4,1.576-1.991,0-.744-.7-1.335-2.123-1.707a4.957,4.957,0,0,0-1.16-.153,3.806,3.806,0,0,0-2.057.481,4.512,4.512,0,0,0-1.094,1.072c-.394.482-.547.766-.5.854a.167.167,0,0,0,.109.044c.022,0,.109-.022.285-.044a2.1,2.1,0,0,1,.481-.066,2.383,2.383,0,0,1,.766.153,2.742,2.742,0,0,1,.831.547,1.241,1.241,0,0,1,.328.481,15.17,15.17,0,0,1-6.346.985c-.482,0-.832-.022-1.05-.044a2.989,2.989,0,0,1-2.232-1.006,5.64,5.64,0,0,1-.7-2.123c0-.065-.2-1.838-.547-5.318-.285-2.67-.525-4-.744-4-.263,0-.438.481-.547,1.422a55.245,55.245,0,0,1-.919,6.347,8.879,8.879,0,0,1-1.291,2.932,10.241,10.241,0,0,1-2.889,2.757,14.444,14.444,0,0,1-2.67,1.313c-.744.306-1.094.481-1.072.525.022.066.219.11.569.11a10.444,10.444,0,0,0,2.954-.5,6.01,6.01,0,0,0,2.954-1.816,15.394,15.394,0,0,0,2.1-4.377c.241-.81.482-1.663.678-2.582.2,3.3.525,5.427,1.007,6.434a2.9,2.9,0,0,0,1.291,1.4,7.029,7.029,0,0,0,2.057.46c.2.022.547.022,1.05.022a16.2,16.2,0,0,0,7.222-1.619,3.673,3.673,0,0,0,1.795,1.2,5.16,5.16,0,0,0,1.729.306h.109a3.336,3.336,0,0,0,2.167-.569,3.952,3.952,0,0,0,1.029-1.444,4.474,4.474,0,0,0,.482-1.948c0-.416-.131-1.948-.35-4.618-.263-2.933-.394-4.617-.416-5.055a6.112,6.112,0,0,0,.985-1.992" transform="translate(-555.94 -54.001)" fill="#d8a73c"/>
    <path id="Path_1392" data-name="Path 1392" d="M660.93,95.576a3.811,3.811,0,0,0,0,1.007,2.272,2.272,0,0,0,.656,1.072,2.161,2.161,0,0,0,1.532.656,1.669,1.669,0,0,0,.832-.2,9.986,9.986,0,0,1,3.283,3.633,7.685,7.685,0,0,1,1.007,2.648,3.014,3.014,0,0,0,.2.985c.044,0,.109-.175.219-.547a4.339,4.339,0,0,0,.131-1.16,7.459,7.459,0,0,0-.372-2.145A7.728,7.728,0,0,0,666.62,98.2a14.544,14.544,0,0,0-3.086-2.517,4.989,4.989,0,0,0-2.167-.875c-.219,0-.35.241-.438.766" transform="translate(-547.735 -78.576)" fill="#d8a73c"/>
    <path id="Path_1393" data-name="Path 1393" d="M568.9,113.438a6.761,6.761,0,0,0-.547-2.32c-.394-1.007-.766-1.532-1.116-1.532-.547,0-1.2.46-1.992,1.379a7.731,7.731,0,0,0-1.554,2.692c-.263.81-1.357,1.2-3.261,1.2h-.153a3.779,3.779,0,0,1-3.348-1.641,12.7,12.7,0,0,1-1.379-3.545c-.285-1.247-.547-2.495-.81-3.742-.241-1.007-.46-1.554-.657-1.663a16.108,16.108,0,0,0-.591,1.926,9.241,9.241,0,0,1,.438,1.619,24.39,24.39,0,0,0-4.574,2.386,7.545,7.545,0,0,0-1.488,1.641,3.19,3.19,0,0,0-.656,1.641c0,.285.35.5,1.05.635a10.1,10.1,0,0,0,2.189.2,6.119,6.119,0,0,0,2.254-.263,8.114,8.114,0,0,0,2.123-2.057,8.147,8.147,0,0,0,1.926,3.655,4.935,4.935,0,0,0,3.523,1.182h.175a3.637,3.637,0,0,0,1.707-.46,4,4,0,0,0,1.926-2.167,4.5,4.5,0,0,0,3.3,1.444,1.735,1.735,0,0,0,.569-.066c.131-.044.328-.328.569-.832a3.177,3.177,0,0,0,.372-1.313m-14.9-1.379a3.556,3.556,0,0,1-1.16.416,8.878,8.878,0,0,1-1.466.087,15.289,15.289,0,0,1-1.817-.087c-.547-.087-.831-.153-.831-.263,0-.416.831-1.029,2.495-1.794a13.439,13.439,0,0,1,2.955-1.138l.547,2.3a2.879,2.879,0,0,1-.722.481m13.525,1.816a3.361,3.361,0,0,1-1.379-.35,3.559,3.559,0,0,1-1.247-.919c.416-.766.9-1.16,1.466-1.16.241,0,.481.306.766.9a3.28,3.28,0,0,1,.416,1.357c0,.087-.022.131-.022.175" transform="translate(-453.514 -86.415)" fill="#d8a73c"/>
    <path id="Path_1394" data-name="Path 1394" d="M569.762,81.952a6.662,6.662,0,0,0-.635.788c-.372.481-.613.788-.7.919,1.05.766,1.6,1.16,1.619,1.16.088,0,.284-.175.613-.525a3.49,3.49,0,0,0,.657-.919c1.029.744,1.554,1.116,1.6,1.116.088,0,.328-.219.7-.635.416-.46.613-.788.613-.985,0-.109-.241-.328-.722-.7a2.774,2.774,0,0,0-.9-.525,11.7,11.7,0,0,0-1.247,1.6c0-.022.022-.044.022-.066,0-.109-.241-.328-.744-.678a2.613,2.613,0,0,0-.875-.547" transform="translate(-471.098 -67.666)" fill="#d8a73c"/>
    <path id="Path_1395" data-name="Path 1395" d="M752.631,48.714c1.62-.766,2.539-1.2,2.779-1.291q.2-1.05.2-1.182c-.066,0-1.072.46-3.064,1.4-2.364,1.116-4.53,2.188-6.478,3.2q-2.725,1.379-5.318,2.889a23.007,23.007,0,0,0-2.495,1.488,4.4,4.4,0,0,0-.219.635,5.453,5.453,0,0,0-.131.591q2.79-1.707,8.776-4.793c1.816-.941,3.808-1.926,5.952-2.933" transform="translate(-611.556 -38.323)" fill="#d8a73c"/>
    <path id="Path_1396" data-name="Path 1396" d="M678,58.832c1.094-.569,2.145-1.138,3.151-1.663,1.247-.635,2.167-1.116,2.779-1.422a4.043,4.043,0,0,0,.175-1.072c-.066-.022-1.182.547-3.414,1.685-1.4.722-2.232,1.182-2.517,1.357-.044.022-.088.175-.131.416a2.53,2.53,0,0,0-.088.591c0,.087.022.131.044.109" transform="translate(-561.876 -45.312)" fill="#d8a73c"/>
    <path id="Path_1397" data-name="Path 1397" d="M613.276,77.345c.109-.613.175-.963.175-1.072-.044-.022-.875.394-2.538,1.2-1.532.744-2.495,1.225-2.889,1.422-2.67,1.4-4.18,2.189-4.508,2.407-.131.066-.175.438-.2,1.094,1.795-.9,3.5-1.794,5.165-2.714,1.9-.941,3.5-1.707,4.793-2.342" transform="translate(-500.016 -63.213)" fill="#d8a73c"/>
    <path id="Path_1398" data-name="Path 1398" d="M695.232,74.106a1.4,1.4,0,0,1-1.182.547c-.088,0-.131-.066-.153-.241v-.656c0-.35-.066-.525-.175-.525-.066,0-.153.175-.219.547a3.077,3.077,0,0,1-.306.963.908.908,0,0,1-.854.46c-.241,0-.372-.153-.372-.5,0-.109.022-.241.044-.438a1.518,1.518,0,0,0,.044-.328c0-.066,0-.088-.022-.088-.088,0-.2.175-.372.5a2.381,2.381,0,0,0-.285.919,1.276,1.276,0,0,0,.241.81.606.606,0,0,0,.394.219,1.445,1.445,0,0,0,.875-.284c.175-.11.328-.241.481-.35a1.419,1.419,0,0,0,.438.066,1.757,1.757,0,0,0,1.247-.591,2.619,2.619,0,0,0,.525-.9,2.734,2.734,0,0,0,.153-.875,2.07,2.07,0,0,0-.088-.613c-.066-.2-.131-.306-.219-.306-.066.11-.219.394-.46.831a1.493,1.493,0,0,1,.263.832" transform="translate(-572.999 -60.039)" fill="#d8a73c"/>
    <path id="Path_1399" data-name="Path 1399" d="M547.249,60.458a7.331,7.331,0,0,0,1.882-.919,7.768,7.768,0,0,0,1.9-1.576,3.517,3.517,0,0,1,1.116.854,1.373,1.373,0,0,0,.525-.854c0-.175-.328-.5-.941-.963a3.1,3.1,0,0,0,.219-1.248,1.517,1.517,0,0,0-.241-.919c-.131-.2-.263-.285-.394-.285-.306,0-.656.241-1.029.722a2.206,2.206,0,0,0-.547,1.313,1.133,1.133,0,0,0,.7,1.072,13.364,13.364,0,0,1-1.269,1.006c-.81.591-1.466,1.072-1.991,1.379-.416.263-.613.416-.613.481,0,.022.044.044.109.044a3.373,3.373,0,0,0,.569-.109m3.129-4.18a.524.524,0,0,1,.219-.394.569.569,0,0,1,.438-.219c.2,0,.285.175.285.547a1.323,1.323,0,0,1-.109.525c-.547-.219-.832-.372-.832-.46" transform="translate(-452.984 -45.209)" fill="#d8a73c"/>
    <path id="Path_1400" data-name="Path 1400" d="M776.5,91.3a3.252,3.252,0,0,1,.963,1.576,6.29,6.29,0,0,1,.2,1.488,4.175,4.175,0,0,0,.066.788c.088.022.175-.2.328-.657a5.629,5.629,0,0,0,.219-1.6,2.745,2.745,0,0,0-1.073-2.429,8.071,8.071,0,0,0-.7.832" transform="translate(-643.547 -74.974)" fill="#d8a73c"/>
    <path id="Path_1401" data-name="Path 1401" d="M616.739,117.625a3.252,3.252,0,0,1,.963,1.576,6.3,6.3,0,0,1,.2,1.488,4.163,4.163,0,0,0,.066.788c.088.022.175-.2.328-.657a5.634,5.634,0,0,0,.219-1.6,2.745,2.745,0,0,0-1.072-2.429,8.048,8.048,0,0,0-.7.832" transform="translate(-511.138 -96.795)" fill="#d8a73c"/>
    <path id="Path_1402" data-name="Path 1402" d="M54.8,83.314a6.166,6.166,0,0,0,1.678,1.334,2.273,2.273,0,0,0,.435.219c.159.071.363.118.468-.023a4.651,4.651,0,0,0,1.009-2.067c.068-.53-.58-.882-1.085-1.152-.587-.314-.894-.7-.381-1.366a1.113,1.113,0,0,0,.312-.913.613.613,0,0,0-.288-.689,12.767,12.767,0,0,0-1.709-1.126c-.449-.187-.623-.05-.848.345-1,1.759-1.019,1.749.645,2.915.109.076.191.248.3.26.425.051.122.23.095.378-.124.674-1.053,1.2-.629,1.884" transform="translate(-44.506 -64.187)" fill="#d8a73c"/>
    <path id="Path_1403" data-name="Path 1403" d="M255.912,188.506c-.266.054-.491.206-.721-.026-.249-.251-.18-.54-.086-.838a4.015,4.015,0,0,1,1.129-1.907c.472-.4.412-.87.414-1.361,0-.153.051-.374-.193-.374a.415.415,0,0,0-.313.2,1.47,1.47,0,0,1-.617.753c-.194.1-.427.273-.7.043-.109-.092-.234-.158-.177-.285a.516.516,0,0,1,.553-.336c.256.026.413-.009.457-.351s.153-.624-.246-.879-.523.073-.708.247c-.7.658-1.24,2.349-.781,2.536,1.038.424.577,1.071.507,1.71a7.487,7.487,0,0,0,0,1.009.99.99,0,0,0,.795.977c1.132.309,3.071-.871,3.478-2.175-.532.216-.975.387-1.411.574a6.92,6.92,0,0,1-1.375.48" transform="translate(-210.305 -151.708)" fill="#d8a73c"/>
    <path id="Path_1404" data-name="Path 1404" d="M479.358,191.577a10.462,10.462,0,0,1-2.583,1.329.751.751,0,0,1-.755-.093c-.339-.269-.022-.476.047-.692a7.389,7.389,0,0,1,.4-.986,4.279,4.279,0,0,0,.611-2.235c-.029-.353-.149-.546-.517-.608a1.743,1.743,0,0,0-2.021,1.982,1.671,1.671,0,0,1,1.665-.5,20.775,20.775,0,0,0-.9,2.622c-.132.847.642,1.955,1.376,1.744a4.817,4.817,0,0,0,3.121-2.182c.108-.193.186-.4.037-.548-.208-.2-.33.068-.481.171" transform="translate(-393.273 -156.03)" fill="#d8a73c"/>
    <path id="Path_1405" data-name="Path 1405" d="M93.433,191.9a2.093,2.093,0,0,0-.83.768,6.442,6.442,0,0,1-3.67,2.585c-1.2.443-2.382.929-3.572,1.4l.068.253c2.813-.309,5.651-.561,7.305-3.428.426.429.945,1.008,1.514.7.607-.326.415-1.138.347-1.74-.079-.7-.619-.8-1.162-.535" transform="translate(-70.745 -158.926)" fill="#d8a73c"/>
    <path id="Path_1406" data-name="Path 1406" d="M63.631,186.6a.216.216,0,0,0-.317.11c-.214.394-.487.949-.969.748s-.207-.841-.24-1.287a2.188,2.188,0,0,1,.1-.879c.277-.832.46-1.694.68-2.545a7.06,7.06,0,0,0-1.565,5.64,1.017,1.017,0,0,0,.822.777.919.919,0,0,0,.857-.4,6.13,6.13,0,0,0,.706-1.9.3.3,0,0,0-.074-.272" transform="translate(-50.772 -151.461)" fill="#d8a73c"/>
    <path id="Path_1407" data-name="Path 1407" d="M373.058,195.464c-.8-.021-1.046.571-1.256,1.136-.092.248-.339.939.485.528.186-.093.517-.143.638.091a.71.71,0,0,1-.052.674,7.5,7.5,0,0,1-1.237,1.646c-.251.231-.652.428-.457.9a5.866,5.866,0,0,0,2.616-2.782,2.649,2.649,0,0,0,.146-1.557c-.046-.409-.406-.625-.882-.637" transform="translate(-307.581 -161.996)" fill="#d8a73c"/>
    <path id="Path_1408" data-name="Path 1408" d="M71.993,5.372c.614.866.341,1.849.519,3,.924-1.771.542-4.346-.695-5.349-.256-.208-.67-.6-1.037-.16a.83.83,0,0,0,.051,1.168,13.833,13.833,0,0,1,1.162,1.343" transform="translate(-58.481 -2.206)" fill="#d8a73c"/>
    <path id="Path_1409" data-name="Path 1409" d="M186.042,8.084c.184,1.608.271,3.257.322,4.894.031.986.046,2,.165,2.983.423,3.5.556,7.013.757,10.521a20.118,20.118,0,0,1-.158,5.6c-.058.258-.061.589.235.7.209.079.289-.166.375-.35a15.1,15.1,0,0,0,1.347-7.575c-.107-1.48-.158-2.975-.293-4.459s-.244-2.992-.309-4.492a23.723,23.723,0,0,0-.174-2.881c-.365-2.179-.217-4.392-.588-6.633.557.255.769.832,1.511,1.059-.4-2.663-1.577-4.876-2.6-7.45-.573,1.274-1.409,2.315-1.055,3.365.528,1.572.286,3.156.464,4.718" transform="translate(-153.732 -0.001)" fill="#d8a73c"/>
    <path id="Path_1410" data-name="Path 1410" d="M42.069,15.648a1.356,1.356,0,0,0,.234-.085c3.623-1.988,7.2-4.062,10.88-5.944,3.646-1.865,7.276-3.778,11.082-5.314.817-.329,1.481-.756,1.517-1.738.013-.365.2-.883-.567-.492-1.126.571-2.339.972-3.462,1.548-3.214,1.648-6.549,3.047-9.7,4.82-2.438,1.371-4.961,2.593-7.368,4.015-1.2.71-2.919,1.125-2.614,3.189" transform="translate(-34.836 -1.605)" fill="#d8a73c"/>
    <path id="Path_1411" data-name="Path 1411" d="M331.167,15.022c.016.19-.416.377-.04.566.173.087.355-.044.541-.155,3.183-1.908,6.473-3.62,9.753-5.355,3.913-2.071,7.855-4.075,11.928-5.808a2.031,2.031,0,0,0,1.478-2.1c.021-.386-.125-.331-.456-.173-1.2.575-2.44,1.062-3.636,1.643-6.093,2.957-12.16,5.967-18.023,9.364-.767.444-1.642.873-1.545,2.016" transform="translate(-274.302 -1.557)" fill="#d8a73c"/>
    <path id="Path_1412" data-name="Path 1412" d="M235.309,12.86a2.315,2.315,0,0,0,.355-.12c4.511-2.606,9.126-5.015,13.8-7.309,1.663-.816,3.332-1.621,5.019-2.387.726-.33.491-.972.36-1.357-.171-.5-.613-.029-.893.091-.924.4-1.833.832-2.735,1.279-5.049,2.5-10.119,4.95-14.956,7.85a1.724,1.724,0,0,0-.951,1.954" transform="translate(-194.992 -1.212)" fill="#d8a73c"/>
    <path id="Path_1413" data-name="Path 1413" d="M223.3,3.315c.635-.315.645-.958.568-1.607-3.586,1.5-6.918,3.385-10.347,5.073a1.5,1.5,0,0,0-.856,2.006c3.506-1.9,7.061-3.7,10.635-5.473" transform="translate(-176.163 -1.416)" fill="#d8a73c"/>
    <path id="Path_1414" data-name="Path 1414" d="M213.832,79.829c.832.356,1.335-.337,1.851-.853.034-.034.1-.033.156-.048.6.857,1.32.993,1.79.274a2.764,2.764,0,0,0,.514-1.457c.035-1.211-.821-2.12-.9-3.46A2.363,2.363,0,0,0,217,77.039c.13.291.43.561.264.9-.049.1-.373.125-.554.092-.442-.081-.342-.47-.431-.785-.249-.879-.107-1.881-.8-2.7a1.791,1.791,0,0,0-.283,1.882,2.617,2.617,0,0,1,.075,1.086.931.931,0,0,1-.795.886c-.439,0-.652-.461-.615-.962a7.583,7.583,0,0,0,0-1.311c-.03-.3.226-.69-.186-.889-.2-.095-.367.042-.526.192-.3.283-.6.553-.48,1.022a1.252,1.252,0,0,0,.19.346,1.671,1.671,0,0,1,.2,1.049c-.034.779-.07,1.626.772,1.986" transform="translate(-176.229 -61.566)" fill="#d8a73c"/>
    <path id="Path_1415" data-name="Path 1415" d="M400.471,57.261a2.6,2.6,0,0,0,.32-2.348,16.092,16.092,0,0,1-.86-2.372,2.574,2.574,0,0,0-.021,2.871c.123.224.354.456.1.7-.092.09-.32.077-.478.056-.314-.042-.406-.26-.449-.565-.108-.775-.278-1.541-.387-2.315-.038-.266-.137-.5-.374-.52-.347-.028-.365.368-.411.567-.071.308.2,1.915.144,2.362a.9.9,0,0,1-.839.833c-.365-.028-.6-.445-.563-.923.043-.6.007-1.212.012-1.818,0-.251-.017-.552-.35-.425-.513.195-.553,2.556-.442,3.257.084.527.144,1.179.792,1.36a1.248,1.248,0,0,0,1.534-.642c.267-.532.3-.239.6-.022.507.363,1.255.616,1.67-.057" transform="translate(-328.05 -43.545)" fill="#d8a73c"/>
    <path id="Path_1416" data-name="Path 1416" d="M104.695,83.036a23.058,23.058,0,0,0-.87,2.937,4.81,4.81,0,0,0-1.258-2.722c-.38-.349-.87-.766-1.29-.5a1.491,1.491,0,0,0-.76,1.383,1.164,1.164,0,0,0,1.178.988c.341.015.676-.018.817.4a11.962,11.962,0,0,1,.8,2.282c.039.307.01.684.356.731.385.053.311-.418.473-.634a1.36,1.36,0,0,0,.207-.54,12.509,12.509,0,0,1,.908-3.263c.147-.273.227-.567.6-.193.192.191.454.731.749.221.205-.354.609-.785.166-1.328-.819-1-1.487-.934-2.076.241" transform="translate(-83.295 -68.039)" fill="#d8a73c"/>
    <path id="Path_1417" data-name="Path 1417" d="M326.874,141.709c-.733.951-.693,2.119-1.016,3.2a2.689,2.689,0,0,1-.334-.792,3.377,3.377,0,0,0-1.158-1.994c-.337-.237-.842-.62-1.233-.246s-.828.852-.6,1.473c.143.393.476.913.9.791.914-.262,1.043.419,1.227.917a7.1,7.1,0,0,1,.708,2.65,1.771,1.771,0,0,0,.985-1.523,10.3,10.3,0,0,1,.766-2.906c.269-.486.458-.819.844-.146.24.418.561.309.679.038a1.362,1.362,0,0,0-.33-1.788c-.609-.468-1.017-.223-1.44.326" transform="translate(-267.255 -116.969)" fill="#d8a73c"/>
    <path id="Path_1418" data-name="Path 1418" d="M357.849,4.583c1.022-.216,1.05.579,1.318,1.109.217.428.268.945.513,1.351.194.322-.112.986.427.952.415-.026.4-.7.652-1.032.068-.089.011-.264.041-.392.2-.852.375-1.708.611-2.549.168-.6.428-1.134,1.1-.385.125.138.284.357.47.1a1.431,1.431,0,0,0,.2-1.327,1.135,1.135,0,0,0-.94-.79.943.943,0,0,0-1,.51,13.14,13.14,0,0,0-.944,3.157c-.479-.994-.659-2-1.451-2.658-.36-.3-.8-.6-1.252-.3a1.452,1.452,0,0,0-.65,1.369.941.941,0,0,0,.9.892" transform="translate(-295.824 -1.334)" fill="#d8a73c"/>
    <path id="Path_1419" data-name="Path 1419" d="M145.739,30.713a3.944,3.944,0,0,0-.811,1.42,6.868,6.868,0,0,0-.615,4.56.669.669,0,0,0,.752.594c1.015.024,1.617-.993,1.379-2.516-.449.356-.587,1.109-1.082.941-.679-.231-.367-.976-.411-1.515-.01-.122.08-.249.1-.377a15.073,15.073,0,0,0,.687-3.107" transform="translate(-119.451 -25.454)" fill="#d8a73c"/>
    <path id="Path_1420" data-name="Path 1420" d="M405.591,87.394c.083-.443.5-.9.149-1.448a8.909,8.909,0,0,0-1.492,5.319c.021.445.126.933.569,1.058.376.107.9.226,1.2-.222a2.619,2.619,0,0,0,.519-2.394,6.438,6.438,0,0,0-.416.7c-.114.293-.239.6-.61.521s-.447-.454-.444-.766a3.383,3.383,0,0,1,.1-1.287,8.407,8.407,0,0,0,.426-1.486" transform="translate(-335.023 -71.23)" fill="#d8a73c"/>
    <path id="Path_1421" data-name="Path 1421" d="M87.43,62.859c-4.475.151-8.942-.212-13.414-.2H72.848a3.033,3.033,0,0,1,.864-.824,64.151,64.151,0,0,1,6.01-3.034c.428-.192.63-.162.783.27.086.244.185.611.49.508a.707.707,0,0,0,.37-.725c-.065-.584.184-.813.757-.933.855-.179,1.688-.472,2.524-.736.92-.29,1.908-2.5,1.343-3.277a7.366,7.366,0,0,0-5.152-3.2c-1.568-.2-2.6,1.257-2.711,2.638a4.613,4.613,0,0,0,.924,2.933,29.5,29.5,0,0,0-7.235,4.068,8.475,8.475,0,0,0-3.394,4.067c-.307.937-.237,1.082.772,1.079,2.822-.009,5.629.217,8.541.434-2.887,1.443-6.635,1.628-7.189,5.8a4.51,4.51,0,0,1-1.137-1.393A19.305,19.305,0,0,1,67.82,64.62c-.639-3.159-1.028-6.376-2.243-9.4a13.442,13.442,0,0,0-2.944-4.92c-.091,1.468-.869,2.609-.276,3.918A35.959,35.959,0,0,1,65.3,62.348c.3,1.6.93,3.144-.554,4.787A20.329,20.329,0,0,1,55.035,73.5c-2.77.773-4.216-.262-4.026-2.859a3.6,3.6,0,0,1,.2-.851,13.04,13.04,0,0,1,2-4.538,2.539,2.539,0,0,0,.547-2.29,3.549,3.549,0,0,0-.478.591c-.136.3-.28.7-.627.6a.764.764,0,0,1-.435-.915,4.267,4.267,0,0,1,.016-.7c.314-.946.121-2.144,1.294-2.674a34,34,0,0,1,4.1-1.8,4.232,4.232,0,0,0,2.717-2.543c.151-.32.328-.658.061-.9-.206-.183-.533-.018-.824.118-1.384.645-2.793,1.237-4.191,1.853A10.669,10.669,0,0,1,52.145,57.6c-2.909.289-5.474-2.148-6.541-4.287-.367-.735-.148-1.125.558-1.529,1.795-1.026,3.842-.962,5.756-1.458A7.844,7.844,0,0,0,57.215,46c.113-.227.2-.578-.08-.717a.587.587,0,0,0-.736.142c-.124.157-.287.283-.426.428a5.75,5.75,0,0,1-3.362,1.655,31,31,0,0,0-4.692.959c-3.892,1.309-4.8,5.462-3.03,8.631a9.063,9.063,0,0,0,2.59,2.578c-.925.348-3.194,1.312-3.439,1.3-.508-.027-.8-.506-1.149-1.093-.632-1.071-1.323-2.182-2.764-2.281a3.851,3.851,0,0,0-3.7,3.656c-.053,1.279-.126,2.588,1.41,3.086a6.209,6.209,0,0,0,3.514.2c.379-.1.886-.251,1.109.084a1.118,1.118,0,0,1-.225,1.211,11.212,11.212,0,0,1-1.589,1.783,33.371,33.371,0,0,1-4.505,3.524c-2.143,1.255-4.23,2.6-6.925,2.046a3.973,3.973,0,0,1-2.928-2.922c-.34-1.582.236-3.033.44-4.537.053-.393.27-.572.7-.281a7.793,7.793,0,0,0,2.483.819c1.187.313,1.863-.128,2.271-1.315a7.916,7.916,0,0,0,.13-4.67c-.579-2.2-2.245-3.008-3.976-1.86a8.074,8.074,0,0,0-2.835,3.4c-.734,1.594-1.49,3.076-3.284,3.828a5.156,5.156,0,0,1-5.727-.961,14.954,14.954,0,0,1-1.5-2.185,2.059,2.059,0,0,0-3.192-.642A9.424,9.424,0,0,0,8.7,65.641c-.921,1.75-1.487,3.676-2.64,5.312a1.673,1.673,0,0,1-2.215.621c-1.129-.467-1.367-1.511-1.617-2.5a19.585,19.585,0,0,1-.2-5.9c.027-.515-.031-1.188.518-1.505,1.9-1.1,1.953-2.934,1.93-4.836-.311.517-.589,1.057-.939,1.546-.581.811-1.6.794-1.874-.068a5.129,5.129,0,0,1-.187-2.538,38.681,38.681,0,0,1,1.678-6.106c.074-.2.136-.431-.048-.531-.216-.117-.385.11-.47.279-.363.728-.7,1.469-1.046,2.206A15.214,15.214,0,0,0,.024,59.046c.059.988.024,2.245,1.423,2.618.251.067.181.329.113.505a14.841,14.841,0,0,0-.573,5.206,9.949,9.949,0,0,0,1.781,5.9,2.268,2.268,0,0,0,3.762.191,18.983,18.983,0,0,0,2.156-4.253A11.01,11.01,0,0,1,11.29,65.2c1.181-1.033,1.917-.978,2.779.3a7.645,7.645,0,0,1,.66,1.086c1.49,3.3,5.651,3.294,7.685,1.889a9.235,9.235,0,0,0,3.158-4.157c.654.474.691.5.518.97a14.9,14.9,0,0,0-.779,6.449c.177,2.1,1.1,4.019,3.473,4.572a6.943,6.943,0,0,0,4.744-.555,26.7,26.7,0,0,0,5.2-3.512c2.505-2.106,4.634-4.4,5.173-7.774a.818.818,0,0,1,.6-.688c1.576-.69,3.146-1.394,4.729-2.069.9-.383,1.814-.722,2.774-1.1-.4,1.788-1.225,3.445-.053,5.114.135.192,0,.291-.091.431a12.238,12.238,0,0,0-1.637,7.782A3.018,3.018,0,0,0,53.64,76.8a12.159,12.159,0,0,0,4.469-1.312,22.9,22.9,0,0,0,4.9-3.437c1.553-1.442,3.009-2.9,3.541-5.346a19.189,19.189,0,0,0,.442,3.271,7.788,7.788,0,0,0,4.688,6.061,16.617,16.617,0,0,0,4.177,1.287c1.25.214,1.574.068,1.662-1.178.026-.369-.032-.746.013-1.112.058-.46-.16-.547-.553-.723a29.323,29.323,0,0,1-4.238-1.958c-.331-.216-.838-.415-.744-.8.071-.292.54-.554.886-.7a87.35,87.35,0,0,1,13.893-4.764c.429-.1.873-.236.907-.878a4.222,4.222,0,0,1,.436-1.282c.288-.7.143-1.094-.692-1.066m-7.4-9.189a8.134,8.134,0,0,1,2.7,1.214c-.285.1-.567.18-.833.3-1.423.623-2,.348-2.331-1.16-.084-.378-.051-.509.459-.351M39.187,61.646a2.26,2.26,0,0,1-.61-.162c-.294-.137-.575-.234-.52-.6a.377.377,0,0,1,.023-.082.525.525,0,0,1,.165-.213,1.642,1.642,0,0,1,.676-.278c.977-.179,1.366.544,1.993,1.357a8.446,8.446,0,0,1-1.727-.018m-11.369-.364a2.257,2.257,0,0,1,.545-.221,1.272,1.272,0,0,1,1.014.14,2.165,2.165,0,0,1,1.1,1.615c-.061.105-.181.325-.443.211-.768-.335-1.536-.676-2.275-1.068-.383-.2-.268-.492.064-.677" transform="translate(0 -37.475)" fill="#d8a73c"/>
    <path id="Path_1422" data-name="Path 1422" d="M443.789,10.847c-2,1.982-4.638,2.978-6.9,4.642a.96.96,0,0,0,.935.05,14.79,14.79,0,0,0,6.347-3.731c.222-.241.478-.615.824-.334.381.31.542.428.853-.1.3-.5.445-1.005-.032-1.313-.564-.365-.522-.4-.358-.755a4.118,4.118,0,0,0,.207-1.607c-.059-.788-.633-1.082-1.354-.756-1.986.9-2.182,2.377-.521,3.9m.428-2.476c.541.123.472.524.417.938-.4-.123-.81-.242-.89-.7-.021-.123.246-.29.473-.239" transform="translate(-362.082 -5.649)" fill="#d8a73c"/>
    <path id="Path_1423" data-name="Path 1423" d="M20.906,3.672c.477-.187.443.144.508.291.247.563.535,1.107.767,1.679a1.69,1.69,0,0,1-.056,1.591,6.133,6.133,0,0,0-.508,1.89c.114-.032.482-.68.772-.776a.935.935,0,0,1,.744.359c-.077.035-1.232.337-1.581.889A10.247,10.247,0,0,1,21.3,10.92a.87.87,0,0,0,.038.392,25.579,25.579,0,0,1,.976,7.023c-.01.189-.146.495.23.548.054-.045.137-.079.148-.129a14.31,14.31,0,0,0-.267-6.484C22,10.457,21.954,10.5,23.835,9.912c.3-.1.737.06.992-.454.511-1.028.408-1.562-.673-2.305-.319-.22-1.214-.453-1.115-.862.284-1.165.805-2.307,1.14-3.459.1-.332.408-.74.834-.168.18.242.485.443.723.076a1.317,1.317,0,0,0,.09-1.307,1.042,1.042,0,0,0-.956-.718,1.073,1.073,0,0,0-.984.664,13.94,13.94,0,0,0-.936,2.9,4.69,4.69,0,0,0-1.485-2.514c-.352-.254-.717-.739-1.194-.332-.391.334-.819.778-.6,1.373.2.547.605,1.114,1.238.865" transform="translate(-16.253 -0.593)" fill="#d8a73c"/>
  </g>
</svg>
