<svg xmlns="http://www.w3.org/2000/svg" xmlns:xlink="http://www.w3.org/1999/xlink" width="222"
  height="158" viewBox="0 0 222 158">
  <defs>
    <clipPath id="clip-path">
      <rect width="1374" height="180.732" fill="none" />
    </clipPath>
    <clipPath id="clip-path-2">
      <rect id="Rectangle_56" data-name="Rectangle 56" width="222" height="158.09" fill="#a4a4a4" />
    </clipPath>
  </defs>
  <g id="Repeat_Grid_2" data-name="Repeat Grid 2" clip-path="url(#clip-path)">
    <g id="Group_80" data-name="Group 80">
      <g id="Group_79" data-name="Group 79" clip-path="url(#clip-path-2)">
        <path id="Path_263" data-name="Path 263"
          d="M499.45,370.767c-.5-4.25-2.261-10.534-5.29-18.989-2.939-8.093-4.431-12.026-4.431-11.755a23.038,23.038,0,0,1,1.176-6.1c.136-.452.452-.452.9,0a35.014,35.014,0,0,1,4.159,7.279,66.154,66.154,0,0,1,4.883,13.88c.995,5.38,1.989,10.715,3.029,16.05a38.165,38.165,0,0,0,4.928,12.524,17.238,17.238,0,0,0,9.042,7.415c0-5.516,1.447-9.178,4.34-10.941a90.6,90.6,0,0,1,12.8-5.742H507.452a2.316,2.316,0,0,1-1.4-.271c-.226-.181-.317-.588-.226-1.311a14.39,14.39,0,0,1,2.894-7.731q6.985-8.749,22.741-16.548c-.452-.769-1.085-2.035-1.9-3.753a6.575,6.575,0,0,1-.588-3.029,7.644,7.644,0,0,1,1.447-4.793,5.814,5.814,0,0,1,5.064-2.4c1.763,0,4.3,1.13,7.6,3.346,3.481,2.4,5.244,4.34,5.244,5.923a42.627,42.627,0,0,1-1.854,5.878c-2.8.814-6.194,1.854-10.173,3.074.181,2.306-.045,3.481-.633,3.481-.452,0-.9-.859-1.4-2.577a72.037,72.037,0,0,0-11.574,6.1,53.735,53.735,0,0,0-9.72,7.37c2.622.181,6.42.317,11.439.317,6.013,0,13.609-.181,22.742-.452,9.133-.317,13.247-.452,12.433-.452.5,0,.769.045.859.181s0,.452-.181.995l-1.808,4.476a1.674,1.674,0,0,1-1.175,1.085q-37.232,11.868-37.21,14.6,0,2.306,11.393,7.46a.9.9,0,0,1,.5,1.085l-.5,4.883a.929.929,0,0,1-1.04.814,28.651,28.651,0,0,1-8.907-1.808,29.972,29.972,0,0,1-11.891-6.827,25.773,25.773,0,0,1-6.194-9.992,84.954,84.954,0,0,1-2.713-11.8,24.075,24.075,0,0,1-.181,2.713,9.453,9.453,0,0,1-1.085,3.979A59.017,59.017,0,0,1,485.3,392.966c-6.1,4.566-11.348,6.872-15.643,6.872a6.391,6.391,0,0,1-5.832-3.255,11.874,11.874,0,0,1-1.673-6.556,41.478,41.478,0,0,1,3.21-15.734c.5-1.13.859-1.673,1.04-1.673.09.045.136.181.136.362a8.644,8.644,0,0,1-.271,1.673c-1.537,5.29-2.261,9.223-2.261,11.755a5.777,5.777,0,0,0,1.9,4.657,6.37,6.37,0,0,0,4.2,1.4c4.657,0,10.67-2.984,17.994-8.862,6.872-5.471,10.67-9.766,11.348-12.84M540.5,345c0-.588-1.13-1.356-3.391-2.351-2.306-.995-3.979-1.4-5.064-1.176-.407.09-.543.271-.452.5.407,1.04,1.22,2.8,2.532,5.335A46.656,46.656,0,0,0,540.5,345"
          transform="translate(-339.311 -244.915)" fill="#a4a4a4" />
        <path id="Path_264" data-name="Path 264"
          d="M408.77,340.314c.452-.181,3.753-1.492,9.856-3.934-6.194-3.346-9.269-8.138-9.269-14.332a12.965,12.965,0,0,1,4.3-10.127,18.233,18.233,0,0,1,8.726-4.024c3.12-.5,6.194-1.04,9.314-1.537,3.3-.724,5.742-2.035,7.189-3.933.9-1.13,1.673-1.718,2.261-1.718.407,0,.588.271.588.769a2.858,2.858,0,0,1-.226.95,16.881,16.881,0,0,1-4.2,5.742,19.761,19.761,0,0,1-6.194,3.978,67.22,67.22,0,0,1-10.986,2.4q-5.629.949-8,3.8c.362,2.532,1.9,5.2,4.657,8.048a16.188,16.188,0,0,0,11.846,5.244c1.9,0,4.7-.769,8.319-2.306l11.529-5.154c1.04-.452,1.582-.452,1.582.045a2.371,2.371,0,0,1-.407,1.04L447.2,329.6a2.215,2.215,0,0,1-1.266,1.13c-11.484,5.109-23.872,10.489-37.164,16.231Z"
          transform="translate(-300.12 -220.78)" fill="#a4a4a4" />
        <path id="Path_265" data-name="Path 265"
          d="M278.05,434.594a6.659,6.659,0,0,0-.452-2.441,20.035,20.035,0,0,1-6.239.769c-5.787,0-8.635-1.99-8.635-5.968a12.253,12.253,0,0,1,2.849-8.048c1.808-2.17,3.707-3.21,5.742-3.21,1.492,0,3.165.949,4.928,2.848a27.369,27.369,0,0,1,4.2,6.375c.09.045.362-.045.814-.181v6.6l-.271.136a18.249,18.249,0,0,1-1.04,5.335,19.378,19.378,0,0,1-3.707,6.917,78.316,78.316,0,0,1-11.981,11.3c-6.465,4.883-12.072,7.324-16.864,7.324a11.013,11.013,0,0,1-9.359-4.521,15.672,15.672,0,0,1-2.939-9.856,41.209,41.209,0,0,1,3.21-15.643c.5-1.176.859-1.763,1.04-1.763.09.045.136.136.136.361a7.736,7.736,0,0,1-.271,1.673c-1.537,5.29-2.261,9.314-2.261,12.072a11.019,11.019,0,0,0,1.9,6.465c1.854,2.532,4.883,3.843,9.042,3.843,3.617,0,8-1.582,13.112-4.657a65.986,65.986,0,0,0,11.891-9.178c3.436-3.3,5.154-5.471,5.154-6.556m-3.617-8.907c-1.763-2.261-3.346-3.346-4.838-3.346-2.17,0-3.21.543-3.21,1.673,0,1.4,1.492,2.125,4.476,2.125a17.929,17.929,0,0,0,3.572-.452"
          transform="translate(-172.61 -305.204)" fill="#a4a4a4" />
        <path id="Path_266" data-name="Path 266"
          d="M292.742,229.075a13.71,13.71,0,0,0-1.085-5.832q0-1.289,2.034-6.1c.181-.407.317-.588.452-.588s.317.226.5.633q.61,1.221,2.713,6.917c1.537,3.934,2.4,6.33,2.622,7.234a5.664,5.664,0,0,1,.317,1.537c0,1.085-1.04.452-3.12-1.944-.271-.317-.407-.181-.407.452q0,.339,1.627,22.651t1.628,25.092a40.032,40.032,0,0,1-2.622,15.1c-.362.859-.633,1.492-.859,1.9-.361.588-.542.678-.633.271a12.593,12.593,0,0,1,.09-2.8,60.7,60.7,0,0,0,.362-6.872c0-2.351-.633-12.026-1.808-29.071q-1.831-25.5-1.809-28.574"
          transform="translate(-214.135 -158.992)" fill="#a4a4a4" />
        <path id="Path_267" data-name="Path 267"
          d="M202.639,409.859a6.5,6.5,0,0,0-1.854-2.848,4.032,4.032,0,0,0-2.622-1.176,5.683,5.683,0,0,0-3.12.769,1.638,1.638,0,0,0-.814,1.266,23.313,23.313,0,0,0,7.144,3.436,3.968,3.968,0,0,0,.9.136c.362,0,.5-.181.5-.588a5.069,5.069,0,0,0-.136-.995m4.657-.09a16.2,16.2,0,0,1-1.176,6.375c-.723,1.854-1.582,2.758-2.441,2.758-4.521,0-9.042-1.763-13.564-5.244a24.327,24.327,0,0,1-5.877,9c-2.668,2.487-5.425,3.753-8.364,3.753v-7.37a17.058,17.058,0,0,0,6.511-1.4,10.282,10.282,0,0,0,5.516-4.657c.316-.542,1.085-2.17,2.4-4.973.588-1.356,1.13-2.034,1.582-2.125a18.175,18.175,0,0,1,3.255-4.341c1.944-1.989,3.843-2.939,5.652-2.939,2.261,0,3.978,1.4,5.154,4.159a17.3,17.3,0,0,1,1.356,7.008"
          transform="translate(-129.126 -292.654)" fill="#a4a4a4" />
        <path id="Path_268" data-name="Path 268"
          d="M47.239,449.885a24.23,24.23,0,0,1-5.38-.452,10.6,10.6,0,0,1-5.878-4.657c-.995-1.628-1.944-3.255-2.939-4.928-.9-1.356-1.763-2.034-2.668-2.034-2.758,0-5.651,2.306-8.681,6.963a55.439,55.439,0,0,0-2.893,6.51,45.332,45.332,0,0,1-3.662,7.641c-1.628,2.4-3.346,3.617-5.154,3.617-2.667,0-4.973-2.125-6.827-6.375A27.971,27.971,0,0,1,.671,444.55a36.977,36.977,0,0,1,1.447-11.619c.317-1.04.588-1.537.814-1.537.271,0,.362.633.226,1.9a60.879,60.879,0,0,0-.588,7.867c0,10.263,2.351,15.417,7.1,15.417,1.944,0,3.707-1.537,5.335-4.521,1.628-3.572,3.255-7.144,4.928-10.761a26.655,26.655,0,0,1,5.425-7.55c2.125-2.125,4.069-3.165,5.832-3.165,1.311,0,2.532.814,3.662,2.487.949,1.537,1.9,3.029,2.8,4.566a11.92,11.92,0,0,0,4.114,3.843,12.546,12.546,0,0,0,5.471,1.04Z"
          transform="translate(-0.493 -316.133)" fill="#a4a4a4" />
        <path id="Path_269" data-name="Path 269"
          d="M85.693,352.432l1.854-3.888c.181-.271.317-.407.5-.407a14.007,14.007,0,0,1,3.165,1.9c1.854,1.266,2.8,2.034,2.8,2.261,0,.814-.814,2.577-2.487,5.2-.181.317-.407.407-.588.271-1.627-1.176-3.481-2.442-5.516-3.8a36.044,36.044,0,0,1-1.989,3.979c-.226.317-.407.407-.633.271-1.854-1.4-3.753-2.758-5.7-3.979-.09-.045-.09-.226,0-.452L79.454,349c.136-.316.271-.452.452-.452a12.852,12.852,0,0,1,2.713,1.583,24.629,24.629,0,0,1,3.074,2.306"
          transform="translate(-56.559 -255.603)" fill="#a4a4a4" />
        <path id="Path_270" data-name="Path 270"
          d="M615.553,358.664c1.356,0,2.622.814,3.707,2.441a16.487,16.487,0,0,1,2.306,6.375,2.637,2.637,0,0,1,.045.452q.068.136.136,0c0-.045.09-.181.181-.452a58.025,58.025,0,0,1,1.583-7.008c.949-2.261,1.989-3.346,3.074-3.346a2.137,2.137,0,0,1,1.673,1.13,3.186,3.186,0,0,1,.769,1.628,4.255,4.255,0,0,1-.271,1.266c-.226.678-.5,1.04-.769,1.04q-.2,0-.814-.814a1.634,1.634,0,0,0-1.266-.769c-.995,0-1.9,2.306-2.758,6.917a15.357,15.357,0,0,1-1.221,4.25c-.317.543-.542.859-.769.859s-.316-.271-.316-.814a16.319,16.319,0,0,0-1.4-4.7c-.9-2.351-1.582-3.481-1.989-3.481-.271,0-.452.045-.5.226q-.135.271-.678.271a2.832,2.832,0,0,1-1.628-.949c-.678-.588-.995-1.085-.995-1.447a6.569,6.569,0,0,1,.814-1.673c.588-.949.95-1.4,1.085-1.4"
          transform="translate(-450.546 -262.203)" fill="#a4a4a4" />
        <path id="Path_271" data-name="Path 271"
          d="M617.086,300.443a8.234,8.234,0,0,1-.633,2.984c-.588,1.311-1.311,1.989-2.215,1.989-1.4,0-2.4-.995-2.984-2.893-.633,2.441-1.854,3.707-3.617,3.707a2.248,2.248,0,0,1-1.764-.995,5.518,5.518,0,0,1-.814-3.119v-3.029c0-.226-.181-.407-.5-.5-.362-.09-.5-.362-.5-.769a2.947,2.947,0,0,1,.814-1.944c.543-.588.9-.859,1.175-.859.362,0,.543.678.543,1.99a8.737,8.737,0,0,1-.181,1.718,6.279,6.279,0,0,0-.136,1.221,5.116,5.116,0,0,0,.407,2.034c.362.769.814,1.176,1.311,1.176a2.517,2.517,0,0,0,1.854-.9,3.02,3.02,0,0,0,.9-2.125,10.215,10.215,0,0,0-.452-2.4,13.3,13.3,0,0,1-.407-2.08,3.578,3.578,0,0,1,.362-1.176c.272-.5.452-.769.543-.769.226,0,.543.724.9,2.215a16,16,0,0,1,.542,3.3c0,2.08.769,3.12,2.351,3.12a1.268,1.268,0,0,0,1.311-1.04c-1.4-2.4-2.079-4.25-2.079-5.516a3.6,3.6,0,0,1,.542-1.944c.271-.362.452-.588.542-.588s.181.226.226.724a6.864,6.864,0,0,0,.316,1.673c.045.045.362.9.995,2.532a6.926,6.926,0,0,1,.633,2.261"
          transform="translate(-443.506 -215.308)" fill="#a4a4a4" />
        <path id="Path_272" data-name="Path 272"
          d="M362.427,305.771a8.235,8.235,0,0,1-.633,2.984c-.588,1.311-1.311,1.989-2.215,1.989-1.4,0-2.4-.995-2.984-2.893-.633,2.441-1.854,3.707-3.617,3.707a2.248,2.248,0,0,1-1.763-.995,5.515,5.515,0,0,1-.814-3.119v-3.029c0-.226-.181-.407-.5-.5-.362-.09-.5-.362-.5-.769a2.946,2.946,0,0,1,.814-1.944c.543-.588.9-.859,1.176-.859.362,0,.542.678.542,1.989a8.71,8.71,0,0,1-.181,1.718,6.268,6.268,0,0,0-.136,1.221,5.114,5.114,0,0,0,.407,2.034c.362.769.814,1.176,1.311,1.176a2.518,2.518,0,0,0,1.854-.9,3.02,3.02,0,0,0,.9-2.125,10.2,10.2,0,0,0-.452-2.4,13.335,13.335,0,0,1-.407-2.08,3.583,3.583,0,0,1,.362-1.176c.271-.5.452-.769.543-.769.226,0,.542.724.9,2.216a16,16,0,0,1,.542,3.3c0,2.08.769,3.12,2.351,3.12a1.268,1.268,0,0,0,1.311-1.04c-1.4-2.4-2.08-4.25-2.08-5.516a3.6,3.6,0,0,1,.542-1.944c.271-.362.452-.588.542-.588s.181.226.226.724a6.883,6.883,0,0,0,.316,1.673c.045.045.362.9.995,2.532a6.925,6.925,0,0,1,.633,2.261"
          transform="translate(-256.535 -219.22)" fill="#a4a4a4" />
        <path id="Path_273" data-name="Path 273"
          d="M150.728,229.5q13.9-5.154,29.026-10.761.543-.2.678-.136c.09.045.09.271-.09.588a5.649,5.649,0,0,1-1.04,1.99c-8.454,3.12-18.4,6.963-29.795,11.619a14.154,14.154,0,0,1,1.221-3.3"
          transform="translate(-109.768 -160.489)" fill="#a4a4a4" />
        <path id="Path_274" data-name="Path 274"
          d="M768.225,225.719c-2.306-1.176-3.436-2.441-3.436-3.753a5.777,5.777,0,0,1,2.17-4.3c1.447-1.266,2.668-1.763,3.617-1.4q1.221.407,1.221,2.577a13.965,13.965,0,0,1-.814,4.385,7.586,7.586,0,0,1,2.17,1.673,7.527,7.527,0,0,1-1.537,3.165,6.5,6.5,0,0,0-2.125-1.718,22.3,22.3,0,0,1-4.838,4.838A38.218,38.218,0,0,1,758.5,234.9c-.407.181-2.577.995-6.465,2.441a5.611,5.611,0,0,1-1.221.362c-.09,0-.136-.045-.136-.09,0-.136.316-.452.995-.9,2.893-1.673,5.832-3.436,8.726-5.154a41.032,41.032,0,0,0,7.822-5.832m1.4-3.165a4.435,4.435,0,0,0,.135-2.17c-.135-.768-.5-1.175-1.085-1.175a2.317,2.317,0,0,0-1.085.407c-.452.271-.723.5-.723.768,0,.543.949,1.266,2.758,2.17"
          transform="translate(-551.153 -158.701)" fill="#a4a4a4" />
        <path id="Path_275" data-name="Path 275"
          d="M675.659,229.5q13.9-5.154,29.026-10.761.543-.2.678-.136c.09.045.09.271-.09.588a5.655,5.655,0,0,1-1.04,1.99c-8.455,3.12-18.4,6.963-29.795,11.619a14.154,14.154,0,0,1,1.221-3.3"
          transform="translate(-495.174 -160.489)" fill="#a4a4a4" />
        <path id="Path_276" data-name="Path 276"
          d="M609.127,224.407q13.9-5.154,29.026-10.761.542-.2.678-.136c.09.045.09.271-.09.588a5.66,5.66,0,0,1-1.04,1.99c-8.455,3.12-18.4,6.963-29.8,11.619a14.152,14.152,0,0,1,1.221-3.3"
          transform="translate(-446.326 -156.748)" fill="#a4a4a4" />
        <path id="Path_277" data-name="Path 277"
          d="M429.355,227.067q13.9-5.154,29.026-10.761.543-.2.678-.136c.091.045.091.271-.09.588a5.648,5.648,0,0,1-1.04,1.989c-8.454,3.12-18.4,6.963-29.795,11.619a14.161,14.161,0,0,1,1.221-3.3"
          transform="translate(-314.337 -158.701)" fill="#a4a4a4" />
        <path id="Path_278" data-name="Path 278"
          d="M333.677,227.067q13.9-5.154,29.026-10.761.542-.2.678-.136c.09.045.09.271-.09.588a5.652,5.652,0,0,1-1.04,1.989c-8.455,3.12-18.4,6.963-29.795,11.619a14.156,14.156,0,0,1,1.221-3.3"
          transform="translate(-244.09 -158.701)" fill="#a4a4a4" />
        <path id="Path_279" data-name="Path 279"
          d="M35.8,231.384a32.547,32.547,0,0,0-1.718-5.154c-.9-2.125-1.537-3.21-1.9-3.21-.271,0-.452.045-.5.226q-.136.271-.678.271a2.831,2.831,0,0,1-1.628-.949c-.678-.588-.995-1.085-.995-1.447a6.569,6.569,0,0,1,.814-1.673c.588-.949.949-1.4,1.085-1.4,1.356,0,2.622.814,3.707,2.441a16.484,16.484,0,0,1,2.306,6.375,2.991,2.991,0,0,1,.045.5q.068.136.136,0c0-.045.091-.226.181-.5a62.025,62.025,0,0,1,1.582-7.008c.949-2.261,1.989-3.346,3.074-3.346a2.137,2.137,0,0,1,1.673,1.13,3.184,3.184,0,0,1,.768,1.627,4.245,4.245,0,0,1-.271,1.266c-.226.678-.5,1.04-.769,1.04q-.2,0-.814-.814a1.635,1.635,0,0,0-1.266-.769c-.995,0-1.9,2.306-2.758,6.917a19.518,19.518,0,0,1-1.221,4.34,6.134,6.134,0,0,1,3.074,1.628,5.134,5.134,0,0,1,2.08,2.622,6.078,6.078,0,0,1-.542,1.537c-.362.814-.633,1.266-.769,1.311-1.175.317-2.4.678-3.617.995a6.652,6.652,0,0,0-3.119,1.718A47.493,47.493,0,0,1,36.3,256.024a21.464,21.464,0,0,1-.5,4.431c-.136.5-.226.768-.317.814-.136,0-.181-.859-.181-2.577a53.782,53.782,0,0,0-1.266-10.308,62.732,62.732,0,0,1-1.266-6.872,5.336,5.336,0,0,1,1.718-4.385,9.179,9.179,0,0,1,3.029-1.356,2.577,2.577,0,0,0-1.763-.9c-.271,0-.633.316-1.13.949s-.768.949-.859.949-.136-.271-.091-.814c.271-2.577.949-4.114,2.125-4.566"
          transform="translate(-20.842 -158.961)" fill="#a4a4a4" />
        <path id="Path_280" data-name="Path 280"
          d="M8,365.5a.8.8,0,0,1,.313-.438c.062-.125.125-.062.125,0a.848.848,0,0,1,0,.563c-.939,5.009-2.379,7.513-4.508,7.513-2.191,0-3.255-1.878-3.255-5.572a30.243,30.243,0,0,1,3.882-14.212c.689-1.252,1.064-1.878,1.189-1.878H5.8a11.651,11.651,0,0,1-.563,2.129c-1.69,5.2-2.5,8.828-2.5,10.894,0,2.817.751,4.257,2.254,4.257.876,0,1.878-1.127,3.005-3.256"
          transform="translate(-0.493 -258.053)" fill="#a4a4a4" />
        <path id="Path_281" data-name="Path 281"
          d="M196.653,305.946c1.356,0,2.622.814,3.707,2.441a16.486,16.486,0,0,1,2.306,6.375,2.629,2.629,0,0,1,.045.452q.068.135.136,0c0-.045.09-.181.181-.452a57.962,57.962,0,0,1,1.582-7.008c.949-2.261,1.99-3.346,3.075-3.346a2.137,2.137,0,0,1,1.673,1.13,3.185,3.185,0,0,1,.768,1.628,4.246,4.246,0,0,1-.271,1.266c-.226.678-.5,1.04-.769,1.04q-.2,0-.814-.814a1.635,1.635,0,0,0-1.266-.769c-.995,0-1.9,2.306-2.758,6.917a15.369,15.369,0,0,1-1.221,4.25c-.317.542-.542.859-.769.859s-.316-.271-.316-.814a16.319,16.319,0,0,0-1.4-4.7c-.9-2.351-1.583-3.481-1.99-3.481-.271,0-.452.045-.5.226q-.136.272-.678.271a2.831,2.831,0,0,1-1.628-.95c-.678-.588-.995-1.085-.995-1.447a6.567,6.567,0,0,1,.814-1.673c.588-.949.949-1.4,1.085-1.4"
          transform="translate(-142.989 -223.498)" fill="#a4a4a4" />
        <path id="Path_282" data-name="Path 282"
          d="M536.927,222.308a18.589,18.589,0,0,0-1.808,6.917c0,2.034.543,3.074,1.627,3.074.633,0,1.356-.814,2.17-2.351a3.077,3.077,0,0,1,.226-.317q.136-.068.136,0v.407q-1.018,5.425-3.255,5.425c-1.628,0-2.4-1.356-2.4-3.979a17.412,17.412,0,0,1,1.085-5.2c.723-2.17,1.085-3.3,1.085-3.346,0-.271-.5-.723-1.582-1.356a22.3,22.3,0,0,1-4.838,4.838,35.181,35.181,0,0,1-6.149,3.707c-.407.181-2.577,1.04-6.465,2.487a7.9,7.9,0,0,1-1.221.317c-.09,0-.136-.045-.136-.09,0-.136.316-.452.995-.859,2.893-1.718,5.832-3.436,8.726-5.2a41.032,41.032,0,0,0,7.822-5.832c-2.306-1.176-3.436-2.441-3.436-3.753a5.636,5.636,0,0,1,2.17-4.3c1.447-1.311,2.668-1.763,3.617-1.4q1.221.407,1.221,2.577a13.964,13.964,0,0,1-.814,4.385c1.13.678,1.718,1.4,1.718,2.125a4.049,4.049,0,0,1-.5,1.718m-2.577-4.521a4.433,4.433,0,0,0,.135-2.17c-.135-.768-.5-1.175-1.085-1.175a2.317,2.317,0,0,0-1.085.407c-.452.271-.723.5-.723.768,0,.542.949,1.266,2.758,2.17"
          transform="translate(-378.412 -155.197)" fill="#a4a4a4" />
        <path id="Path_283" data-name="Path 283"
          d="M777.433,543.066a13.745,13.745,0,0,1-9.449,3.3,4.414,4.414,0,0,1-2.938-.949,2.973,2.973,0,0,1-1.13-2.4,7.744,7.744,0,0,1,2.125-5.064c1.4-1.537,2.8-3.029,4.2-4.521.317-.317.226-.543-.226-.724a10.664,10.664,0,0,0-3.391-.542,4.62,4.62,0,0,0-2.17.588c-.181.091-.271.091-.362.046-.045-.046,0-.181.045-.407a5.667,5.667,0,0,1,1.537-2.351,4.334,4.334,0,0,1,2.8-.724c2.894,0,4.3.678,4.3,2.08,0,1.04-.9,2.532-2.758,4.476-1.266,1.356-2.577,2.667-3.888,4.024a3.362,3.362,0,0,0-.814,1.854c0,1.221,1.311,1.809,3.933,1.809a27.378,27.378,0,0,0,7.912-1.266c.769-.181,1.176-.271,1.176-.181,0,.135-.317.407-.9.949"
          transform="translate(-560.868 -388.629)" fill="#a4a4a4" />
        <path id="Path_284" data-name="Path 284"
          d="M404.481,530.168a28.711,28.711,0,0,0,7.867-1.266c.769-.226,1.176-.271,1.176-.181s-.317.407-.9.949a13.744,13.744,0,0,1-9.449,3.3,4.414,4.414,0,0,1-2.939-.95,2.973,2.973,0,0,1-1.13-2.4q0-3.8,3.255-8c-1.9-.542-2.848-1.582-2.893-3.029.045-1.221.814-2.667,2.306-4.385,1.537-1.718,2.8-2.577,3.707-2.577.271,0,.5.181.769.588a2.032,2.032,0,0,1,.362,1.221,3.271,3.271,0,0,1-.769,1.4c-.5.769-.769,1.04-.814.9-.226-.768-.633-1.13-1.311-1.13a2,2,0,0,0-1.266.859,2.648,2.648,0,0,0-.769,1.447,3.353,3.353,0,0,0,3.12,1.537,4.768,4.768,0,0,0,2.351-1.356c.588-.588,1.221-1.13,1.854-1.718.226-.181.362,0,.362.5a6.09,6.09,0,0,1-1.266,3.436,22.572,22.572,0,0,0-7.189,7.505,3.364,3.364,0,0,0-.407,1.447c0,1.266,1.311,1.9,3.979,1.9"
          transform="translate(-293.021 -375.641)" fill="#a4a4a4" />
        <path id="Path_285" data-name="Path 285"
          d="M114.631,517.777a.539.539,0,0,1,.814-.045q1.356-2.848,2.984-2.848a2.53,2.53,0,0,1,2.034,1.311,5.042,5.042,0,0,1,.995,3.12,4.372,4.372,0,0,1-.181,1.311c-.407,1.9-.995,2.849-1.809,2.849a5.539,5.539,0,0,1-2.8-1.176,8.7,8.7,0,0,1-2.306-1.989,13.247,13.247,0,0,1-2.622,4.973,26.689,26.689,0,0,1-7.505,5.742c-2.487,1.356-4.024,1.989-4.7,1.989-.09,0-1.492.362-4.25.995-2.893.723-4.7,1.13-5.425,1.266-1.085.181-1.582.226-1.582.136a6.176,6.176,0,0,1,1.582-.859c3.029-1.221,7.641-3.255,13.835-6.194,4.521-2.441,7.415-4.612,8.636-6.465.542-1.085,1.311-2.487,2.306-4.114m5.38,2.215a2.894,2.894,0,0,0-.769-1.311,1.625,1.625,0,0,0-1.175-.723,1.7,1.7,0,0,0-1.492.814,10.351,10.351,0,0,0,2.894,1.718c.271.136.452.181.5.09.09-.045.09-.271.045-.588"
          transform="translate(-64.81 -378.029)" fill="#a4a4a4" />
        <path id="Path_286" data-name="Path 286"
          d="M44.877,513.013c-.452-1.492-.362-2.577.271-3.21a2.362,2.362,0,0,1,1.718-.723,4.626,4.626,0,0,1,2.215.633,12.2,12.2,0,0,1,5.787,5.832,1.024,1.024,0,0,1,.136.588,6.556,6.556,0,0,1-.769,2.713c-.5,1.04-.949,1.537-1.447,1.537-.136,0-1.492-.136-4.024-.407a21.487,21.487,0,0,1-4.747,4.747,35.7,35.7,0,0,1-6.149,3.753q-.61.271-6.51,2.442a4.485,4.485,0,0,1-1.221.361c-.09,0-.136-.045-.136-.09,0-.136.317-.407,1.04-.9,2.894-1.673,5.742-3.346,8.636-5.064a43.754,43.754,0,0,0,7.6-5.471c-2.261-.543-3.391-1.537-3.391-3.12a7.044,7.044,0,0,1,.995-3.617m3.572,3.933a3.843,3.843,0,0,0,0-2.261c-.226-.9-.588-1.311-1.175-1.311a2.269,2.269,0,0,0-1.311.814c-.588.588-.859.995-.859,1.311,0,.678,1.13,1.175,3.346,1.447m4.838,0a5.81,5.81,0,0,0-3.255-3.029,9.23,9.23,0,0,1-.452,3.255q.339.068,3.527.543c.136,0,.226,0,.271-.045.09-.091.09-.317-.09-.724"
          transform="translate(-22.028 -373.768)" fill="#a4a4a4" />
        <path id="Path_287" data-name="Path 287"
          d="M510.782,459.657a.576.576,0,0,1,.226-.317c.045-.09.09-.045.09,0a.611.611,0,0,1,0,.407c-.678,3.617-1.718,5.425-3.255,5.425-1.583,0-2.351-1.356-2.351-4.024a21.839,21.839,0,0,1,2.8-10.263c.5-.9.768-1.356.859-1.356h.045a8.429,8.429,0,0,1-.407,1.537,30.247,30.247,0,0,0-1.809,7.867c0,2.035.542,3.075,1.628,3.075.633,0,1.356-.814,2.17-2.351"
          transform="translate(-371.133 -330.046)" fill="#a4a4a4" />
        <path id="Path_288" data-name="Path 288"
          d="M112.847,230.347a.576.576,0,0,1,.226-.317c.045-.09.09-.045.09,0a.612.612,0,0,1,0,.407c-.678,3.617-1.718,5.425-3.255,5.425-1.583,0-2.351-1.356-2.351-4.024a21.837,21.837,0,0,1,2.8-10.263c.5-.9.768-1.356.859-1.356h.045a8.43,8.43,0,0,1-.407,1.537,30.245,30.245,0,0,0-1.808,7.867c0,2.035.542,3.075,1.627,3.075.633,0,1.356-.814,2.17-2.351"
          transform="translate(-78.969 -161.686)" fill="#a4a4a4" />
        <path id="Path_289" data-name="Path 289"
          d="M597.709,553.081a8.137,8.137,0,0,1-1.582,4.25,14.561,14.561,0,0,1-4.069,4.25,4.478,4.478,0,0,1-1.176.723v-.045a4.688,4.688,0,0,1,.814-1.085c2.713-2.984,4.114-4.974,4.114-5.968,0-.949-.452-1.4-1.311-1.4a2.127,2.127,0,0,0-1.311.362,5.723,5.723,0,0,1-.543.317.342.342,0,0,0-.181-.09,4.5,4.5,0,0,1,.135-.769c.452-2.079,1.447-3.074,3.074-3.074,1.356,0,2.035.814,2.035,2.532"
          transform="translate(-433.827 -404.214)" fill="#a4a4a4" />
        <path id="Path_290" data-name="Path 290"
          d="M175.9,383.965a8.135,8.135,0,0,1-1.582,4.25,14.558,14.558,0,0,1-4.069,4.25,4.478,4.478,0,0,1-1.176.723v-.045a4.687,4.687,0,0,1,.814-1.085c2.713-2.984,4.114-4.973,4.114-5.968,0-.949-.452-1.4-1.311-1.4a2.128,2.128,0,0,0-1.311.361,5.714,5.714,0,0,1-.542.317.343.343,0,0,0-.181-.09,4.5,4.5,0,0,1,.136-.769c.452-2.08,1.447-3.074,3.074-3.074,1.356,0,2.034.814,2.034,2.532"
          transform="translate(-124.131 -280.049)" fill="#a4a4a4" />
        <path id="Path_291" data-name="Path 291"
          d="M706.041,284.827a8.134,8.134,0,0,1-1.582,4.25,14.557,14.557,0,0,1-4.069,4.25,4.475,4.475,0,0,1-1.176.723v-.045a4.686,4.686,0,0,1,.814-1.085c2.713-2.984,4.114-4.973,4.114-5.968,0-.949-.452-1.4-1.311-1.4a2.127,2.127,0,0,0-1.311.361,5.683,5.683,0,0,1-.543.317.342.342,0,0,0-.181-.09,4.5,4.5,0,0,1,.135-.769c.452-2.08,1.447-3.075,3.075-3.075,1.356,0,2.034.814,2.034,2.532"
          transform="translate(-513.364 -207.262)" fill="#a4a4a4" />
        <path id="Path_292" data-name="Path 292"
          d="M804.713,60.483a9.755,9.755,0,0,0-1.053-1.6c-.679-.849-1.155-1.291-1.427-1.291-.238,0-.578.238-1.019.747a2.278,2.278,0,0,0-.611,1.121c0,.238.238.577.679.985a2.243,2.243,0,0,0,3.431.034m1.019,1.97a3.774,3.774,0,0,1-3.329,1.869,2.687,2.687,0,0,1-1.9-.883,3.419,3.419,0,0,1-1.087-1.869,2.643,2.643,0,0,1-.1-.747,8.015,8.015,0,0,1,1.121-3.533,13.516,13.516,0,0,1,1.223-1.766c.544-.578.951-.883,1.291-.883.68,0,1.529.781,2.582,2.344a15.746,15.746,0,0,1,1.6,2.752,9.5,9.5,0,0,1,.883,3.465,7.528,7.528,0,0,1-.646,2.378,10.7,10.7,0,0,1-1.019,2.038c-1.63,1.9-4.314,2.854-8.085,2.854h-.1V67.413h.17a21.35,21.35,0,0,0,4.552-.441c2.14-.442,3.4-1.155,3.737-2.174,0-.068.034-.136.034-.238a3.579,3.579,0,0,0-.34-1.189,3.3,3.3,0,0,0-.578-.917"
          transform="translate(-586.008 -40.117)" fill="#a4a4a4" />
        <path id="Path_293" data-name="Path 293"
          d="M727.984,81.625q.713-.51.713-.815c0-.306-.578-.713-1.7-1.189a6.452,6.452,0,0,0-2.48-.441,6.138,6.138,0,0,0-3.5,1.053,36.225,36.225,0,0,0-4.043,3.3c.442.034.951.068,1.529.068a30.333,30.333,0,0,0,5.4-.544,9.773,9.773,0,0,0,4.077-1.427m2.514,4.892H718.676a13.918,13.918,0,0,1-3.3-.272c-.17.238-.51.849-1.019,1.8-.272.51-.476.781-.646.781-.1,0-.136-.1-.136-.306a2.878,2.878,0,0,1,.136-.815c.1-.306.34-.917.713-1.8a8.688,8.688,0,0,1-2.208-1.019,4.168,4.168,0,0,0-.985-.476,6.583,6.583,0,0,1-5.164,2.106H706V83.459h.238a6.816,6.816,0,0,0,2.989-.544,6.351,6.351,0,0,0,1.427-1.019,2.057,2.057,0,0,1,1.189-.544,4.835,4.835,0,0,1,1.325.645,12.525,12.525,0,0,0,2.786,1.189A48.64,48.64,0,0,1,721.02,78.5a8.415,8.415,0,0,1,4.892-2,5.178,5.178,0,0,1,1.733.306,5.9,5.9,0,0,1,2.174,1.223,2.2,2.2,0,0,1,.611,1.631,5.485,5.485,0,0,1-2,3.8H730.5v3.057"
          transform="translate(-518.349 -56.163)" fill="#a4a4a4" />
        <path id="Path_294" data-name="Path 294"
          d="M673.349,98.621h-.612a8.355,8.355,0,0,1-3.431-.679,6.272,6.272,0,0,1-1.9-1.291c-.2-.238-.442-.51-.645-.747a6.1,6.1,0,0,1-1.563,1.529,6.176,6.176,0,0,1-3.6,1.189h-.068V95.564h.068a7.72,7.72,0,0,0,3.363-.645,7.075,7.075,0,0,0,1.7-1.257c.476-.442.747-.68.883-.68.1,0,.374.238.849.68a9.007,9.007,0,0,0,1.767,1.257,6.949,6.949,0,0,0,3.057.645h.136Z"
          transform="translate(-485.694 -68.268)" fill="#a4a4a4" />
        <path id="Path_295" data-name="Path 295"
          d="M640.192,40.032h-.068c-1.9,0-3.16-.645-3.873-2a11.135,11.135,0,0,1-.374,2.684,8.594,8.594,0,0,1-.815,2.344,1.577,1.577,0,0,1-1.461.815V40.813a1.6,1.6,0,0,0,.985-.272,1.924,1.924,0,0,0,.679-1.9c-.068-.781-.543-4.79-1.461-11.958-.849-6.828-1.291-10.6-1.291-11.346.645-1.393,1.053-2.106,1.223-2.106s.578,2.854,1.223,8.595c.748,6.489,1.427,10.871,2.106,13.079a2.838,2.838,0,0,0,3.057,2.106h.068Z"
          transform="translate(-464.393 -9.712)" fill="#a4a4a4" />
        <path id="Path_296" data-name="Path 296"
          d="M581.573,71.482l-.849-3.533a22.289,22.289,0,0,0-4.858,1.732c-2.786,1.223-4.178,2.14-4.178,2.82,0,.136.475.272,1.461.374a28.792,28.792,0,0,0,3.091.136,15.4,15.4,0,0,0,2.412-.136,7.8,7.8,0,0,0,2.922-1.393m6.047,6.794a4.809,4.809,0,0,1-3.669-1.767,11.557,11.557,0,0,1-2.242-4.382,18.432,18.432,0,0,1-1.257,1.393,10.251,10.251,0,0,1-2.038,1.8,9.373,9.373,0,0,1-3.5.408,15.893,15.893,0,0,1-3.4-.306c-1.087-.238-1.631-.544-1.631-.985a4.849,4.849,0,0,1,1.019-2.548,10.982,10.982,0,0,1,2.31-2.548,35.831,35.831,0,0,1,7.1-3.7c-.1-.679-.306-1.529-.578-2.582a17.712,17.712,0,0,1,.815-2.922c.272,0,.611.849,1.019,2.582.238,1.189.476,2.412.748,3.6a35.538,35.538,0,0,0,1.325,4.926,7.336,7.336,0,0,0,1.936,3.091,3.071,3.071,0,0,0,2.038.917v3.023"
          transform="translate(-418.412 -44.151)" fill="#a4a4a4" />
        <path id="Path_297" data-name="Path 297"
          d="M812.2,30.852c0,.306-.34.781-.951,1.495q-.866,1.019-1.121,1.019c-.034,0-.883-.578-2.514-1.766.136-.238.51-.713,1.087-1.461a11.461,11.461,0,0,1,.985-1.189,4.326,4.326,0,0,1,1.359.815c.781.544,1.155.917,1.155,1.087"
          transform="translate(-592.952 -21.255)" fill="#a4a4a4" />
        <path id="Path_298" data-name="Path 298"
          d="M747.783,52.835c0,.306-.34.781-.951,1.495q-.866,1.019-1.121,1.019c-.034,0-.883-.578-2.514-1.766.136-.238.51-.713,1.087-1.461a11.45,11.45,0,0,1,.985-1.189,4.326,4.326,0,0,1,1.359.815c.781.544,1.155.917,1.155,1.087"
          transform="translate(-545.657 -37.395)" fill="#a4a4a4" />
        <path id="Path_299" data-name="Path 299"
          d="M667.612,129.588a18.122,18.122,0,0,1,1.936-2.48,4.3,4.3,0,0,1,1.393.815c.747.578,1.121.917,1.121,1.087,0,.306-.306.815-.951,1.529-.578.645-.951.985-1.087.985-.068,0-.883-.578-2.48-1.732a5.41,5.41,0,0,1-1.019,1.427c-.51.544-.815.815-.951.815-.034,0-.883-.611-2.514-1.8.136-.2.51-.679,1.087-1.427a10.282,10.282,0,0,1,.985-1.223,4.067,4.067,0,0,1,1.359.849c.781.544,1.155.883,1.155,1.053,0,.034-.034.068-.034.1"
          transform="translate(-486.82 -93.323)" fill="#a4a4a4" />
        <path id="Path_300" data-name="Path 300"
          d="M590.67,35.9a18.123,18.123,0,0,1,1.936-2.48,4.3,4.3,0,0,1,1.393.815c.747.578,1.121.917,1.121,1.087,0,.306-.306.815-.951,1.529-.578.645-.951.985-1.087.985-.068,0-.883-.578-2.48-1.732a5.413,5.413,0,0,1-1.019,1.427c-.51.544-.815.815-.951.815-.034,0-.883-.611-2.514-1.8.136-.2.51-.679,1.087-1.427a10.3,10.3,0,0,1,.985-1.223,4.063,4.063,0,0,1,1.359.849c.782.544,1.155.883,1.155,1.053,0,.034-.034.068-.034.1"
          transform="translate(-430.329 -24.539)" fill="#a4a4a4" />
        <path id="Path_301" data-name="Path 301"
          d="M218.582,55.9a4.411,4.411,0,0,1-1.155,2.072c0-1.087-.34-5.2-1.087-12.366-.679-6.93-1.019-10.531-.985-10.769a7.157,7.157,0,0,1,.578-1.563c.34-.781.611-1.189.747-1.189.034,0,.068.068.068.17q1.987,17.427,1.97,22.014a7.5,7.5,0,0,1-.136,1.631"
          transform="translate(-158.112 -23.554)" fill="#a4a4a4" />
        <path id="Path_302" data-name="Path 302"
          d="M183.5,39.742a6.946,6.946,0,0,1-.747,3.023,6.136,6.136,0,0,1-1.6,2.242,5.183,5.183,0,0,1-3.363.883h-.136V42.833h.136a11.931,11.931,0,0,0,2.412-.272c1.087-.272,1.733-.611,1.937-1.053a28.893,28.893,0,0,0-.306-3.567c-.17-2.14-.374-4.077-.544-5.809-.407-4.145-.713-6.862-.985-8.153a4.665,4.665,0,0,0-.544-1.121,3.459,3.459,0,0,1-.51-1.223,9.831,9.831,0,0,1,.815-2.48,9.845,9.845,0,0,1,1.189-2.412,4.67,4.67,0,0,1,.17,1.631,7.13,7.13,0,0,0,.238,1.936,2.378,2.378,0,0,0,1.325.985,1.873,1.873,0,0,1,.849.34c.068.2-.408,1.257-1.529,3.091.034.679.238,3.3.645,7.847.34,4.145.544,6.523.544,7.168"
          transform="translate(-130.436 -12.293)" fill="#a4a4a4" />
        <path id="Path_303" data-name="Path 303"
          d="M123.231,106.665h-.136c-1.97,0-3.261-.645-3.941-2a3.456,3.456,0,0,1-3.193,2.276,4.052,4.052,0,0,1-2.48-.747,5.055,5.055,0,0,1-3.6,1.189,7.574,7.574,0,0,1-1.529-.136,6.289,6.289,0,0,1-1.631-.849,4.979,4.979,0,0,1-3.126.985h-.068v-3.057h.781a4.433,4.433,0,0,0,1.97-.408,3.815,3.815,0,0,0,1.7-1.732c.374-.645.612-.951.747-.917.1.034.17.17.17.408a6.8,6.8,0,0,1-.51,2.31c.238.238.883.34,1.97.34a6.748,6.748,0,0,0,2.106-.272,2.6,2.6,0,0,0,1.495-1.121,10.418,10.418,0,0,0,.849-1.461c.238-.475.476-.713.679-.713.17,0,.238.136.238.408a4.984,4.984,0,0,1-.272,1.427,7.713,7.713,0,0,1-.407,1.087,2.048,2.048,0,0,0,1.019.238h.645a2.708,2.708,0,0,0,2.242-1.121A9.12,9.12,0,0,0,120,100.686c.272-.747.544-1.121.747-1.121s.306.136.306.441a8.509,8.509,0,0,1-.578,2.106c.17,1.019,1.053,1.529,2.616,1.529h.136Z"
          transform="translate(-76.01 -73.101)" fill="#a4a4a4" />
        <path id="Path_304" data-name="Path 304"
          d="M79.845,91.8h-.1a4.742,4.742,0,0,1-3.024-1.155,5.213,5.213,0,0,1-1.8-2.582c-.781,2.48-1.9,3.737-3.4,3.737h-.2V88.743h.1a3.246,3.246,0,0,0,1.665-.612,2.207,2.207,0,0,0,1.257-1.9c0-.34-.1-1.257-.306-2.718A19.055,19.055,0,0,1,73.8,80.93a9.8,9.8,0,0,1,.611-1.461q.51-.968.612-1.121a17.784,17.784,0,0,1,.408,3.057,15.187,15.187,0,0,0,1.087,4.926,5.038,5.038,0,0,0,1.393,1.7,2.965,2.965,0,0,0,1.767.713h.17Z"
          transform="translate(-52.362 -57.523)" fill="#a4a4a4" />
        <path id="Path_305" data-name="Path 305"
          d="M0,108.957a23.156,23.156,0,0,1,1.766-9.274,17.366,17.366,0,0,1,3.7-5.571,10.066,10.066,0,0,1,3.125-2.276A15.129,15.129,0,0,0,5.47,91.5,4.526,4.526,0,0,0,3.023,92a8.169,8.169,0,0,0-1.529,1.461q-.714.815-.917.815a.16.16,0,0,1-.17-.17A6.278,6.278,0,0,1,1.529,91.6a6.7,6.7,0,0,1,2.106-2.412,5.051,5.051,0,0,1,2.548-.611,20.4,20.4,0,0,1,2.106.17,19.006,19.006,0,0,0,1.97.238c1.936.068,4.688.034,8.255-.136a.488.488,0,0,1,.306.068.19.19,0,0,1,.034.2,6.071,6.071,0,0,1-1.223,2.31.5.5,0,0,1-.306.2c-.408.1-.951.238-1.7.373a2.979,2.979,0,0,0-.374,1.427,2.4,2.4,0,0,0,.917,1.9,3.811,3.811,0,0,0,2.65.917h.136v3.057H18.82a5.043,5.043,0,0,1-4.145-1.631,3.905,3.905,0,0,1-.645-2.446,12.372,12.372,0,0,1,.408-3.023c-.713.136-1.393.272-2.072.442a23.437,23.437,0,0,0-4.45,1.6c-1.869.883-3.4,2.718-4.586,5.436A18.268,18.268,0,0,0,1.8,106.851c0,4.892,2.378,7.813,7.066,8.833a35.8,35.8,0,0,0,6.9.645c1.835,0,3.907-.136,6.285-.374s3.7-.34,3.975-.34q1.019,0,1.019.2,0,.153-.713.51a26.67,26.67,0,0,1-4.96,1.495,40.451,40.451,0,0,1-9.1,1.155c-3.6,0-6.387-.578-8.323-1.767C1.291,115.615,0,112.864,0,108.957"
          transform="translate(0 -65.031)" fill="#a4a4a4" />
        <path id="Path_306" data-name="Path 306"
          d="M133.081,63.023c0,.306-.306.781-.917,1.461-.544.646-.917.951-1.053.951-.034,0-.815-.578-2.378-1.7a10.845,10.845,0,0,1,1.97-2.514,4.791,4.791,0,0,1,1.291.781c.713.544,1.087.883,1.087,1.019m-1.869,4.043a18.134,18.134,0,0,1,1.936-2.48,4.3,4.3,0,0,1,1.393.815c.747.578,1.121.917,1.121,1.087,0,.306-.306.815-.951,1.529-.578.645-.951.985-1.087.985-.068,0-.884-.578-2.48-1.732a5.409,5.409,0,0,1-1.019,1.427c-.51.544-.815.815-.951.815-.034,0-.883-.611-2.514-1.8.136-.2.51-.679,1.087-1.427a10.321,10.321,0,0,1,.985-1.223,4.063,4.063,0,0,1,1.359.849c.781.544,1.155.884,1.155,1.053,0,.034-.034.068-.034.1"
          transform="translate(-92.994 -44.949)" fill="#a4a4a4" />
        <path id="Path_307" data-name="Path 307"
          d="M52.992,145.117a18.135,18.135,0,0,1,1.936-2.48,4.3,4.3,0,0,1,1.393.815c.747.578,1.121.917,1.121,1.087,0,.306-.306.815-.951,1.529-.578.645-.951.985-1.087.985-.068,0-.884-.578-2.48-1.732a5.408,5.408,0,0,1-1.019,1.427c-.51.544-.815.815-.951.815-.034,0-.883-.611-2.514-1.8.136-.2.51-.679,1.087-1.427a10.319,10.319,0,0,1,.985-1.223,4.063,4.063,0,0,1,1.359.849c.781.544,1.155.884,1.155,1.053,0,.034-.034.068-.034.1"
          transform="translate(-35.565 -104.724)" fill="#a4a4a4" />
        <path id="Path_308" data-name="Path 308"
          d="M31.555,50.854c0,.306-.34.781-.951,1.495q-.866,1.019-1.121,1.019c-.034,0-.884-.578-2.514-1.766.136-.238.509-.713,1.087-1.461a11.479,11.479,0,0,1,.985-1.189,4.326,4.326,0,0,1,1.359.815c.781.544,1.155.917,1.155,1.087"
          transform="translate(-19.801 -35.941)" fill="#a4a4a4" />
        <path id="Path_309" data-name="Path 309"
          d="M86.02,9.075q0,.2-.306,1.835c-.374.136-1.8.815-4.314,2-3.329,1.563-6.421,3.091-9.24,4.552q-9.274,4.79-13.623,7.44a8.457,8.457,0,0,1,.2-.917,6.811,6.811,0,0,1,.34-.985,35.817,35.817,0,0,1,3.873-2.31q4.026-2.344,8.255-4.484c3.023-1.563,6.387-3.227,10.055-4.96,3.092-1.461,4.654-2.174,4.756-2.174"
          transform="translate(-42.978 -6.663)" fill="#a4a4a4" />
        <path id="Path_310" data-name="Path 310"
          d="M60.87,20.673c-.544.883-1.835,1.732-3.839,2.548a2.14,2.14,0,0,1-.679.136c-.136,0-.2-.034-.238-.136.034-.136.2-.34.578-.612l1.223-.713a5.572,5.572,0,0,0,1.359-1.019c0-.1-.272-.2-.815-.34a5.742,5.742,0,0,0-1.291-.2,3.055,3.055,0,0,0-1.733.985c-.17.17-.306.272-.407.272-.068,0-.068-.034-.068-.1a.65.65,0,0,1,.17-.407,10.543,10.543,0,0,1,1.563-1.835,2.612,2.612,0,0,1,1.087-.713,11.676,11.676,0,0,1,3.091.611.492.492,0,0,1,.272.51,2.075,2.075,0,0,1-.272,1.019"
          transform="translate(-40.351 -13.607)" fill="#a4a4a4" />
        <path id="Path_311" data-name="Path 311"
          d="M127.324,37.2c-.238.17-.476.374-.747.544a2.241,2.241,0,0,1-1.359.441.939.939,0,0,1-.612-.34,1.978,1.978,0,0,1-.374-1.257,3.7,3.7,0,0,1,.442-1.427c.272-.51.441-.781.578-.781.034,0,.034.034.034.136a2.353,2.353,0,0,1-.068.51c-.034.306-.068.51-.068.679,0,.544.2.781.578.781a1.41,1.41,0,0,0,1.325-.713,4.778,4.778,0,0,0,.475-1.495c.1-.578.238-.849.34-.849.17,0,.272.272.272.815v1.019c.034.272.1.374.238.374a2.167,2.167,0,0,0,1.835-.849A2.315,2.315,0,0,0,129.8,33.5c.374-.68.612-1.121.713-1.291.136,0,.238.17.34.476a3.213,3.213,0,0,1,.136.951,4.243,4.243,0,0,1-.238,1.359,4.065,4.065,0,0,1-.815,1.393A2.727,2.727,0,0,1,128,37.3a2.188,2.188,0,0,1-.679-.1"
          transform="translate(-91.211 -23.648)" fill="#a4a4a4" />
        <path id="Path_312" data-name="Path 312"
          d="M545.394,55.9a4.412,4.412,0,0,1-1.155,2.072c0-1.087-.34-5.2-1.087-12.366-.68-6.93-1.019-10.531-.985-10.769a7.152,7.152,0,0,1,.578-1.563c.34-.781.611-1.189.747-1.189.034,0,.068.068.068.17q1.987,17.427,1.97,22.014a7.508,7.508,0,0,1-.136,1.631"
          transform="translate(-398.058 -23.554)" fill="#a4a4a4" />
        <path id="Path_313" data-name="Path 313"
          d="M517.214,41.915a6.944,6.944,0,0,1-.747,3.023,6.134,6.134,0,0,1-1.6,2.242,5.182,5.182,0,0,1-3.363.883h-.136V45.006h.136a11.932,11.932,0,0,0,2.412-.272c1.087-.272,1.733-.611,1.937-1.053a28.908,28.908,0,0,0-.306-3.567c-.17-2.14-.374-4.077-.543-5.809-.407-4.145-.714-6.862-.985-8.153a4.668,4.668,0,0,0-.544-1.121,3.459,3.459,0,0,1-.51-1.223,9.83,9.83,0,0,1,.815-2.48,9.829,9.829,0,0,1,1.189-2.412,4.683,4.683,0,0,1,.17,1.631,7.134,7.134,0,0,0,.238,1.936,2.378,2.378,0,0,0,1.325.985,1.874,1.874,0,0,1,.849.34c.068.2-.408,1.257-1.529,3.092.034.679.238,3.3.645,7.847.34,4.145.543,6.523.543,7.168"
          transform="translate(-375.45 -13.888)" fill="#a4a4a4" />
        <path id="Path_314" data-name="Path 314"
          d="M460.664,101.331h-.136a7.186,7.186,0,0,1-2.548-.442,5.694,5.694,0,0,1-2.786-1.868,25.141,25.141,0,0,1-11.211,2.514c-.781,0-1.325,0-1.631-.034V98.443c.34.034.883.068,1.631.068,4.518,0,7.78-.51,9.852-1.529a1.928,1.928,0,0,0-.51-.747,4.265,4.265,0,0,0-1.291-.849,3.705,3.705,0,0,0-1.189-.238,3.249,3.249,0,0,0-.747.1c-.272.034-.408.068-.442.068a.26.26,0,0,1-.17-.068c-.068-.136.17-.578.781-1.325a7,7,0,0,1,1.7-1.664,5.909,5.909,0,0,1,3.194-.747,7.686,7.686,0,0,1,1.8.238c2.208.578,3.3,1.495,3.3,2.65,0,.917-.815,1.97-2.446,3.091a3.455,3.455,0,0,0,2.718.815h.136Z"
          transform="translate(-324.777 -67.189)" fill="#a4a4a4" />
        <path id="Path_315" data-name="Path 315"
          d="M365.2,59.606a6.741,6.741,0,0,1-.2,1.8c-.17.578-.272.849-.34.849a4.682,4.682,0,0,1-.306-1.529,11.918,11.918,0,0,0-1.563-4.111,15.5,15.5,0,0,0-5.1-5.639,2.591,2.591,0,0,1-1.291.306,3.353,3.353,0,0,1-2.378-1.019A3.528,3.528,0,0,1,353,48.6a5.925,5.925,0,0,1,0-1.563c.136-.815.34-1.189.68-1.189a7.744,7.744,0,0,1,3.363,1.359,22.583,22.583,0,0,1,4.79,3.907,12,12,0,0,1,2.786,5.164,11.59,11.59,0,0,1,.577,3.329m-9.614,9c-.034-.068.51-.34,1.665-.815a22.448,22.448,0,0,0,4.145-2.038,15.905,15.905,0,0,0,4.484-4.28,13.775,13.775,0,0,0,2-4.552,85.676,85.676,0,0,0,1.427-9.852c.17-1.461.441-2.208.849-2.208.34,0,.713,2.072,1.155,6.217.544,5.4.849,8.153.849,8.255a8.751,8.751,0,0,0,1.087,3.3,4.64,4.64,0,0,0,3.465,1.563V67.25a10.919,10.919,0,0,1-3.193-.713,4.507,4.507,0,0,1-2-2.174c-.747-1.563-1.257-4.858-1.563-9.988-.306,1.427-.679,2.752-1.053,4.009a23.9,23.9,0,0,1-3.261,6.794A9.327,9.327,0,0,1,361.052,68a16.2,16.2,0,0,1-4.586.781c-.544,0-.849-.068-.883-.17"
          transform="translate(-259.136 -32.938)" fill="#a4a4a4" />
        <path id="Path_316" data-name="Path 316"
          d="M327.185,95.743c0-.068.034-.136.034-.272a5.092,5.092,0,0,0-.646-2.106c-.441-.917-.815-1.393-1.189-1.393-.883,0-1.631.612-2.276,1.8a5.521,5.521,0,0,0,1.936,1.427,5.217,5.217,0,0,0,2.14.544m2.14-.679a4.933,4.933,0,0,1-.578,2.038c-.374.781-.679,1.223-.883,1.291a2.693,2.693,0,0,1-.883.1,6.986,6.986,0,0,1-5.13-2.242,6.205,6.205,0,0,1-2.99,3.363,5.648,5.648,0,0,1-2.65.713h-.136V97.271h.1c2.956,0,4.654-.612,5.062-1.869a12,12,0,0,1,2.412-4.179c1.223-1.427,2.242-2.14,3.091-2.14.544,0,1.121.815,1.733,2.378a10.5,10.5,0,0,1,.849,3.6"
          transform="translate(-232.064 -65.406)" fill="#a4a4a4" />
        <path id="Path_317" data-name="Path 317"
          d="M250.914,69.373l-.849-3.567a20.874,20.874,0,0,0-4.586,1.766c-2.582,1.189-3.873,2.14-3.873,2.786,0,.17.441.272,1.291.408a23.788,23.788,0,0,0,2.82.136,13.812,13.812,0,0,0,2.276-.136,5.522,5.522,0,0,0,1.8-.646,4.464,4.464,0,0,0,1.121-.747m8.765,8.153h-.136a7.661,7.661,0,0,1-5.47-1.835,12.646,12.646,0,0,1-2.989-5.673,12.6,12.6,0,0,1-3.3,3.193,9.5,9.5,0,0,1-3.5.408,15.671,15.671,0,0,1-3.4-.306c-1.087-.2-1.631-.544-1.631-.985a4.953,4.953,0,0,1,1.019-2.548,11.716,11.716,0,0,1,2.31-2.548c.917-.781,3.3-2,7.1-3.7a14.338,14.338,0,0,0-.68-2.514,24.964,24.964,0,0,1,.917-2.989c.306.17.646,1.019,1.019,2.582.407,1.936.815,3.873,1.257,5.809a19.722,19.722,0,0,0,2.14,5.5,5.867,5.867,0,0,0,5.2,2.548h.136v3.057"
          transform="translate(-175.667 -42.604)" fill="#a4a4a4" />
        <path id="Path_318" data-name="Path 318"
          d="M265.03,37.884a18.138,18.138,0,0,1,1.936-2.48,4.3,4.3,0,0,1,1.393.815c.747.578,1.121.917,1.121,1.087,0,.306-.306.815-.951,1.529-.578.645-.951.985-1.087.985-.068,0-.884-.578-2.48-1.732a5.409,5.409,0,0,1-1.019,1.427c-.51.544-.815.815-.951.815-.034,0-.883-.611-2.514-1.8.136-.2.509-.679,1.087-1.427a10.313,10.313,0,0,1,.985-1.223,4.064,4.064,0,0,1,1.359.849c.781.544,1.155.884,1.155,1.053,0,.034-.034.068-.034.1"
          transform="translate(-191.243 -25.994)" fill="#a4a4a4" />
        <path id="Path_319" data-name="Path 319"
          d="M457.438,0q0,.2-.306,1.835c-.374.136-1.8.815-4.314,2-3.329,1.563-6.421,3.091-9.24,4.552q-9.274,4.79-13.623,7.44a8.472,8.472,0,0,1,.2-.917,6.81,6.81,0,0,1,.34-.985,35.813,35.813,0,0,1,3.873-2.31q4.026-2.344,8.255-4.484c3.023-1.563,6.387-3.227,10.056-4.96C455.774.713,457.336,0,457.438,0"
          transform="translate(-315.674)" fill="#a4a4a4" />
        <path id="Path_320" data-name="Path 320"
          d="M379.558,8.433a6.282,6.282,0,0,1-.272,1.665c-.951.476-2.378,1.223-4.315,2.208-1.563.815-3.194,1.7-4.892,2.582-.034.034-.068-.034-.068-.17a3.936,3.936,0,0,1,.136-.917c.068-.374.136-.611.2-.645.442-.272,1.733-.985,3.907-2.106,3.465-1.766,5.2-2.65,5.3-2.616"
          transform="translate(-271.664 -6.191)" fill="#a4a4a4" />
        <path id="Path_321" data-name="Path 321"
          d="M311.1,30.032c0,.17-.1.713-.272,1.665-2,.985-4.484,2.174-7.44,3.635-2.582,1.427-5.232,2.82-8.017,4.213.034-1.019.1-1.6.306-1.7.51-.34,2.854-1.563,7-3.737.612-.306,2.106-1.053,4.484-2.208,2.582-1.257,3.873-1.9,3.941-1.869"
          transform="translate(-216.862 -22.049)" fill="#a4a4a4" />
        <path id="Path_322" data-name="Path 322"
          d="M386.524,31.2c-.238.17-.476.374-.747.544a2.241,2.241,0,0,1-1.359.442.94.94,0,0,1-.612-.34,1.978,1.978,0,0,1-.374-1.257,3.7,3.7,0,0,1,.442-1.427c.272-.51.441-.781.578-.781.034,0,.034.034.034.136a2.352,2.352,0,0,1-.068.51c-.034.306-.068.51-.068.679,0,.544.2.781.578.781a1.409,1.409,0,0,0,1.325-.713,4.767,4.767,0,0,0,.476-1.495c.1-.577.238-.849.34-.849.17,0,.272.272.272.815v1.019c.034.272.1.374.238.374a2.167,2.167,0,0,0,1.835-.849A2.314,2.314,0,0,0,389,27.493c.374-.68.612-1.121.713-1.291.136,0,.238.17.34.476a3.211,3.211,0,0,1,.136.951,4.243,4.243,0,0,1-.238,1.359,4.071,4.071,0,0,1-.815,1.393,2.728,2.728,0,0,1-1.936.917,2.188,2.188,0,0,1-.679-.1"
          transform="translate(-281.517 -19.238)" fill="#a4a4a4" />
        <path id="Path_323" data-name="Path 323"
          d="M245.553,10.04a.882.882,0,0,0-.679.34.813.813,0,0,0-.34.612c0,.136.442.373,1.291.713a2.056,2.056,0,0,0,.17-.815c0-.578-.136-.849-.442-.849m2.548,3.567a2.132,2.132,0,0,1-.815,1.325,5.456,5.456,0,0,0-1.733-1.325,12.065,12.065,0,0,1-2.955,2.446,11.368,11.368,0,0,1-2.922,1.427,5.213,5.213,0,0,1-.883.17c-.1,0-.17-.034-.17-.068,0-.1.306-.34.951-.747.815-.476,1.834-1.223,3.091-2.14a20.8,20.8,0,0,0,1.97-1.563,1.76,1.76,0,0,1-1.087-1.665,3.426,3.426,0,0,1,.85-2.038c.577-.747,1.121-1.121,1.6-1.121.2,0,.407.136.611.442a2.354,2.354,0,0,1,.374,1.427,4.813,4.813,0,0,1-.34,1.936c.951.713,1.461,1.223,1.461,1.495"
          transform="translate(-175.198 -6.099)" fill="#a4a4a4" />
        <path id="Path_324" data-name="Path 324"
          d="M470.457,51.492a6.411,6.411,0,0,1-.1-1.223,9.757,9.757,0,0,0-.306-2.31,5.046,5.046,0,0,0-1.495-2.446,12.46,12.46,0,0,1,1.087-1.291,4.262,4.262,0,0,1,1.664,3.771,8.738,8.738,0,0,1-.34,2.48c-.238.713-.374,1.053-.51,1.019"
          transform="translate(-344.014 -32.468)" fill="#a4a4a4" />
        <path id="Path_325" data-name="Path 325"
          d="M310.693,77.822a6.414,6.414,0,0,1-.1-1.223,9.757,9.757,0,0,0-.306-2.31,5.046,5.046,0,0,0-1.495-2.446,12.415,12.415,0,0,1,1.087-1.291,4.261,4.261,0,0,1,1.664,3.771,8.738,8.738,0,0,1-.34,2.48c-.238.713-.374,1.053-.51,1.019"
          transform="translate(-226.715 -51.799)" fill="#a4a4a4" />
      </g>
    </g>
  </g>
</svg>